STARTFONT 2.1
COMMENT
COMMENT Converted from OpenType font "montserrat_regular.ttf" by "otf2bdf 3.0".
COMMENT
FONT -FreeType-Montserrat Thin-Medium-R-Normal--66-480-100-100-P-330-ISO10646-1
SIZE 48 100 100
FONTBOUNDINGBOX 113 85 -11 -17
STARTPROPERTIES 19
FOUNDRY "FreeType"
FAMILY_NAME "Montserrat Thin"
WEIGHT_NAME "Medium"
SLANT "R"
SETWIDTH_NAME "Normal"
ADD_STYLE_NAME ""
PIXEL_SIZE 66
POINT_SIZE 480
RESOLUTION_X 100
RESOLUTION_Y 100
SPACING "P"
AVERAGE_WIDTH 330
CHARSET_REGISTRY "ISO10646"
CHARSET_ENCODING "1"
FONT_ASCENT 64
FONT_DESCENT 16
COPYRIGHT "Copyright 2011 The Montserrat Project Authors (https://github.com/JulietaUla/Montserrat)"
_OTF_FONTFILE "montserrat_regular.ttf"
_OTF_PSNAME "Montserrat-Thin"
ENDPROPERTIES
CHARS 969
STARTCHAR 0000
ENCODING 0
SWIDTH 0 0
DWIDTH 0 0
BBX 0 0 0 0
BITMAP
ENDCHAR
STARTCHAR 000D
ENCODING 13
SWIDTH 240 0
DWIDTH 16 0
BBX 0 0 0 0
BITMAP
ENDCHAR
STARTCHAR 0020
ENCODING 32
SWIDTH 240 0
DWIDTH 16 0
BBX 0 0 0 0
BITMAP
ENDCHAR
STARTCHAR 0021
ENCODING 33
SWIDTH 240 0
DWIDTH 16 0
BBX 4 47 6 0
BITMAP
60
60
60
60
60
60
60
60
60
60
60
60
60
60
60
60
60
60
60
60
60
20
20
20
20
20
20
20
20
20
20
20
20
20
00
00
00
00
00
00
00
00
00
00
70
F0
60
ENDCHAR
STARTCHAR 0022
ENCODING 34
SWIDTH 330 0
DWIDTH 22 0
BBX 12 17 5 30
BITMAP
C030
C030
C030
C030
C030
C030
C030
C030
C030
C030
C030
C030
4010
4010
4010
4010
4010
ENDCHAR
STARTCHAR 0023
ENCODING 35
SWIDTH 675 0
DWIDTH 45 0
BBX 41 47 2 0
BITMAP
000300008000
000200018000
000200018000
000200018000
000200010000
000200010000
000600010000
000600010000
000600010000
000400030000
000400030000
000400030000
000400020000
000400020000
3FFFFFFFFF80
3FFFFFFFFF80
000C00020000
000C00060000
000800060000
000800060000
000800040000
000800040000
000800040000
001800040000
001800040000
001800040000
0010000C0000
0010000C0000
001000080000
001000080000
001000080000
003000080000
FFFFFFFFFE00
003000080000
002000180000
002000180000
002000180000
002000100000
002000100000
006000100000
006000100000
006000100000
004000300000
004000300000
004000300000
004000200000
004000200000
ENDCHAR
STARTCHAR 0024
ENCODING 36
SWIDTH 600 0
DWIDTH 40 0
BBX 32 63 4 -8
BITMAP
00018000
00018000
00018000
00018000
00018000
00018000
00018000
00018000
000FF800
007FBF80
01C180E0
07018038
0C01800C
18018000
10018000
30018000
20018000
60018000
60018000
60018000
60018000
60018000
60018000
20018000
30018000
10018000
18018000
0C018000
03018000
01E18000
003D8000
0007C000
0001FC00
00018780
000180E0
00018030
0001800C
00018004
00018006
00018003
00018003
00018001
00018001
00018001
00018001
00018001
00018003
00018002
C0018006
60018004
3001800C
1C018038
07018060
01F187C0
003FFE00
00018000
00018000
00018000
00018000
00018000
00018000
00018000
00018000
ENDCHAR
STARTCHAR 0025
ENCODING 37
SWIDTH 795 0
DWIDTH 53 0
BBX 47 47 3 0
BITMAP
00F800000100
079E00000300
0C0300000600
180080000400
300040000C00
200060001800
600020001000
400020002000
400030006000
400010004000
C00010008000
C00010018000
C00010010000
C00010020000
C00010060000
4000100C0000
400030080000
400030180000
600020300000
200060200000
300040600000
1800C0C00000
0C0180803F00
07070180F3C0
01FC03018060
000002030030
000004060018
00000C040008
0000080C0004
000010080004
000030080006
000020180006
000040180002
0000C0180002
000080100002
000100100002
000300180002
000600180006
000400080006
000C00080004
001800080004
0010000C000C
003000060008
006000020010
004000010030
00C00000C0C0
018000007F80
ENDCHAR
STARTCHAR 0026
ENCODING 38
SWIDTH 630 0
DWIDTH 42 0
BBX 38 47 4 -1
BITMAP
0007E00000
003C7C0000
0060060000
00C0030000
0180018000
0100008000
0300008000
0200008000
0200008000
0200008000
0200008000
0300008000
0300010000
0100030000
0180060000
00C00C0000
0040180000
0060300000
0030C00000
0019800000
000E000000
001E000000
0033000000
00C1000000
0180800000
0300400000
0C00600000
1800300000
1000180040
20000C0040
6000060040
40000300C0
C000018080
800000C080
8000006180
8000002100
8000001300
8000001A00
8000000E00
C000000E00
4000000B00
6000001180
30000060C0
180000C060
0E00038030
03C01E0018
007FF0000C
ENDCHAR
STARTCHAR 0027
ENCODING 39
SWIDTH 180 0
DWIDTH 12 0
BBX 2 17 5 30
BITMAP
C0
C0
C0
C0
C0
C0
C0
C0
C0
C0
C0
C0
40
40
40
40
40
ENDCHAR
STARTCHAR 0028
ENCODING 40
SWIDTH 300 0
DWIDTH 20 0
BBX 9 62 8 -13
BITMAP
0100
0300
0200
0600
0400
0400
0800
0800
0800
1000
1000
1000
3000
2000
2000
2000
6000
6000
4000
4000
4000
4000
4000
C000
C000
C000
C000
C000
C000
C000
C000
C000
C000
C000
C000
C000
C000
C000
4000
4000
4000
4000
4000
4000
6000
2000
2000
2000
2000
1000
1000
1000
1800
0800
0800
0C00
0400
0600
0200
0300
0100
0180
ENDCHAR
STARTCHAR 0029
ENCODING 41
SWIDTH 300 0
DWIDTH 20 0
BBX 9 62 4 -13
BITMAP
C000
4000
6000
2000
3000
1000
1000
0800
0800
0C00
0400
0400
0400
0600
0200
0200
0200
0200
0300
0300
0100
0100
0100
0100
0100
0100
0100
0100
0180
0180
0180
0180
0180
0100
0100
0100
0100
0100
0100
0100
0100
0100
0300
0300
0200
0200
0200
0600
0400
0400
0400
0C00
0800
0800
1800
1000
1000
2000
2000
4000
4000
8000
ENDCHAR
STARTCHAR 002A
ENCODING 42
SWIDTH 345 0
DWIDTH 23 0
BBX 20 22 2 27
BITMAP
006000
006000
006000
006000
006000
C06030
7060E0
186180
066600
03FC00
00F000
00F000
036C00
0E6700
3861C0
606060
806030
006000
006000
006000
006000
006000
ENDCHAR
STARTCHAR 002B
ENCODING 43
SWIDTH 555 0
DWIDTH 37 0
BBX 27 27 5 10
BITMAP
00040000
00040000
00040000
00040000
00040000
00040000
00040000
00040000
00040000
00040000
00040000
00040000
00040000
FFFFFFE0
00040000
00040000
00040000
00040000
00040000
00040000
00040000
00040000
00040000
00040000
00040000
00040000
00040000
ENDCHAR
STARTCHAR 002C
ENCODING 44
SWIDTH 180 0
DWIDTH 12 0
BBX 4 12 4 -9
BITMAP
60
F0
70
30
20
20
60
60
40
40
40
C0
ENDCHAR
STARTCHAR 002D
ENCODING 45
SWIDTH 375 0
DWIDTH 25 0
BBX 17 1 4 17
BITMAP
FFFF80
ENDCHAR
STARTCHAR 002E
ENCODING 46
SWIDTH 180 0
DWIDTH 12 0
BBX 4 3 4 0
BITMAP
70
F0
60
ENDCHAR
STARTCHAR 002F
ENCODING 47
SWIDTH 300 0
DWIDTH 20 0
BBX 23 63 -1 -7
BITMAP
000006
000004
000004
00000C
000008
000008
000018
000010
000010
000030
000020
000020
000060
000040
000040
0000C0
000080
000180
000100
000100
000300
000200
000200
000600
000400
000400
000C00
000800
000800
001800
001000
001000
003000
002000
002000
006000
004000
00C000
008000
008000
018000
010000
010000
030000
020000
020000
060000
040000
040000
0C0000
080000
080000
180000
100000
100000
300000
200000
600000
400000
400000
C00000
800000
800000
ENDCHAR
STARTCHAR 0030
ENCODING 48
SWIDTH 645 0
DWIDTH 43 0
BBX 36 47 4 0
BITMAP
0003F80000
001F1F0000
007001C000
00C0007000
0180001800
0200000C00
0600000600
0C00000200
0800000300
1000000100
3000000080
2000000080
20000000C0
6000000040
4000000040
4000000060
4000000020
C000000020
C000000020
8000000020
8000000020
8000000020
8000000030
8000000030
8000000030
8000000020
8000000020
8000000020
C000000020
C000000020
4000000020
4000000060
4000000040
6000000040
20000000C0
20000000C0
3000000080
1000000180
1800000100
0C00000300
0400000600
0600000C00
0300001800
01C0003000
006000E000
003C038000
0007FE0000
ENDCHAR
STARTCHAR 0031
ENCODING 49
SWIDTH 330 0
DWIDTH 22 0
BBX 13 47 1 0
BITMAP
FFF8
FFF8
0008
0008
0008
0008
0008
0008
0008
0008
0008
0008
0008
0008
0008
0008
0008
0008
0008
0008
0008
0008
0008
0008
0008
0008
0008
0008
0008
0008
0008
0008
0008
0008
0008
0008
0008
0008
0008
0008
0008
0008
0008
0008
0008
0008
0008
ENDCHAR
STARTCHAR 0032
ENCODING 50
SWIDTH 555 0
DWIDTH 37 0
BBX 32 47 2 0
BITMAP
001FE000
01FC7E00
07000380
180000C0
30000060
C0000030
80000010
00000018
00000008
00000008
00000008
0000000C
0000000C
00000008
00000008
00000008
00000008
00000018
00000010
00000030
00000060
00000040
00000080
00000180
00000300
00000600
00000C00
00001800
00003000
00006000
0000C000
00018000
00030000
00060000
000C0000
00180000
00300000
00600000
00C00000
01800000
03000000
06000000
0C000000
18000000
30000000
60000000
7FFFFFFF
ENDCHAR
STARTCHAR 0033
ENCODING 51
SWIDTH 540 0
DWIDTH 36 0
BBX 32 47 1 0
BITMAP
3FFFFFFC
3FFFFFFC
00000018
00000010
00000030
00000060
000000C0
00000080
00000180
00000300
00000600
00000400
00000800
00001800
00003000
00002000
00004000
0000C000
00018000
00030000
00020000
0007F000
0000FF00
000001C0
00000060
00000030
00000008
0000000C
00000004
00000006
00000002
00000002
00000003
00000003
00000003
00000003
00000002
00000002
00000002
00000006
C0000004
6000000C
30000018
1C000030
070000E0
01F00780
003FFC00
ENDCHAR
STARTCHAR 0034
ENCODING 52
SWIDTH 630 0
DWIDTH 42 0
BBX 39 47 3 0
BITMAP
0000003000
0000006000
0000004000
0000008000
0000018000
0000030000
0000060000
00000C0000
0000080000
0000100000
0000300000
0000600000
0000C00000
0001800000
0001000000
0002000000
0006000000
000C000000
0018000000
0030000000
0020001000
0040001000
00C0001000
0180001000
0300001000
0200001000
0400001000
0C00001000
1800001000
3000001000
6000001000
4000001000
FFFFFFFFFE
0000001000
0000001000
0000001000
0000001000
0000001000
0000001000
0000001000
0000001000
0000001000
0000001000
0000001000
0000001000
0000001000
0000001000
ENDCHAR
STARTCHAR 0035
ENCODING 53
SWIDTH 540 0
DWIDTH 36 0
BBX 32 47 2 0
BITMAP
07FFFFF8
07FFFFF8
06000000
04000000
04000000
04000000
04000000
04000000
04000000
0C000000
0C000000
0C000000
08000000
08000000
08000000
08000000
08000000
08000000
18000000
18000000
18000000
1FFFF800
00000F00
000001C0
00000070
00000018
00000008
00000004
00000006
00000006
00000002
00000002
00000002
00000003
00000003
00000002
00000002
00000002
00000006
00000004
C000000C
60000008
30000010
1C000030
070000C0
01E00780
003FFC00
ENDCHAR
STARTCHAR 0036
ENCODING 54
SWIDTH 585 0
DWIDTH 39 0
BBX 33 47 4 0
BITMAP
0000FF8000
000FE7F000
0038001C00
00E0000000
0180000000
0300000000
0600000000
0C00000000
0800000000
1000000000
3000000000
2000000000
2000000000
6000000000
4000000000
4000000000
4000000000
C000000000
C000000000
8000000000
8007FE0000
803E07C000
80E0006000
8180001800
8300000C00
8600000600
8C00000200
8800000300
D000000100
D000000100
F000000180
7000000080
6000000080
6000000080
6000000080
2000000080
3000000180
1000000180
1000000100
0800000300
0C00000200
0600000600
0300000C00
0180001800
00E0007000
003C03C000
0007FE0000
ENDCHAR
STARTCHAR 0037
ENCODING 55
SWIDTH 570 0
DWIDTH 38 0
BBX 33 47 2 0
BITMAP
FFFFFFFF80
FFFFFFFF80
C000000100
C000000300
C000000200
C000000600
C000000400
C000000C00
C000000C00
C000000800
C000001800
0000001000
0000003000
0000002000
0000006000
0000004000
000000C000
0000008000
0000018000
0000018000
0000010000
0000030000
0000020000
0000060000
0000040000
00000C0000
0000080000
0000180000
0000100000
0000300000
0000200000
0000600000
0000600000
0000400000
0000C00000
0000800000
0001800000
0001000000
0003000000
0002000000
0006000000
0004000000
000C000000
000C000000
0008000000
0018000000
0010000000
ENDCHAR
STARTCHAR 0038
ENCODING 56
SWIDTH 615 0
DWIDTH 41 0
BBX 34 47 4 0
BITMAP
000FF80000
007E1F8000
01C000E000
0700003000
0C00001800
1800000400
1000000600
3000000200
2000000300
2000000100
6000000100
6000000100
6000000100
6000000100
2000000100
2000000300
3000000200
1800000600
0C00000C00
0600001800
0380007000
00F003C000
001FFC0000
00F80F8000
0380007000
0E00001800
1800000600
3000000300
6000000100
4000000180
C000000080
80000000C0
80000000C0
8000000040
8000000040
8000000040
80000000C0
80000000C0
C000000080
4000000180
6000000100
3000000300
1800000600
0C00001C00
0700007000
01F003C000
003FFE0000
ENDCHAR
STARTCHAR 0039
ENCODING 57
SWIDTH 585 0
DWIDTH 39 0
BBX 34 47 2 0
BITMAP
000FE00000
00FCFE0000
0380038000
060000C000
0C00006000
1800001000
3000001800
2000000C00
6000000400
4000000600
4000000200
4000000300
C000000300
C000000300
C000000380
4000000380
4000000380
4000000680
6000000480
2000000480
3000000880
1000001880
18000030C0
0C000060C0
030001C0C0
01E00700C0
003FFC0080
0000000080
0000000080
0000000080
0000000080
0000000180
0000000180
0000000100
0000000100
0000000300
0000000200
0000000600
0000000400
0000000800
0000001800
0000003000
0000006000
000001C000
0C00070000
07803C0000
01FFE00000
ENDCHAR
STARTCHAR 003A
ENCODING 58
SWIDTH 180 0
DWIDTH 12 0
BBX 4 35 4 0
BITMAP
60
F0
F0
60
00
00
00
00
00
00
00
00
00
00
00
00
00
00
00
00
00
00
00
00
00
00
00
00
00
00
00
00
70
F0
60
ENDCHAR
STARTCHAR 003B
ENCODING 59
SWIDTH 180 0
DWIDTH 12 0
BBX 4 44 4 -9
BITMAP
60
F0
F0
60
00
00
00
00
00
00
00
00
00
00
00
00
00
00
00
00
00
00
00
00
00
00
00
00
00
00
00
00
60
F0
70
30
20
20
60
60
40
40
40
C0
ENDCHAR
STARTCHAR 003C
ENCODING 60
SWIDTH 555 0
DWIDTH 37 0
BBX 27 23 5 11
BITMAP
00000060
000001C0
00000F00
00003800
0001E000
00070000
001C0000
00F00000
03800000
1E000000
70000000
C0000000
F0000000
1C000000
07000000
01E00000
00380000
000F0000
0001C000
00007800
00001E00
00000380
000000E0
ENDCHAR
STARTCHAR 003D
ENCODING 61
SWIDTH 555 0
DWIDTH 37 0
BBX 27 16 5 15
BITMAP
FFFFFFE0
00000000
00000000
00000000
00000000
00000000
00000000
00000000
00000000
00000000
00000000
00000000
00000000
00000000
FFFFFFE0
FFFFFFE0
ENDCHAR
STARTCHAR 003E
ENCODING 62
SWIDTH 555 0
DWIDTH 37 0
BBX 27 24 5 11
BITMAP
C0000000
78000000
0E000000
03C00000
00F00000
001C0000
00078000
0000E000
00003800
00000700
000001C0
00000060
000000E0
00000780
00001C00
00007000
00038000
000E0000
00780000
01C00000
0F000000
3C000000
E0000000
80000000
ENDCHAR
STARTCHAR 003F
ENCODING 63
SWIDTH 540 0
DWIDTH 36 0
BBX 29 47 2 0
BITMAP
003FE000
03F8FC00
0E000700
380001C0
60000060
C0000020
80000030
00000010
00000018
00000018
00000008
00000008
00000008
00000018
00000018
00000010
00000010
00000020
00000060
000000C0
00000180
00000300
00000600
00000C00
00001800
00003000
00006000
00004000
0000C000
00018000
00018000
00010000
00010000
00010000
00000000
00000000
00000000
00000000
00000000
00000000
00000000
00000000
00000000
00000000
00038000
00038000
00038000
ENDCHAR
STARTCHAR 0040
ENCODING 64
SWIDTH 1020 0
DWIDTH 68 0
BBX 61 60 4 -13
BITMAP
0000007FF0000000
000007F07F000000
00003C0001E00000
0001E000003C0000
0003000000060000
000E000000018000
001800000000C000
0070000000006000
00C0000000001800
0180000000000C00
0100000000000400
0200000000000600
0600000F80000300
0C0000FFF0060180
080003801C060080
18000C00030600C0
1000180001860040
3000300000C60060
2000600000660020
2000C00000360020
6000800000160030
40018000000E0030
40010000000E0010
C0030000000E0010
C002000000060010
C002000000060018
8002000000060018
8006000000060018
8006000000060018
8006000000060008
8006000000060018
8006000000060018
8006000000060018
8002000000060018
C002000000060018
C003000000060010
C0030000000E0010
40010000000E0010
40018000001E0030
6000C00000160030
6000400000260020
2000600000660060
3000300000C20040
10001C00018200C0
1800060006030180
080003C03C018300
0C00007FE000FE00
0600000000000000
0200000000000000
0300000000000000
0180000000000000
00C0000000000000
0060000000000000
0038000000000000
000C000000000000
0007000000000000
0001C00000600000
0000780001C00000
00001FC03F000000
000001FFF0000000
ENDCHAR
STARTCHAR 0041
ENCODING 65
SWIDTH 675 0
DWIDTH 45 0
BBX 44 47 1 0
BITMAP
000006000000
000006000000
00000F000000
000009000000
000019800000
000010800000
000030800000
000020C00000
000060400000
000060600000
000040200000
0000C0300000
000080100000
000180180000
000100080000
0003000C0000
000200040000
000600060000
000400020000
000C00030000
000800030000
001800010000
001800018000
003000008000
00300000C000
002000004000
006000006000
004000002000
00C000003000
008000001000
018000001800
010000000800
03FFFFFFFC00
020000000C00
060000000400
040000000600
0C0000000200
0C0000000300
080000000100
180000000180
100000000080
3000000000C0
200000000040
600000000060
400000000020
C00000000030
800000000030
ENDCHAR
STARTCHAR 0042
ENCODING 66
SWIDTH 735 0
DWIDTH 49 0
BBX 37 47 9 0
BITMAP
FFFFFC0000
FFFFFFC000
8000007000
8000000C00
8000000600
8000000300
8000000180
8000000080
80000000C0
80000000C0
8000000040
8000000040
8000000040
8000000040
80000000C0
80000000C0
8000000080
8000000180
8000000100
8000000200
8000000C00
8000003800
800003E000
FFFFFFE000
8000003C00
8000000700
8000000180
80000000C0
8000000060
8000000020
8000000030
8000000010
8000000010
8000000010
8000000018
8000000018
8000000010
8000000010
8000000010
8000000030
8000000020
8000000060
80000000C0
8000000180
8000000E00
800000F800
FFFFFFC000
ENDCHAR
STARTCHAR 0043
ENCODING 67
SWIDTH 705 0
DWIDTH 47 0
BBX 39 47 4 0
BITMAP
00001FF000
0001FE7F00
00078001E0
001C000038
003000000C
00E0000006
0180000002
0300000000
0600000000
0C00000000
0800000000
1800000000
1000000000
3000000000
2000000000
6000000000
4000000000
4000000000
C000000000
C000000000
8000000000
8000000000
8000000000
8000000000
8000000000
8000000000
8000000000
C000000000
C000000000
4000000000
4000000000
6000000000
2000000000
2000000000
3000000000
1800000000
0800000000
0C00000000
0600000000
0300000000
0180000000
00C0000006
007000000C
0018000018
000F0000E0
0003E00780
00003FFC00
ENDCHAR
STARTCHAR 0044
ENCODING 68
SWIDTH 825 0
DWIDTH 55 0
BBX 42 47 9 0
BITMAP
FFFFF8000000
FFFFFFC00000
800000780000
8000000E0000
800000030000
80000001C000
800000006000
800000003000
800000001800
800000000C00
800000000400
800000000600
800000000300
800000000100
800000000100
800000000180
800000000080
800000000080
8000000000C0
8000000000C0
800000000040
800000000040
800000000040
800000000040
800000000040
800000000040
800000000040
8000000000C0
8000000000C0
800000000080
800000000080
800000000080
800000000180
800000000100
800000000300
800000000200
800000000600
800000000C00
800000001800
800000003000
800000006000
80000000C000
800000038000
800000060000
800000380000
800007E00000
FFFFFE000000
ENDCHAR
STARTCHAR 0045
ENCODING 69
SWIDTH 660 0
DWIDTH 44 0
BBX 31 47 9 0
BITMAP
FFFFFFFC
FFFFFFFC
80000000
80000000
80000000
80000000
80000000
80000000
80000000
80000000
80000000
80000000
80000000
80000000
80000000
80000000
80000000
80000000
80000000
80000000
80000000
80000000
80000000
FFFFFFE0
80000000
80000000
80000000
80000000
80000000
80000000
80000000
80000000
80000000
80000000
80000000
80000000
80000000
80000000
80000000
80000000
80000000
80000000
80000000
80000000
80000000
80000000
FFFFFFFE
ENDCHAR
STARTCHAR 0046
ENCODING 70
SWIDTH 615 0
DWIDTH 41 0
BBX 30 47 9 0
BITMAP
FFFFFFFC
FFFFFFFC
80000000
80000000
80000000
80000000
80000000
80000000
80000000
80000000
80000000
80000000
80000000
80000000
80000000
80000000
80000000
80000000
80000000
80000000
80000000
80000000
80000000
80000000
FFFFFFE0
80000000
80000000
80000000
80000000
80000000
80000000
80000000
80000000
80000000
80000000
80000000
80000000
80000000
80000000
80000000
80000000
80000000
80000000
80000000
80000000
80000000
80000000
ENDCHAR
STARTCHAR 0047
ENCODING 71
SWIDTH 765 0
DWIDTH 51 0
BBX 40 47 4 0
BITMAP
00000FF800
0000FE7F80
00078000E0
001C000038
003000000C
00E0000003
0180000001
0300000000
0600000000
0C00000000
0800000000
1800000000
1000000000
3000000000
2000000000
6000000000
4000000000
4000000000
C000000000
C000000000
8000000000
8000000000
8000000000
8000000000
8000000001
8000000001
8000000001
C000000001
C000000001
4000000001
4000000001
6000000001
2000000001
2000000001
3000000001
1800000001
0800000001
0C00000001
0600000001
0300000001
0180000001
00C0000003
0070000006
0018000018
000F000070
0001E00780
00003FFC00
ENDCHAR
STARTCHAR 0048
ENCODING 72
SWIDTH 810 0
DWIDTH 54 0
BBX 37 47 9 0
BITMAP
8000000018
8000000018
8000000018
8000000018
8000000018
8000000018
8000000018
8000000018
8000000018
8000000018
8000000018
8000000018
8000000018
8000000018
8000000018
8000000018
8000000018
8000000018
8000000018
8000000018
8000000018
8000000018
8000000018
FFFFFFFFF8
8000000018
8000000018
8000000018
8000000018
8000000018
8000000018
8000000018
8000000018
8000000018
8000000018
8000000018
8000000018
8000000018
8000000018
8000000018
8000000018
8000000018
8000000018
8000000018
8000000018
8000000018
8000000018
8000000018
ENDCHAR
STARTCHAR 0049
ENCODING 73
SWIDTH 285 0
DWIDTH 19 0
BBX 1 47 9 0
BITMAP
80
80
80
80
80
80
80
80
80
80
80
80
80
80
80
80
80
80
80
80
80
80
80
80
80
80
80
80
80
80
80
80
80
80
80
80
80
80
80
80
80
80
80
80
80
80
80
ENDCHAR
STARTCHAR 004A
ENCODING 74
SWIDTH 465 0
DWIDTH 31 0
BBX 23 47 0 0
BITMAP
07FFFE
07FFFE
000002
000002
000002
000002
000002
000002
000002
000002
000002
000002
000002
000002
000002
000002
000002
000002
000002
000002
000002
000002
000002
000002
000002
000002
000002
000002
000002
000002
000002
000002
000002
000002
000002
000002
000002
000002
000002
000006
C00004
40000C
200008
180018
0C0030
0781E0
00FF00
ENDCHAR
STARTCHAR 004B
ENCODING 75
SWIDTH 690 0
DWIDTH 46 0
BBX 36 47 9 0
BITMAP
8000000040
8000000080
8000000180
8000000300
8000000600
8000000C00
8000001800
8000003000
8000006000
800000C000
8000018000
8000030000
8000060000
80000C0000
8000180000
8000300000
8000600000
8000C00000
8001800000
8003000000
8006000000
800C000000
801C000000
8032000000
8063000000
80C1800000
8180C00000
8300600000
8600300000
8C00180000
98000C0000
B000040000
E000020000
C000030000
8000018000
800000C000
8000006000
8000003000
8000001800
8000000C00
8000000400
8000000600
8000000300
8000000180
80000000C0
8000000060
8000000030
ENDCHAR
STARTCHAR 004C
ENCODING 76
SWIDTH 570 0
DWIDTH 38 0
BBX 29 47 9 0
BITMAP
80000000
80000000
80000000
80000000
80000000
80000000
80000000
80000000
80000000
80000000
80000000
80000000
80000000
80000000
80000000
80000000
80000000
80000000
80000000
80000000
80000000
80000000
80000000
80000000
80000000
80000000
80000000
80000000
80000000
80000000
80000000
80000000
80000000
80000000
80000000
80000000
80000000
80000000
80000000
80000000
80000000
80000000
80000000
80000000
80000000
80000000
FFFFFFF8
ENDCHAR
STARTCHAR 004D
ENCODING 77
SWIDTH 945 0
DWIDTH 63 0
BBX 46 47 9 0
BITMAP
800000000004
C0000000000C
C0000000001C
E00000000014
A00000000034
B00000000024
980000000064
880000000044
8C00000000C4
840000000184
860000000104
820000000304
830000000204
818000000604
808000000404
80C000000C04
804000001804
806000001004
802000003004
803000002004
801800006004
800800004004
800C0000C004
800400008004
800600010004
800200030004
800300020004
800180060004
800080040004
8000C00C0004
800040080004
800060100004
800020300004
800030200004
800018600004
800008400004
80000CC00004
800004800004
800007000004
800003000004
800000000004
800000000004
800000000004
800000000004
800000000004
800000000004
800000000004
ENDCHAR
STARTCHAR 004E
ENCODING 78
SWIDTH 810 0
DWIDTH 54 0
BBX 37 47 9 0
BITMAP
8000000018
C000000018
E000000018
A000000018
9000000018
9800000018
8C00000018
8600000018
8200000018
8300000018
8180000018
80C0000018
8040000018
8060000018
8030000018
8018000018
800C000018
8004000018
8006000018
8003000018
8001800018
8000800018
8000C00018
8000600018
8000300018
8000100018
8000080018
80000C0018
8000060018
8000030018
8000010018
8000018018
800000C018
8000006018
8000002018
8000003018
8000001818
8000000C18
8000000618
8000000218
8000000318
8000000198
80000000D8
8000000058
8000000078
8000000038
8000000018
ENDCHAR
STARTCHAR 004F
ENCODING 79
SWIDTH 825 0
DWIDTH 55 0
BBX 48 47 4 0
BITMAP
00001FF00000
0001FE7F0000
00070001E000
001C00003800
003000000C00
00C000000600
018000000180
0300000000C0
060000000040
0C0000000020
080000000030
180000000018
100000000008
30000000000C
200000000004
600000000004
400000000006
400000000002
C00000000002
C00000000002
800000000003
800000000003
800000000003
800000000003
800000000003
800000000003
800000000003
C00000000003
C00000000002
400000000002
400000000006
600000000006
200000000004
20000000000C
300000000008
100000000018
080000000010
0C0000000030
060000000060
0300000000C0
018000000180
00C000000300
006000000E00
001800003800
000F0000E000
0003E0078000
00003FFC0000
ENDCHAR
STARTCHAR 0050
ENCODING 80
SWIDTH 705 0
DWIDTH 47 0
BBX 34 47 9 0
BITMAP
FFFFC00000
FFFFFF0000
800001C000
8000003000
8000001800
8000000400
8000000200
8000000300
8000000100
8000000180
8000000080
80000000C0
80000000C0
8000000040
8000000040
8000000040
8000000040
8000000040
80000000C0
80000000C0
8000000080
8000000080
8000000180
8000000100
8000000200
8000000600
8000000C00
8000003000
800000E000
80000F8000
FFFFF80000
8000000000
8000000000
8000000000
8000000000
8000000000
8000000000
8000000000
8000000000
8000000000
8000000000
8000000000
8000000000
8000000000
8000000000
8000000000
8000000000
ENDCHAR
STARTCHAR 0051
ENCODING 81
SWIDTH 825 0
DWIDTH 55 0
BBX 50 55 4 -8
BITMAP
00001FF0000000
0001FE7F000000
00078001E00000
001C0000380000
003000000C0000
00E00000060000
01800000038000
0300000000C000
06000000004000
0C000000006000
08000000003000
18000000001800
10000000000800
30000000000C00
20000000000400
60000000000400
40000000000600
40000000000200
C0000000000200
C0000000000200
80000000000300
80000000000300
80000000000300
80000000000300
80000000000300
80000000000300
80000000000300
C0000000000300
C0000000000200
40000000000200
40000000000600
60000000000600
20000000000400
20000000000C00
30000000000800
18000000001800
08000000001000
0C000000003000
06000000006000
0300000000C000
01800000018000
00C00000030000
007000000E0000
00180000380000
000F0000E00000
0003E007800000
00003FFC000000
00000060000000
00000030000000
00000018000000
0000000C0000C0
00000007000180
00000001C00700
00000000701C00
000000001FF000
ENDCHAR
STARTCHAR 0052
ENCODING 82
SWIDTH 705 0
DWIDTH 47 0
BBX 34 47 9 0
BITMAP
FFFFC00000
FFFFFF0000
800001C000
8000003000
8000001800
8000000400
8000000200
8000000300
8000000100
8000000180
8000000080
80000000C0
80000000C0
8000000040
8000000040
8000000040
8000000040
8000000040
80000000C0
80000000C0
8000000080
8000000080
8000000180
8000000100
8000000200
8000000600
8000000C00
8000003000
800000E000
80000F8000
FFFFFE0000
8000030000
8000010000
8000018000
800000C000
8000004000
8000006000
8000003000
8000001800
8000000800
8000000C00
8000000600
8000000200
8000000300
8000000180
80000000C0
8000000040
ENDCHAR
STARTCHAR 0053
ENCODING 83
SWIDTH 600 0
DWIDTH 40 0
BBX 32 47 4 0
BITMAP
000FF800
007F3F80
01C000E0
07000038
0C00000C
18000000
10000000
30000000
20000000
60000000
60000000
60000000
60000000
60000000
60000000
20000000
30000000
10000000
18000000
0C000000
03000000
01E00000
003C0000
0007C000
00007C00
00000780
000000E0
00000030
0000000C
00000004
00000006
00000003
00000003
00000001
00000001
00000001
00000001
00000001
00000003
00000002
C0000006
60000004
3000000C
1C000038
07000060
01F007C0
003FFE00
ENDCHAR
STARTCHAR 0054
ENCODING 84
SWIDTH 540 0
DWIDTH 36 0
BBX 36 47 0 0
BITMAP
FFFFFFFFF0
FFFFFFFFF0
0000200000
0000200000
0000200000
0000200000
0000200000
0000200000
0000200000
0000200000
0000200000
0000200000
0000200000
0000200000
0000200000
0000200000
0000200000
0000200000
0000200000
0000200000
0000200000
0000200000
0000200000
0000200000
0000200000
0000200000
0000200000
0000200000
0000200000
0000200000
0000200000
0000200000
0000200000
0000200000
0000200000
0000200000
0000200000
0000200000
0000200000
0000200000
0000200000
0000200000
0000200000
0000200000
0000200000
0000200000
0000200000
ENDCHAR
STARTCHAR 0055
ENCODING 85
SWIDTH 780 0
DWIDTH 52 0
BBX 36 47 8 0
BITMAP
C000000010
C000000010
C000000010
C000000010
C000000010
C000000010
C000000010
C000000010
C000000010
C000000010
C000000010
C000000010
C000000010
C000000010
C000000010
C000000010
C000000010
C000000010
C000000010
C000000010
C000000010
C000000010
C000000010
C000000010
C000000010
C000000010
C000000010
C000000010
C000000010
4000000010
4000000010
4000000010
4000000010
4000000010
6000000030
6000000020
2000000020
3000000060
1000000040
18000000C0
0800000180
0400000100
0200000200
0180000C00
00E0003800
003C01E000
0007FF0000
ENDCHAR
STARTCHAR 0056
ENCODING 86
SWIDTH 660 0
DWIDTH 44 0
BBX 43 47 1 0
BITMAP
800000000060
C00000000040
4000000000C0
6000000000C0
200000000080
300000000180
300000000100
100000000300
180000000200
080000000600
0C0000000400
040000000C00
060000000C00
020000000800
030000001800
010000001000
010000003000
018000002000
008000006000
00C000004000
00400000C000
006000008000
002000008000
003000018000
001000010000
001800030000
001800020000
000800060000
000C00040000
0004000C0000
000600080000
000200180000
000300180000
000100100000
000180300000
000080200000
000080600000
0000C0400000
000040C00000
000060800000
000021800000
000031000000
000011000000
00001B000000
00000A000000
00000E000000
00000C000000
ENDCHAR
STARTCHAR 0057
ENCODING 87
SWIDTH 1080 0
DWIDTH 72 0
BBX 66 47 3 0
BITMAP
C0000000C000000040
C0000000C0000000C0
40000000C000000080
60000001E000000080
600000012000000180
200000012000000100
300000031000000300
300000021000000300
100000061800000200
180000040800000600
180000040800000600
0800000C0C00000400
0C0000080400000C00
040000080400000800
040000180600000800
060000100200001800
020000100200001000
020000300300001000
030000200100003000
010000200100002000
010000600180002000
018000400080006000
008000400080004000
008000C000C0004000
00C00080004000C000
004001800060008000
004001800060008000
006001000020018000
002003000030010000
002002000010010000
003002000010030000
001006000018020000
001004000008020000
001804000008060000
00080C00000C040000
000808000004040000
000C080000040C0000
000418000006080000
000610000002080000
000610000002180000
000230000003100000
000320000001100000
000320000001300000
000160000001A00000
0001C0000000E00000
0001C0000000E00000
0000C0000000C00000
ENDCHAR
STARTCHAR 0058
ENCODING 88
SWIDTH 615 0
DWIDTH 41 0
BBX 37 47 2 0
BITMAP
6000000010
3000000030
1000000060
18000000C0
0C00000080
0600000180
0200000300
0300000600
0180000400
00C0000C00
0040001800
0060003000
0030002000
0010006000
000800C000
000C018000
0006010000
0002030000
0001060000
00018C0000
0000C80000
0000580000
0000300000
0000700000
0000580000
00008C0000
0001840000
0003060000
0002030000
0004018000
000C008000
001800C000
0010006000
0020003000
0060001000
00C0001800
0080000C00
0100000600
0300000200
0600000300
0400000180
08000000C0
1800000040
3000000060
2000000030
4000000018
C000000008
ENDCHAR
STARTCHAR 0059
ENCODING 89
SWIDTH 600 0
DWIDTH 40 0
BBX 39 47 1 0
BITMAP
8000000006
C000000004
600000000C
2000000018
3000000010
1000000030
1800000020
0C00000060
04000000C0
0600000080
0200000180
0100000100
0180000300
0080000600
00C0000400
0060000C00
0020001800
0030001000
0010003000
0018002000
000C006000
000400C000
0006008000
0003018000
0001010000
0001820000
0000860000
0000C40000
00006C0000
0000380000
0000300000
0000100000
0000100000
0000100000
0000100000
0000100000
0000100000
0000100000
0000100000
0000100000
0000100000
0000100000
0000100000
0000100000
0000100000
0000100000
0000100000
ENDCHAR
STARTCHAR 005A
ENCODING 90
SWIDTH 630 0
DWIDTH 42 0
BBX 37 47 3 0
BITMAP
7FFFFFFFF0
7FFFFFFFF0
0000000020
0000000060
00000000C0
0000000180
0000000100
0000000300
0000000600
0000000C00
0000000800
0000001800
0000003000
0000006000
0000004000
0000008000
0000018000
0000030000
0000060000
0000040000
00000C0000
0000180000
0000300000
0000200000
0000600000
0000C00000
0001800000
0001000000
0002000000
0006000000
000C000000
0018000000
0010000000
0030000000
0060000000
00C0000000
0080000000
0180000000
0300000000
0600000000
0400000000
0800000000
1800000000
3000000000
6000000000
4000000000
FFFFFFFFF8
ENDCHAR
STARTCHAR 005B
ENCODING 91
SWIDTH 285 0
DWIDTH 19 0
BBX 9 62 9 -13
BITMAP
FF80
8000
8000
8000
8000
8000
8000
8000
8000
8000
8000
8000
8000
8000
8000
8000
8000
8000
8000
8000
8000
8000
8000
8000
8000
8000
8000
8000
8000
8000
8000
8000
8000
8000
8000
8000
8000
8000
8000
8000
8000
8000
8000
8000
8000
8000
8000
8000
8000
8000
8000
8000
8000
8000
8000
8000
8000
8000
8000
8000
8000
FF80
ENDCHAR
STARTCHAR 005C
ENCODING 92
SWIDTH 300 0
DWIDTH 20 0
BBX 23 63 -2 -7
BITMAP
C00000
400000
400000
600000
200000
200000
300000
100000
100000
180000
080000
080000
0C0000
040000
040000
060000
020000
030000
010000
010000
018000
008000
008000
00C000
004000
004000
006000
002000
002000
003000
001000
001000
001800
000800
000800
000C00
000400
000600
000200
000200
000300
000100
000100
000180
000080
000080
0000C0
000040
000040
000060
000020
000020
000030
000010
000010
000018
000008
00000C
000004
000004
000006
000002
000002
ENDCHAR
STARTCHAR 005D
ENCODING 93
SWIDTH 285 0
DWIDTH 19 0
BBX 8 62 2 -13
BITMAP
FF
01
01
01
01
01
01
01
01
01
01
01
01
01
01
01
01
01
01
01
01
01
01
01
01
01
01
01
01
01
01
01
01
01
01
01
01
01
01
01
01
01
01
01
01
01
01
01
01
01
01
01
01
01
01
01
01
01
01
01
01
FF
ENDCHAR
STARTCHAR 005E
ENCODING 94
SWIDTH 555 0
DWIDTH 37 0
BBX 24 27 7 10
BITMAP
001800
003800
002C00
002400
006400
004600
00C200
008300
018100
010100
010180
030080
0200C0
060040
040060
040020
0C0020
080030
180010
100018
300008
200008
20000C
600004
400006
C00002
800003
ENDCHAR
STARTCHAR 005F
ENCODING 95
SWIDTH 495 0
DWIDTH 33 0
BBX 33 1 0 -1
BITMAP
FFFFFFFF80
ENDCHAR
STARTCHAR 0060
ENCODING 96
SWIDTH 600 0
DWIDTH 40 0
BBX 12 8 11 40
BITMAP
E000
3000
1C00
0E00
0300
0180
0060
0030
ENDCHAR
STARTCHAR 0061
ENCODING 97
SWIDTH 570 0
DWIDTH 38 0
BBX 27 35 4 0
BITMAP
00078000
00FFF800
03800E00
0C000300
38000180
60000080
000000C0
00000040
00000060
00000060
00000020
00000020
00000020
00000020
00000020
00000020
003FFFE0
07FFFFE0
0C000020
10000020
20000020
60000020
40000020
40000020
C0000020
C0000060
C0000060
C00000E0
400000A0
600001A0
20000320
30000620
1C001C20
0780F020
01FFC020
ENDCHAR
STARTCHAR 0062
ENCODING 98
SWIDTH 660 0
DWIDTH 44 0
BBX 33 49 8 0
BITMAP
8000000000
8000000000
8000000000
8000000000
8000000000
8000000000
8000000000
8000000000
8000000000
8000000000
8000000000
8000000000
8000000000
8000000000
8003E00000
803FFE0000
80E0038000
818000C000
8600003000
8C00001800
9800000800
9000000400
A000000600
A000000200
C000000300
C000000100
C000000100
8000000180
8000000080
8000000080
8000000080
8000000080
8000000080
8000000080
8000000080
8000000180
C000000180
C000000100
C000000100
E000000300
A000000200
B000000400
9800000C00
8800001800
8600003000
8300006000
81C001C000
80780F0000
801FFC0000
ENDCHAR
STARTCHAR 0063
ENCODING 99
SWIDTH 540 0
DWIDTH 36 0
BBX 29 35 4 0
BITMAP
0003C000
003FFE00
00E00380
038000E0
06000030
0C000018
18000000
30000000
20000000
60000000
40000000
40000000
C0000000
80000000
80000000
80000000
80000000
80000000
80000000
80000000
80000000
80000000
C0000000
C0000000
40000000
60000000
20000000
30000000
18000000
08000018
06000030
03000060
01C001C0
00780F00
001FF800
ENDCHAR
STARTCHAR 0064
ENCODING 100
SWIDTH 660 0
DWIDTH 44 0
BBX 33 49 4 0
BITMAP
0000000080
0000000080
0000000080
0000000080
0000000080
0000000080
0000000080
0000000080
0000000080
0000000080
0000000080
0000000080
0000000080
0000000080
0003E00080
003FFE0080
00E0038080
038000C080
0600002080
0C00001080
1800000880
1000000480
2000000680
6000000280
4000000380
4000000180
C000000180
8000000180
8000000180
8000000080
8000000080
8000000080
8000000080
8000000080
8000000080
8000000180
C000000180
C000000180
4000000380
6000000280
2000000280
3000000480
1800000C80
0800001880
0600003080
0300006080
01C001C080
00780F0080
001FF80080
ENDCHAR
STARTCHAR 0065
ENCODING 101
SWIDTH 585 0
DWIDTH 39 0
BBX 32 35 4 0
BITMAP
0007C000
007FFC00
01C00700
03000180
060000C0
0C000060
18000030
30000018
20000008
6000000C
40000004
C0000006
C0000002
80000002
80000002
80000002
FFFFFFFF
FFFFFFFF
80000000
80000000
80000000
80000000
80000000
C0000000
40000000
60000000
20000000
30000000
18000000
08000008
06000018
03000070
01C000C0
00780700
000FFC00
ENDCHAR
STARTCHAR 0066
ENCODING 102
SWIDTH 300 0
DWIDTH 20 0
BBX 21 50 2 0
BITMAP
000780
003FF0
006018
008008
018000
010000
030000
030000
030000
030000
030000
030000
030000
030000
030000
030000
FFFFE0
030000
030000
030000
030000
030000
030000
030000
030000
030000
030000
030000
030000
030000
030000
030000
030000
030000
030000
030000
030000
030000
030000
030000
030000
030000
030000
030000
030000
030000
030000
030000
030000
030000
ENDCHAR
STARTCHAR 0067
ENCODING 103
SWIDTH 675 0
DWIDTH 45 0
BBX 33 48 4 -13
BITMAP
0003E00000
003FFE0080
00E0038080
038000E080
0600003080
0C00001880
1800000C80
3000000680
2000000280
6000000380
4000000180
C000000180
C000000080
8000000080
8000000080
8000000080
8000000080
8000000080
8000000080
8000000080
8000000080
8000000080
C000000180
4000000180
6000000380
2000000280
3000000680
1800000C80
0C00001880
0600003080
0300006080
00C0018080
003E7F0080
0007F00080
0000000080
0000000080
0000000080
0000000080
0000000180
0000000100
0000000100
0000000200
3000000600
1C00000C00
0600001800
03C0007000
00F803C000
000FFE0000
ENDCHAR
STARTCHAR 0068
ENCODING 104
SWIDTH 660 0
DWIDTH 44 0
BBX 29 49 8 0
BITMAP
80000000
80000000
80000000
80000000
80000000
80000000
80000000
80000000
80000000
80000000
80000000
80000000
80000000
80000000
80078000
807FFC00
81C00700
87000180
8C0000C0
98000060
90000020
A0000030
E0000010
C0000018
C0000018
C0000008
80000008
80000008
80000008
80000008
80000008
80000008
80000008
80000008
80000008
80000008
80000008
80000008
80000008
80000008
80000008
80000008
80000008
80000008
80000008
80000008
80000008
80000008
80000008
ENDCHAR
STARTCHAR 0069
ENCODING 105
SWIDTH 240 0
DWIDTH 16 0
BBX 3 47 7 0
BITMAP
E0
E0
E0
00
00
00
00
00
00
00
00
00
00
40
40
40
40
40
40
40
40
40
40
40
40
40
40
40
40
40
40
40
40
40
40
40
40
40
40
40
40
40
40
40
40
40
40
ENDCHAR
STARTCHAR 006A
ENCODING 106
SWIDTH 255 0
DWIDTH 17 0
BBX 16 60 -6 -13
BITMAP
0007
0007
0007
0000
0000
0000
0000
0000
0000
0000
0000
0000
0000
0002
0002
0002
0002
0002
0002
0002
0002
0002
0002
0002
0002
0002
0002
0002
0002
0002
0002
0002
0002
0002
0002
0002
0002
0002
0002
0002
0002
0002
0002
0002
0002
0002
0002
0002
0002
0002
0002
0002
0002
0002
0002
0006
0004
C008
7070
1FE0
ENDCHAR
STARTCHAR 006B
ENCODING 107
SWIDTH 570 0
DWIDTH 38 0
BBX 28 49 8 0
BITMAP
80000000
80000000
80000000
80000000
80000000
80000000
80000000
80000000
80000000
80000000
80000000
80000000
80000000
80000000
80000000
800000E0
80000180
80000300
80000600
80000C00
80001800
80003000
80006000
80018000
80030000
80060000
800C0000
80180000
80300000
80680000
80CC0000
81860000
82030000
8C010000
98008000
B000C000
E0006000
C0003000
80001000
80001800
80000C00
80000600
80000300
80000100
80000180
800000C0
80000060
80000030
80000010
ENDCHAR
STARTCHAR 006C
ENCODING 108
SWIDTH 240 0
DWIDTH 16 0
BBX 1 49 8 0
BITMAP
80
80
80
80
80
80
80
80
80
80
80
80
80
80
80
80
80
80
80
80
80
80
80
80
80
80
80
80
80
80
80
80
80
80
80
80
80
80
80
80
80
80
80
80
80
80
80
80
80
ENDCHAR
STARTCHAR 006D
ENCODING 109
SWIDTH 1065 0
DWIDTH 71 0
BBX 56 35 8 0
BITMAP
000FC00000F000
807FF8000FFF80
81C00E003800E0
86000300600030
8C000180800018
980000C100000C
90000062000004
A0000026000006
E0000034000002
C000003C000002
C0000018000003
C0000018000003
80000018000003
80000018000001
80000018000001
80000010000001
80000010000001
80000010000001
80000010000001
80000010000001
80000010000001
80000010000001
80000010000001
80000010000001
80000010000001
80000010000001
80000010000001
80000010000001
80000010000001
80000010000001
80000010000001
80000010000001
80000010000001
80000010000001
80000010000001
ENDCHAR
STARTCHAR 006E
ENCODING 110
SWIDTH 660 0
DWIDTH 44 0
BBX 29 35 8 0
BITMAP
00078000
807FFC00
81C00700
87000180
8C0000C0
98000060
90000020
A0000030
E0000010
C0000018
C0000018
C0000008
80000008
80000008
80000008
80000008
80000008
80000008
80000008
80000008
80000008
80000008
80000008
80000008
80000008
80000008
80000008
80000008
80000008
80000008
80000008
80000008
80000008
80000008
80000008
ENDCHAR
STARTCHAR 006F
ENCODING 111
SWIDTH 600 0
DWIDTH 40 0
BBX 33 35 4 0
BITMAP
0003E00000
003FFE0000
00E0038000
038000C000
0600003000
0C00001800
1800000800
1000000400
2000000600
6000000200
4000000300
4000000100
C000000100
8000000180
8000000180
8000000080
8000000080
8000000080
8000000080
8000000080
8000000080
8000000180
C000000180
C000000100
4000000300
6000000300
2000000200
3000000400
1800000C00
0800001800
0600003000
0300006000
01C001C000
00780F0000
001FF80000
ENDCHAR
STARTCHAR 0070
ENCODING 112
SWIDTH 660 0
DWIDTH 44 0
BBX 33 48 8 -13
BITMAP
0003E00000
803FFE0000
80E0038000
818000C000
8600003000
8C00001800
9800000800
9000000400
B000000600
A000000200
C000000300
C000000100
C000000100
8000000180
8000000080
8000000080
8000000080
8000000080
8000000080
8000000080
8000000080
8000000180
C000000180
C000000100
C000000100
E000000300
A000000200
B000000600
9800000C00
8800001800
8600003000
8300006000
81C001C000
80780F0000
801FFC0000
8000000000
8000000000
8000000000
8000000000
8000000000
8000000000
8000000000
8000000000
8000000000
8000000000
8000000000
8000000000
8000000000
ENDCHAR
STARTCHAR 0071
ENCODING 113
SWIDTH 660 0
DWIDTH 44 0
BBX 33 48 4 -13
BITMAP
0003E00000
003FFE0080
00E0038080
038000C080
0600006080
0C00001080
1800000880
1000000C80
2000000680
6000000280
4000000380
4000000180
C000000180
8000000180
8000000180
8000000080
8000000080
8000000080
8000000080
8000000080
8000000080
8000000180
8000000180
C000000180
4000000180
6000000280
2000000280
3000000480
1800000C80
0800001880
0400003080
0300006080
01C001C080
00780F0080
001FF80080
0000000080
0000000080
0000000080
0000000080
0000000080
0000000080
0000000080
0000000080
0000000080
0000000080
0000000080
0000000080
0000000080
ENDCHAR
STARTCHAR 0072
ENCODING 114
SWIDTH 375 0
DWIDTH 25 0
BBX 15 35 8 0
BITMAP
000E
80FE
8380
8600
8C00
9800
B000
A000
E000
C000
C000
C000
8000
8000
8000
8000
8000
8000
8000
8000
8000
8000
8000
8000
8000
8000
8000
8000
8000
8000
8000
8000
8000
8000
8000
ENDCHAR
STARTCHAR 0073
ENCODING 115
SWIDTH 450 0
DWIDTH 30 0
BBX 26 35 2 0
BITMAP
000F0000
01FFF800
07000E00
0C000380
18000080
30000000
20000000
20000000
60000000
60000000
20000000
20000000
30000000
10000000
1C000000
0E000000
03E00000
007F0000
0007F000
00003C00
00000700
00000180
000000C0
00000040
00000040
00000040
00000040
00000040
00000040
000000C0
C0000080
70000180
1C000600
07803C00
00FFF000
ENDCHAR
STARTCHAR 0074
ENCODING 116
SWIDTH 375 0
DWIDTH 25 0
BBX 21 42 2 0
BITMAP
030000
030000
030000
030000
030000
030000
030000
030000
FFFFE0
030000
030000
030000
030000
030000
030000
030000
030000
030000
030000
030000
030000
030000
030000
030000
030000
030000
030000
030000
030000
030000
030000
030000
030000
030000
030000
030000
010000
010000
018000
00C018
007070
001FE0
ENDCHAR
STARTCHAR 0075
ENCODING 117
SWIDTH 660 0
DWIDTH 44 0
BBX 30 34 7 0
BITMAP
C000000C
C000000C
C000000C
C000000C
C000000C
C000000C
C000000C
C000000C
C000000C
C000000C
C000000C
C000000C
C000000C
C000000C
C000000C
C000000C
C000000C
C000000C
C000000C
C000000C
C000000C
C000000C
C000000C
4000000C
4000001C
4000001C
6000003C
2000002C
3000004C
180000CC
0C00018C
0700060C
01C03C0C
007FE00C
ENDCHAR
STARTCHAR 0076
ENCODING 118
SWIDTH 495 0
DWIDTH 33 0
BBX 32 34 1 0
BITMAP
80000003
C0000003
40000002
60000006
20000004
3000000C
10000008
18000018
08000010
08000030
0C000020
04000060
06000060
02000040
030000C0
01000080
01800180
00800100
00C00300
00400200
00400600
00200400
00200C00
00300800
00100800
00181800
00081000
000C3000
00042000
00066000
00024000
0002C000
00018000
00018000
ENDCHAR
STARTCHAR 0077
ENCODING 119
SWIDTH 825 0
DWIDTH 55 0
BBX 54 34 1 0
BITMAP
C000003000000C
40000070000008
40000058000008
60000048000018
200000C8000010
2000008C000030
30000084000020
10000186000020
18000102000060
08000302000040
080002030000C0
0C000201000080
04000601800080
04000400800180
02000C00800100
02000800C00100
03000800400300
01001800400200
01001000200600
01801000200400
00802000300400
00802000100C00
00406000100800
00404000080800
00604000081000
0020C0000C1000
00208000043000
00118000042000
00110000062000
00190000026000
000B0000024000
000A0000014000
000E0000018000
00040000018000
ENDCHAR
STARTCHAR 0078
ENCODING 120
SWIDTH 495 0
DWIDTH 33 0
BBX 29 34 2 0
BITMAP
60000030
30000060
180000C0
08000080
04000100
06000300
03000600
01800400
00800800
00401800
00603000
00306000
00104000
00088000
000D8000
00070000
00070000
00050000
000C8000
0018C000
00306000
00203000
00401000
00C01800
01800C00
03000600
02000200
06000100
0C000180
180000C0
10000060
20000020
60000030
C0000018
ENDCHAR
STARTCHAR 0079
ENCODING 121
SWIDTH 495 0
DWIDTH 33 0
BBX 35 47 -2 -13
BITMAP
1000000060
1800000060
0800000040
0C000000C0
0400000080
0600000180
0200000100
0300000300
0100000200
0100000600
0180000400
0080000C00
00C0000C00
0040000800
0060001800
0020001000
0030003000
0010002000
0018006000
0008004000
000800C000
0004008000
0004018000
0006018000
0002010000
0003030000
0001020000
0001860000
0000840000
0000CC0000
0000480000
0000580000
0000300000
0000300000
0000200000
0000600000
0000600000
0000400000
0000C00000
0000800000
0001800000
0001000000
0003000000
8006000000
E00C000000
3838000000
1FE0000000
ENDCHAR
STARTCHAR 007A
ENCODING 122
SWIDTH 480 0
DWIDTH 32 0
BBX 27 34 3 0
BITMAP
FFFFFFC0
00000080
00000180
00000300
00000200
00000400
00000C00
00001800
00001000
00002000
00006000
0000C000
00008000
00010000
00030000
00060000
000C0000
00080000
00180000
00300000
00600000
00400000
00C00000
01800000
03000000
02000000
06000000
0C000000
18000000
10000000
30000000
60000000
C0000000
FFFFFFE0
ENDCHAR
STARTCHAR 007B
ENCODING 123
SWIDTH 300 0
DWIDTH 20 0
BBX 14 62 4 -13
BITMAP
00FC
0180
0300
0200
0200
0200
0200
0200
0200
0200
0200
0200
0200
0200
0200
0200
0200
0200
0200
0200
0200
0200
0200
0200
0200
0200
0200
0200
0600
0400
F800
0C00
0600
0200
0200
0200
0200
0200
0200
0200
0200
0200
0200
0200
0200
0200
0200
0200
0200
0200
0200
0200
0200
0200
0200
0200
0200
0200
0300
0180
00E0
007C
ENDCHAR
STARTCHAR 007C
ENCODING 124
SWIDTH 285 0
DWIDTH 19 0
BBX 1 62 9 -13
BITMAP
80
80
80
80
80
80
80
80
80
80
80
80
80
80
80
80
80
80
80
80
80
80
80
80
80
80
80
80
80
80
80
80
80
80
80
80
80
80
80
80
80
80
80
80
80
80
80
80
80
80
80
80
80
80
80
80
80
80
80
80
80
80
ENDCHAR
STARTCHAR 007D
ENCODING 125
SWIDTH 300 0
DWIDTH 20 0
BBX 14 62 2 -13
BITMAP
FC00
0600
0300
0100
0100
0100
0100
0100
0100
0100
0100
0100
0100
0100
0100
0100
0100
0100
0100
0100
0100
0100
0100
0100
0100
0100
0100
0100
0180
0080
007C
00C0
0180
0180
0100
0100
0100
0100
0100
0100
0100
0100
0100
0100
0100
0100
0100
0100
0100
0100
0100
0100
0100
0100
0100
0100
0100
0100
0300
0600
1C00
F000
ENDCHAR
STARTCHAR 007E
ENCODING 126
SWIDTH 555 0
DWIDTH 37 0
BBX 28 9 5 19
BITMAP
03000000
1FE00030
30300030
60180020
40040020
80020040
800180C0
8000E380
80003E00
ENDCHAR
STARTCHAR 00A0
ENCODING 160
SWIDTH 240 0
DWIDTH 16 0
BBX 0 0 0 0
BITMAP
ENDCHAR
STARTCHAR 00A1
ENCODING 161
SWIDTH 240 0
DWIDTH 16 0
BBX 4 45 6 -10
BITMAP
60
F0
F0
60
00
00
00
00
00
00
00
00
00
20
20
20
20
20
20
20
20
20
60
60
60
60
60
60
60
60
60
60
60
60
60
60
60
60
60
60
60
60
60
60
60
ENDCHAR
STARTCHAR 00A2
ENCODING 162
SWIDTH 540 0
DWIDTH 36 0
BBX 29 50 4 -8
BITMAP
00008000
00008000
00008000
00008000
00008000
00008000
00008000
0003C000
003FFE00
00E08380
038080E0
06008030
0C008018
18008000
30008000
20008000
60008000
40008000
40008000
C0008000
80008000
80008000
80008000
80008000
80008000
80008000
80008000
80008000
80008000
C0008000
C0008000
40008000
60008000
20008000
30008000
18008000
08008018
06008030
03008060
01C081C0
00788F00
001FF800
00008000
00008000
00008000
00008000
00008000
00008000
00008000
00008000
ENDCHAR
STARTCHAR 00A3
ENCODING 163
SWIDTH 615 0
DWIDTH 41 0
BBX 38 47 2 0
BITMAP
00000FF800
0000FE3F80
00038000E0
0006000038
000C00000C
0018000000
0030000000
0020000000
0060000000
0040000000
00C0000000
00C0000000
0080000000
0080000000
0080000000
0080000000
0080000000
0080000000
0080000000
0080000000
0080000000
0080000000
0080000000
FFFFFFF800
0080000000
0080000000
0080000000
0080000000
0080000000
0080000000
0080000000
0080000000
0080000000
0080000000
0080000000
0080000000
0080000000
0080000000
0080000000
0080000000
0080000000
0080000000
0080000000
0080000000
0080000000
0080000000
FFFFFFFFF8
ENDCHAR
STARTCHAR 00A4
ENCODING 164
SWIDTH 690 0
DWIDTH 46 0
BBX 41 42 3 0
BITMAP
800000000080
C00000000180
600000000300
3001FFC00600
180F80F00C00
0C18001C1800
066000073000
03C00001E000
01800000C000
030000006000
060000003000
0C0000001000
080000000800
180000000C00
100000000400
300000000400
300000000600
200000000200
200000000200
200000000200
200000000200
200000000200
200000000200
200000000200
200000000600
300000000600
100000000400
100000000C00
180000000800
080000001800
040000001000
060000003000
030000006000
01800000C000
03C00003E000
067000063000
0C1C001C1800
1807E3F00C00
3000FF000600
600000000300
C00000000180
800000000000
ENDCHAR
STARTCHAR 00A5
ENCODING 165
SWIDTH 660 0
DWIDTH 44 0
BBX 43 47 1 0
BITMAP
800000000060
400000000040
600000000080
300000000180
100000000300
080000000600
0C0000000400
060000000800
030000001800
010000003000
008000006000
00C000004000
00600000C000
003000018000
001000030000
001800020000
000C00040000
0006000C0000
000200180000
000100300000
000180200000
0000C0600000
000060C00000
000021800000
000031000000
00001A000000
07FFFFFFFC00
000004000000
000004000000
000004000000
000004000000
000004000000
000004000000
000004000000
000004000000
07FFFFFFFC00
07FFFFFFFC00
000004000000
000004000000
000004000000
000004000000
000004000000
000004000000
000004000000
000004000000
000004000000
000004000000
ENDCHAR
STARTCHAR 00A6
ENCODING 166
SWIDTH 285 0
DWIDTH 19 0
BBX 1 62 9 -13
BITMAP
80
80
80
80
80
80
80
80
80
80
80
80
80
80
80
80
80
80
80
80
80
80
80
00
00
00
00
00
00
00
00
00
00
00
00
00
00
00
00
80
80
80
80
80
80
80
80
80
80
80
80
80
80
80
80
80
80
80
80
80
80
80
ENDCHAR
STARTCHAR 00A7
ENCODING 167
SWIDTH 465 0
DWIDTH 31 0
BBX 27 54 2 -7
BITMAP
001FF000
00F87E00
03800380
060000E0
0C000000
08000000
18000000
10000000
10000000
10000000
10000000
10000000
18000000
08000000
0C000000
06000000
03800000
01F00000
071F0000
0C01F000
10001C00
30000700
20000180
60000080
40000040
40000040
40000060
40000060
60000060
20000060
30000040
18000040
0E0000C0
03800180
00F80300
001F0E00
0001F800
00003800
00000E00
00000200
00000100
00000180
00000080
00000080
00000080
00000080
00000080
00000180
00000100
E0000300
30000600
1E001C00
07F1F000
007F8000
ENDCHAR
STARTCHAR 00A8
ENCODING 168
SWIDTH 600 0
DWIDTH 40 0
BBX 14 3 13 43
BITMAP
E01C
E01C
E01C
ENDCHAR
STARTCHAR 00A9
ENCODING 169
SWIDTH 810 0
DWIDTH 54 0
BBX 47 47 4 0
BITMAP
00000FF00000
0001FC7F0000
00070001C000
001C00007000
003000001C00
00C000000600
018000000300
030000000180
0600000000C0
040000000060
08001FF80020
1800700E0030
1001C0030010
300300018018
20060000C008
60040000000C
400800000004
401800000004
C01000000006
C01000000006
C01000000002
803000000002
803000000002
803000000002
803000000002
803000000002
803000000002
801000000006
C01000000006
401800000004
400800000004
600C0000000C
200600000008
20030000C018
300180018010
1000E0070030
08003FFC0020
0C0003C00060
0600000000C0
030000000180
018000000300
00C000000600
006000001C00
001800003000
000E0001E000
0003E00F0000
00007FF80000
ENDCHAR
STARTCHAR 00AA
ENCODING 170
SWIDTH 390 0
DWIDTH 26 0
BBX 18 21 3 29
BITMAP
00C000
0FFE00
380300
600180
000080
0000C0
0000C0
0000C0
0000C0
0000C0
0FFFC0
3000C0
6000C0
4000C0
C000C0
C000C0
C000C0
400140
600240
380C40
0FF040
ENDCHAR
STARTCHAR 00AB
ENCODING 171
SWIDTH 420 0
DWIDTH 28 0
BBX 21 25 4 5
BITMAP
002008
004010
00C030
018060
0300C0
020080
040100
0C0300
180600
300C00
200800
401000
C03000
C03000
601800
300C00
100400
080200
0C0300
060180
0300C0
010040
008020
00C030
006018
ENDCHAR
STARTCHAR 00AC
ENCODING 172
SWIDTH 555 0
DWIDTH 37 0
BBX 27 13 5 11
BITMAP
FFFFFFE0
00000020
00000020
00000020
00000020
00000020
00000020
00000020
00000020
00000020
00000020
00000020
00000020
ENDCHAR
STARTCHAR 00AD
ENCODING 173
SWIDTH 375 0
DWIDTH 25 0
BBX 17 1 4 17
BITMAP
FFFF80
ENDCHAR
STARTCHAR 00AE
ENCODING 174
SWIDTH 810 0
DWIDTH 54 0
BBX 47 47 4 0
BITMAP
00000FF00000
0001FC7F0000
00070001C000
001C00007000
003000001C00
00C000000600
018000000300
030000000180
0600000000C0
040000000060
0801FFF80020
1801000E0030
100100018010
30010000C018
200100004008
60010000600C
400100006004
400100002004
C00100002006
C00100002006
C00100002002
800100006002
800100004002
80010000C002
800100018002
800100070002
8001FFFC0002
8001FF980006
C00100080006
4001000C0004
400100060004
60010002000C
200100030008
200100010018
300100018010
10010000C030
080100004020
0C0100006060
0600000000C0
030000000180
018000000300
00C000000600
006000001C00
001800003000
000E0001E000
0003E00F0000
00007FF80000
ENDCHAR
STARTCHAR 00AF
ENCODING 175
SWIDTH 600 0
DWIDTH 40 0
BBX 18 2 11 43
BITMAP
FFFFC0
FFFFC0
ENDCHAR
STARTCHAR 00B0
ENCODING 176
SWIDTH 420 0
DWIDTH 28 0
BBX 20 20 4 27
BITMAP
01F800
079E00
1C0380
3000C0
200040
600060
400020
C00030
800010
800010
800010
800010
C00030
400020
400020
600040
3000C0
180180
0E0700
03F800
ENDCHAR
STARTCHAR 00B1
ENCODING 177
SWIDTH 555 0
DWIDTH 37 0
BBX 27 37 5 0
BITMAP
00040000
00040000
00040000
00040000
00040000
00040000
00040000
00040000
00040000
00040000
00040000
00040000
00040000
FFFFFFE0
00040000
00040000
00040000
00040000
00040000
00040000
00040000
00040000
00040000
00040000
00040000
00040000
00040000
00000000
00000000
00000000
00000000
00000000
00000000
00000000
00000000
00000000
FFFFFFE0
ENDCHAR
STARTCHAR 00B2
ENCODING 178
SWIDTH 420 0
DWIDTH 28 0
BBX 22 28 3 22
BITMAP
00F000
1FFF00
7001C0
C00060
800020
000030
000010
000010
000010
000030
000020
000060
000040
000080
000100
000200
000C00
001800
003000
006000
00C000
018000
030000
040000
080000
300000
600000
FFFFFC
ENDCHAR
STARTCHAR 00B3
ENCODING 179
SWIDTH 420 0
DWIDTH 28 0
BBX 21 27 3 22
BITMAP
FFFFF0
000020
000040
000080
000100
000300
000600
000C00
001800
003000
002000
004000
00FF00
0001C0
000060
000030
000010
000018
000008
000008
000008
000018
000010
800030
600060
3C01C0
07FF00
ENDCHAR
STARTCHAR 00B4
ENCODING 180
SWIDTH 600 0
DWIDTH 40 0
BBX 12 8 17 40
BITMAP
0070
00C0
0380
0700
0C00
1800
6000
C000
ENDCHAR
STARTCHAR 00B5
ENCODING 181
SWIDTH 660 0
DWIDTH 44 0
BBX 29 47 8 -13
BITMAP
80000008
80000008
80000008
80000008
80000008
80000008
80000008
80000008
80000008
80000008
80000008
80000008
80000008
80000008
80000008
80000008
80000008
80000008
80000008
80000008
80000008
80000018
80000018
80000018
C0000018
C0000028
C0000028
E0000048
A00000C8
90000188
98000308
86000E08
83C03808
807FE008
80000000
80000000
80000000
80000000
80000000
80000000
80000000
80000000
80000000
80000000
80000000
80000000
80000000
ENDCHAR
STARTCHAR 00B6
ENCODING 182
SWIDTH 600 0
DWIDTH 40 0
BBX 29 56 2 -7
BITMAP
01FFFFF8
07FC0008
1FFC0008
3FFC0008
7FFC0008
7FFC0008
FFFC0008
FFFC0008
FFFC0008
FFFC0008
FFFC0008
FFFC0008
FFFC0008
FFFC0008
FFFC0008
7FFC0008
3FFC0008
1FFC0008
0FFC0008
07FC0008
00FC0008
00040008
00040008
00040008
00040008
00040008
00040008
00040008
00040008
00040008
00040008
00040008
00040008
00040008
00040008
00040008
00040008
00040008
00040008
00040008
00040008
00040008
00040008
00040008
00040008
00040008
00040008
00040008
00040008
00040008
00040008
00040008
00040008
00040008
00040008
00040008
ENDCHAR
STARTCHAR 00B7
ENCODING 183
SWIDTH 210 0
DWIDTH 14 0
BBX 3 3 6 16
BITMAP
E0
E0
E0
ENDCHAR
STARTCHAR 00B8
ENCODING 184
SWIDTH 600 0
DWIDTH 40 0
BBX 11 14 14 -14
BITMAP
0400
0400
0400
0C00
0F00
00C0
0040
0060
0020
0020
0060
0040
E1C0
3F00
ENDCHAR
STARTCHAR 00B9
ENCODING 185
SWIDTH 420 0
DWIDTH 28 0
BBX 18 27 6 22
BITMAP
FFC000
004000
004000
004000
004000
004000
004000
004000
004000
004000
004000
004000
004000
004000
004000
004000
004000
004000
004000
004000
004000
004000
004000
004000
004000
004000
FFFFC0
ENDCHAR
STARTCHAR 00BA
ENCODING 186
SWIDTH 405 0
DWIDTH 27 0
BBX 21 21 3 29
BITMAP
003000
07FF00
0C0180
100060
200020
600010
C00018
800008
800008
800008
800008
800008
800008
800008
C00018
400010
600030
300060
1800C0
0E0380
03FE00
ENDCHAR
STARTCHAR 00BB
ENCODING 187
SWIDTH 420 0
DWIDTH 28 0
BBX 21 25 3 5
BITMAP
C03000
401000
200800
300C00
180600
0C0300
040100
020080
0300C0
018060
00C030
004010
002008
006018
00C030
008020
010040
0300C0
060180
0C0300
080200
100400
300C00
601800
C03000
ENDCHAR
STARTCHAR 00BC
ENCODING 188
SWIDTH 1020 0
DWIDTH 68 0
BBX 60 47 6 0
BITMAP
FFC0000000180000
FFC0000000300000
0040000000200000
0040000000600000
0040000000C00000
0040000000800000
0040000001000000
0040000003000000
0040000002000000
0040000004000000
004000000C000000
0040000008000000
0040000010000000
0040000030000000
0040000020000000
0040000040000000
00400000C0000000
0040000180000000
0040000100000000
0040000300003000
0040000600006000
004000040000C000
0040000C00008000
0040001800010000
0040001000030000
0040002000060000
0040006000040000
FFFFC04000080000
0000008000180000
0000018000300000
0000010000200000
0000020000400800
0000060000C00800
0000040001800800
0000080003000800
0000180002000800
0000300004000800
000020000C000800
000060000FFFFFF0
0000C00000000800
0000800000000800
0001800000000800
0003000000000800
0002000000000800
0006000000000800
000C000000000800
0008000000000800
ENDCHAR
STARTCHAR 00BD
ENCODING 189
SWIDTH 1020 0
DWIDTH 68 0
BBX 58 47 6 0
BITMAP
FFC0000000180000
FFC0000000300000
0040000000200000
0040000000600000
0040000000C00000
0040000000800000
0040000001000000
0040000003000000
0040000002000000
0040000004000000
004000000C000000
0040000008000000
0040000010000000
0040000030000000
0040000020000000
0040000040000000
00400000C0000000
0040000180000000
0040000100000000
00400003001F8000
0040000601F1F800
0040000403000C00
0040000C0C000600
0040001800000300
0040001000000100
0040002000000100
0040006000000100
FFFFC04000000100
0000008000000100
0000018000000300
0000010000000200
0000020000000400
0000060000000800
0000040000001800
0000080000002000
0000180000004000
0000300000018000
0000200000030000
0000600000060000
0000C000000C0000
0000800000180000
0001800000300000
0003000000600000
0002000000800000
0006000001000000
000C000006000000
0008000007FFFFC0
ENDCHAR
STARTCHAR 00BE
ENCODING 190
SWIDTH 1020 0
DWIDTH 68 0
BBX 63 47 3 0
BITMAP
FFFFF00000030000
FFFFF00000060000
0000600000040000
0000C000000C0000
0000800000180000
0001000000100000
0002000000200000
0004000000600000
000C000000400000
0018000000800000
0030000001800000
0060000001000000
0040000002000000
00FF000006000000
0000C00004000000
0000600008000000
0000300018000000
0000180030000000
0000080020000000
0000080060000600
00000800C0000C00
0000080080001800
0000180180001000
8000100300002000
C000300200006000
600060040000C000
1C01C00C00008000
07FE000800010000
0000001000030000
0000003000060000
0000002000040000
0000004000080100
000000C000180100
0000008000300100
0000010000600100
0000030000400100
0000060000800100
0000040001800100
00000C0001FFFFFE
0000180000000100
0000100000000100
0000300000000100
0000600000000100
0000400000000100
0000C00000000100
0001800000000100
0001000000000100
ENDCHAR
STARTCHAR 00BF
ENCODING 191
SWIDTH 540 0
DWIDTH 36 0
BBX 30 45 6 -10
BITMAP
00040000
000E0000
000E0000
00060000
00000000
00000000
00000000
00000000
00000000
00000000
00000000
00000000
00000000
00040000
00040000
00040000
000C0000
000C0000
00180000
00180000
00300000
00600000
00C00000
01800000
03000000
0C000000
18000000
30000000
20000000
60000000
40000000
C0000000
C0000000
80000000
80000000
80000000
80000000
C0000000
40000000
6000000C
30000018
18000060
0C0001C0
07800F00
00FFF800
ENDCHAR
STARTCHAR 00C0
ENCODING 192
SWIDTH 675 0
DWIDTH 45 0
BBX 44 58 1 0
BITMAP
000700000000
000180000000
0000E0000000
000070000000
000018000000
00000C000000
000003000000
000001800000
000000000000
000000000000
000000000000
000006000000
000006000000
00000F000000
000009000000
000019800000
000010800000
000030800000
000020C00000
000060400000
000060600000
000040200000
0000C0300000
000080100000
000180180000
000100080000
0003000C0000
000200040000
000600060000
000400020000
000C00030000
000800030000
001800010000
001800018000
003000008000
00300000C000
002000004000
006000006000
004000002000
00C000003000
008000001000
018000001800
010000000800
03FFFFFFFC00
020000000C00
060000000400
040000000600
0C0000000200
0C0000000300
080000000100
180000000180
100000000080
3000000000C0
200000000040
600000000060
400000000020
C00000000030
800000000030
ENDCHAR
STARTCHAR 00C1
ENCODING 193
SWIDTH 675 0
DWIDTH 45 0
BBX 44 58 1 0
BITMAP
0000000E0000
000000180000
000000700000
000000C00000
000001800000
000003000000
00000C000000
000018000000
000000000000
000000000000
000000000000
000006000000
000006000000
00000F000000
000009000000
000019800000
000010800000
000030800000
000020C00000
000060400000
000060600000
000040200000
0000C0300000
000080100000
000180180000
000100080000
0003000C0000
000200040000
000600060000
000400020000
000C00030000
000800030000
001800010000
001800018000
003000008000
00300000C000
002000004000
006000006000
004000002000
00C000003000
008000001000
018000001800
010000000800
03FFFFFFFC00
020000000C00
060000000400
040000000600
0C0000000200
0C0000000300
080000000100
180000000180
100000000080
3000000000C0
200000000040
600000000060
400000000020
C00000000030
800000000030
ENDCHAR
STARTCHAR 00C2
ENCODING 194
SWIDTH 675 0
DWIDTH 45 0
BBX 44 58 1 0
BITMAP
000006000000
00001F000000
000039C00000
000060600000
0000C0300000
000180180000
0003000C0000
000600060000
000000000000
000000000000
000000000000
000006000000
000006000000
00000F000000
000009000000
000019800000
000010800000
000030800000
000020C00000
000060400000
000060600000
000040200000
0000C0300000
000080100000
000180180000
000100080000
0003000C0000
000200040000
000600060000
000400020000
000C00030000
000800030000
001800010000
001800018000
003000008000
00300000C000
002000004000
006000006000
004000002000
00C000003000
008000001000
018000001800
010000000800
03FFFFFFFC00
020000000C00
060000000400
040000000600
0C0000000200
0C0000000300
080000000100
180000000180
100000000080
3000000000C0
200000000040
600000000060
400000000020
C00000000030
800000000030
ENDCHAR
STARTCHAR 00C3
ENCODING 195
SWIDTH 675 0
DWIDTH 45 0
BBX 44 57 1 0
BITMAP
0001F0020000
00031C020000
000206060000
0006030C0000
000401F80000
000400600000
000000000000
000000000000
000000000000
000000000000
000006000000
000006000000
00000F000000
000009000000
000019800000
000010800000
000030800000
000020C00000
000060400000
000060600000
000040200000
0000C0300000
000080100000
000180180000
000100080000
0003000C0000
000200040000
000600060000
000400020000
000C00030000
000800030000
001800010000
001800018000
003000008000
00300000C000
002000004000
006000006000
004000002000
00C000003000
008000001000
018000001800
010000000800
03FFFFFFFC00
020000000C00
060000000400
040000000600
0C0000000200
0C0000000300
080000000100
180000000180
100000000080
3000000000C0
200000000040
600000000060
400000000020
C00000000030
800000000030
ENDCHAR
STARTCHAR 00C4
ENCODING 196
SWIDTH 675 0
DWIDTH 45 0
BBX 44 56 1 0
BITMAP
0001C0380000
0001C0380000
0001C0380000
000000000000
000000000000
000000000000
000000000000
000000000000
000000000000
000006000000
000006000000
00000F000000
000009000000
000019800000
000010800000
000030800000
000020C00000
000060400000
000060600000
000040200000
0000C0300000
000080100000
000180180000
000100080000
0003000C0000
000200040000
000600060000
000400020000
000C00030000
000800030000
001800010000
001800018000
003000008000
00300000C000
002000004000
006000006000
004000002000
00C000003000
008000001000
018000001800
010000000800
03FFFFFFFC00
020000000C00
060000000400
040000000600
0C0000000200
0C0000000300
080000000100
180000000180
100000000080
3000000000C0
200000000040
600000000060
400000000020
C00000000030
800000000030
ENDCHAR
STARTCHAR 00C5
ENCODING 197
SWIDTH 675 0
DWIDTH 45 0
BBX 44 64 1 0
BITMAP
00001F800000
000030C00000
000040600000
0000C0300000
000080100000
000080100000
000080100000
000080300000
0000C0300000
000060600000
000039C00000
00001F000000
000000000000
000000000000
000000000000
000000000000
000000000000
000006000000
000006000000
00000F000000
000009000000
000019800000
000010800000
000030800000
000020C00000
000060400000
000060600000
000040200000
0000C0300000
000080100000
000180180000
000100080000
0003000C0000
000200040000
000600060000
000400020000
000C00030000
000800030000
001800010000
001800018000
003000008000
00300000C000
002000004000
006000006000
004000002000
00C000003000
008000001000
018000001800
010000000800
03FFFFFFFC00
020000000C00
060000000400
040000000600
0C0000000200
0C0000000300
080000000100
180000000180
100000000080
3000000000C0
200000000040
600000000060
400000000020
C00000000030
800000000030
ENDCHAR
STARTCHAR 00C6
ENCODING 198
SWIDTH 1005 0
DWIDTH 67 0
BBX 61 47 1 0
BITMAP
00000007FFFFFFF0
0000000FFFFFFFF0
0000000B00000000
0000001B00000000
0000001300000000
0000003300000000
0000006300000000
0000004300000000
000000C300000000
0000018300000000
0000010300000000
0000030300000000
0000020300000000
0000040300000000
00000C0300000000
0000080300000000
0000180300000000
0000300300000000
0000200300000000
0000600300000000
0000C00300000000
0000800300000000
0001800300000000
00010003FFFFFF80
0002000300000000
0006000300000000
0004000300000000
000C000300000000
0018000300000000
0010000300000000
0030000300000000
0060000300000000
007FFFFF00000000
00C0000300000000
0080000300000000
0100000300000000
0300000300000000
0200000300000000
0600000300000000
0C00000300000000
0800000300000000
1800000300000000
3000000300000000
2000000300000000
6000000300000000
4000000300000000
80000003FFFFFFF8
ENDCHAR
STARTCHAR 00C7
ENCODING 199
SWIDTH 705 0
DWIDTH 47 0
BBX 39 61 4 -14
BITMAP
00001FF000
0001FE7F00
00078001E0
001C000038
003000000C
00E0000006
0180000002
0300000000
0600000000
0C00000000
0800000000
1800000000
1000000000
3000000000
2000000000
6000000000
4000000000
4000000000
C000000000
C000000000
8000000000
8000000000
8000000000
8000000000
8000000000
8000000000
8000000000
C000000000
C000000000
4000000000
4000000000
6000000000
2000000000
2000000000
3000000000
1800000000
0800000000
0C00000000
0600000000
0300000000
0180000000
00C0000006
007000000C
0018000018
000F0000E0
0003E00780
00003FFC00
0000030000
0000020000
0000020000
0000060000
000007C000
0000006000
0000003000
0000001000
0000001000
0000001000
0000001000
0000003000
000070E000
00001F8000
ENDCHAR
STARTCHAR 00C8
ENCODING 200
SWIDTH 660 0
DWIDTH 44 0
BBX 31 58 9 0
BITMAP
03800000
00C00000
00700000
00380000
000C0000
00060000
00018000
0000C000
00000000
00000000
00000000
FFFFFFFC
FFFFFFFC
80000000
80000000
80000000
80000000
80000000
80000000
80000000
80000000
80000000
80000000
80000000
80000000
80000000
80000000
80000000
80000000
80000000
80000000
80000000
80000000
80000000
FFFFFFE0
80000000
80000000
80000000
80000000
80000000
80000000
80000000
80000000
80000000
80000000
80000000
80000000
80000000
80000000
80000000
80000000
80000000
80000000
80000000
80000000
80000000
80000000
FFFFFFFE
ENDCHAR
STARTCHAR 00C9
ENCODING 201
SWIDTH 660 0
DWIDTH 44 0
BBX 31 58 9 0
BITMAP
00000700
00000C00
00003800
00006000
0000C000
00018000
00060000
000C0000
00000000
00000000
00000000
FFFFFFFC
FFFFFFFC
80000000
80000000
80000000
80000000
80000000
80000000
80000000
80000000
80000000
80000000
80000000
80000000
80000000
80000000
80000000
80000000
80000000
80000000
80000000
80000000
80000000
FFFFFFE0
80000000
80000000
80000000
80000000
80000000
80000000
80000000
80000000
80000000
80000000
80000000
80000000
80000000
80000000
80000000
80000000
80000000
80000000
80000000
80000000
80000000
80000000
FFFFFFFE
ENDCHAR
STARTCHAR 00CA
ENCODING 202
SWIDTH 660 0
DWIDTH 44 0
BBX 31 58 9 0
BITMAP
00030000
000F8000
001CE000
00303000
00601800
00C00C00
01800600
03000300
00000000
00000000
00000000
FFFFFFFC
FFFFFFFC
80000000
80000000
80000000
80000000
80000000
80000000
80000000
80000000
80000000
80000000
80000000
80000000
80000000
80000000
80000000
80000000
80000000
80000000
80000000
80000000
80000000
FFFFFFE0
80000000
80000000
80000000
80000000
80000000
80000000
80000000
80000000
80000000
80000000
80000000
80000000
80000000
80000000
80000000
80000000
80000000
80000000
80000000
80000000
80000000
80000000
FFFFFFFE
ENDCHAR
STARTCHAR 00CB
ENCODING 203
SWIDTH 660 0
DWIDTH 44 0
BBX 31 56 9 0
BITMAP
00E01C00
00E01C00
00E01C00
00000000
00000000
00000000
00000000
00000000
00000000
FFFFFFFC
FFFFFFFC
80000000
80000000
80000000
80000000
80000000
80000000
80000000
80000000
80000000
80000000
80000000
80000000
80000000
80000000
80000000
80000000
80000000
80000000
80000000
80000000
80000000
FFFFFFE0
80000000
80000000
80000000
80000000
80000000
80000000
80000000
80000000
80000000
80000000
80000000
80000000
80000000
80000000
80000000
80000000
80000000
80000000
80000000
80000000
80000000
80000000
FFFFFFFE
ENDCHAR
STARTCHAR 00CC
ENCODING 204
SWIDTH 285 0
DWIDTH 19 0
BBX 12 58 1 0
BITMAP
E000
7000
1800
0C00
0700
0180
00C0
0070
0000
0000
0000
0080
0080
0080
0080
0080
0080
0080
0080
0080
0080
0080
0080
0080
0080
0080
0080
0080
0080
0080
0080
0080
0080
0080
0080
0080
0080
0080
0080
0080
0080
0080
0080
0080
0080
0080
0080
0080
0080
0080
0080
0080
0080
0080
0080
0080
0080
0080
ENDCHAR
STARTCHAR 00CD
ENCODING 205
SWIDTH 285 0
DWIDTH 19 0
BBX 11 58 7 0
BITMAP
00E0
01C0
0300
0600
1C00
3000
6000
C000
0000
0000
0000
2000
2000
2000
2000
2000
2000
2000
2000
2000
2000
2000
2000
2000
2000
2000
2000
2000
2000
2000
2000
2000
2000
2000
2000
2000
2000
2000
2000
2000
2000
2000
2000
2000
2000
2000
2000
2000
2000
2000
2000
2000
2000
2000
2000
2000
2000
2000
ENDCHAR
STARTCHAR 00CE
ENCODING 206
SWIDTH 285 0
DWIDTH 19 0
BBX 19 58 0 0
BITMAP
00E000
01B000
031800
060C00
0C0600
180100
6000C0
C00060
000000
000000
000000
004000
004000
004000
004000
004000
004000
004000
004000
004000
004000
004000
004000
004000
004000
004000
004000
004000
004000
004000
004000
004000
004000
004000
004000
004000
004000
004000
004000
004000
004000
004000
004000
004000
004000
004000
004000
004000
004000
004000
004000
004000
004000
004000
004000
004000
004000
004000
ENDCHAR
STARTCHAR 00CF
ENCODING 207
SWIDTH 285 0
DWIDTH 19 0
BBX 15 56 2 0
BITMAP
600C
F01E
600C
0000
0000
0000
0000
0000
0000
0100
0100
0100
0100
0100
0100
0100
0100
0100
0100
0100
0100
0100
0100
0100
0100
0100
0100
0100
0100
0100
0100
0100
0100
0100
0100
0100
0100
0100
0100
0100
0100
0100
0100
0100
0100
0100
0100
0100
0100
0100
0100
0100
0100
0100
0100
0100
ENDCHAR
STARTCHAR 00D0
ENCODING 208
SWIDTH 825 0
DWIDTH 55 0
BBX 50 47 1 0
BITMAP
00FFFFF8000000
00FFFFFFC00000
00800000780000
008000000E0000
00800000030000
0080000001C000
00800000006000
00800000003000
00800000001800
00800000000C00
00800000000400
00800000000600
00800000000300
00800000000100
00800000000100
00800000000180
00800000000080
00800000000080
008000000000C0
008000000000C0
00800000000040
00800000000040
00800000000040
FFFFFF00000040
00800000000040
00800000000040
00800000000040
008000000000C0
008000000000C0
00800000000080
00800000000080
00800000000080
00800000000180
00800000000100
00800000000300
00800000000200
00800000000600
00800000000C00
00800000001800
00800000003000
00800000006000
0080000000C000
00800000038000
00800000060000
00800000380000
00800007E00000
00FFFFFE000000
ENDCHAR
STARTCHAR 00D1
ENCODING 209
SWIDTH 810 0
DWIDTH 54 0
BBX 37 57 9 0
BITMAP
000F002000
0011C02000
0020606000
0060304000
00601FC000
0040070000
0000000000
0000000000
0000000000
0000000000
8000000018
C000000018
E000000018
A000000018
9000000018
9800000018
8C00000018
8600000018
8200000018
8300000018
8180000018
80C0000018
8040000018
8060000018
8030000018
8018000018
800C000018
8004000018
8006000018
8003000018
8001800018
8000800018
8000C00018
8000600018
8000300018
8000100018
8000080018
80000C0018
8000060018
8000030018
8000010018
8000018018
800000C018
8000006018
8000002018
8000003018
8000001818
8000000C18
8000000618
8000000218
8000000318
8000000198
80000000D8
8000000058
8000000078
8000000038
8000000018
ENDCHAR
STARTCHAR 00D2
ENCODING 210
SWIDTH 825 0
DWIDTH 55 0
BBX 48 58 4 0
BITMAP
0001C0000000
000060000000
000030000000
00001C000000
000006000000
000003000000
000001C00000
000000600000
000000000000
000000000000
000000000000
00001FF00000
0001FE7F0000
00070001E000
001C00003800
003000000C00
00C000000600
018000000180
0300000000C0
060000000040
0C0000000020
080000000030
180000000018
100000000008
30000000000C
200000000004
600000000004
400000000006
400000000002
C00000000002
C00000000002
800000000003
800000000003
800000000003
800000000003
800000000003
800000000003
800000000003
C00000000003
C00000000002
400000000002
400000000006
600000000006
200000000004
20000000000C
300000000008
100000000018
080000000010
0C0000000030
060000000060
0300000000C0
018000000180
00C000000300
006000000E00
001800003800
000F0000E000
0003E0078000
00003FFC0000
ENDCHAR
STARTCHAR 00D3
ENCODING 211
SWIDTH 825 0
DWIDTH 55 0
BBX 48 58 4 0
BITMAP
000000030000
000000060000
0000001C0000
000000300000
000000600000
000001C00000
000003000000
000006000000
000000000000
000000000000
000000000000
00001FF00000
0001FE7F0000
00070001E000
001C00003800
003000000C00
00C000000600
018000000180
0300000000C0
060000000040
0C0000000020
080000000030
180000000018
100000000008
30000000000C
200000000004
600000000004
400000000006
400000000002
C00000000002
C00000000002
800000000003
800000000003
800000000003
800000000003
800000000003
800000000003
800000000003
C00000000003
C00000000002
400000000002
400000000006
600000000006
200000000004
20000000000C
300000000008
100000000018
080000000010
0C0000000030
060000000060
0300000000C0
018000000180
00C000000300
006000000E00
001800003800
000F0000E000
0003E0078000
00003FFC0000
ENDCHAR
STARTCHAR 00D4
ENCODING 212
SWIDTH 825 0
DWIDTH 55 0
BBX 48 58 4 0
BITMAP
000003800000
000007C00000
00000C700000
000018380000
0000300C0000
000060060000
0000C0030000
000180018000
000000000000
000000000000
000000000000
00001FF00000
0001FE7F0000
00070001E000
001C00003800
003000000C00
00C000000600
018000000180
0300000000C0
060000000040
0C0000000020
080000000030
180000000018
100000000008
30000000000C
200000000004
600000000004
400000000006
400000000002
C00000000002
C00000000002
800000000003
800000000003
800000000003
800000000003
800000000003
800000000003
800000000003
C00000000003
C00000000002
400000000002
400000000006
600000000006
200000000004
20000000000C
300000000008
100000000018
080000000010
0C0000000030
060000000060
0300000000C0
018000000180
00C000000300
006000000E00
001800003800
000F0000E000
0003E0078000
00003FFC0000
ENDCHAR
STARTCHAR 00D5
ENCODING 213
SWIDTH 825 0
DWIDTH 55 0
BBX 48 57 4 0
BITMAP
00007C008000
0000C6018000
000081818000
000180C30000
0001007E0000
000100180000
000000000000
000000000000
000000000000
000000000000
00001FF00000
0001FE7F0000
00070001E000
001C00003800
003000000C00
00C000000600
018000000180
0300000000C0
060000000040
0C0000000020
080000000030
180000000018
100000000008
30000000000C
200000000004
600000000004
400000000006
400000000002
C00000000002
C00000000002
800000000003
800000000003
800000000003
800000000003
800000000003
800000000003
800000000003
C00000000003
C00000000002
400000000002
400000000006
600000000006
200000000004
20000000000C
300000000008
100000000018
080000000010
0C0000000030
060000000060
0300000000C0
018000000180
00C000000300
006000000E00
001800003800
000F0000E000
0003E0078000
00003FFC0000
ENDCHAR
STARTCHAR 00D6
ENCODING 214
SWIDTH 825 0
DWIDTH 55 0
BBX 48 56 4 0
BITMAP
0000700E0000
0000700E0000
0000700E0000
000000000000
000000000000
000000000000
000000000000
000000000000
000000000000
00001FF00000
0001FE7F0000
00070001E000
001C00003800
003000000C00
00C000000600
018000000180
0300000000C0
060000000040
0C0000000020
080000000030
180000000018
100000000008
30000000000C
200000000004
600000000004
400000000006
400000000002
C00000000002
C00000000002
800000000003
800000000003
800000000003
800000000003
800000000003
800000000003
800000000003
C00000000003
C00000000002
400000000002
400000000006
600000000006
200000000004
20000000000C
300000000008
100000000018
080000000010
0C0000000030
060000000060
0300000000C0
018000000180
00C000000300
006000000E00
001800003800
000F0000E000
0003E0078000
00003FFC0000
ENDCHAR
STARTCHAR 00D7
ENCODING 215
SWIDTH 555 0
DWIDTH 37 0
BBX 20 20 9 13
BITMAP
800030
400060
2000C0
100180
080300
040600
020C00
011800
00B000
006000
00E000
019000
030800
060400
0C0200
180100
300080
600040
C00020
800000
ENDCHAR
STARTCHAR 00D8
ENCODING 216
SWIDTH 825 0
DWIDTH 55 0
BBX 48 56 4 -5
BITMAP
000000000018
000000000030
000000000060
000000000040
00001FF000C0
0001FE7F0180
00070001E100
001C00003A00
003000000E00
00C000000E00
018000000980
0300000010C0
060000003040
0C0000006020
080000004030
18000000C018
100000018008
30000001000C
200000020004
600000060004
4000000C0006
400000080002
C00000100002
C00000300002
800000600003
800000400003
800000800003
800001800003
800003000003
800002000003
800006000003
C0000C000003
C00008000002
400010000002
400030000006
600060000006
200040000004
20008000000C
300180000008
100300000018
080200000010
0C0600000030
060C00000060
0318000000C0
019000000180
00F000000300
006000000E00
005800003800
008F0000E000
0183E0078000
03003FFC0000
020000000000
040000000000
0C0000000000
180000000000
100000000000
ENDCHAR
STARTCHAR 00D9
ENCODING 217
SWIDTH 780 0
DWIDTH 52 0
BBX 36 58 8 0
BITMAP
0038000000
001C000000
0006000000
0003000000
0001C00000
0000600000
0000300000
0000180000
0000000000
0000000000
0000000000
C000000010
C000000010
C000000010
C000000010
C000000010
C000000010
C000000010
C000000010
C000000010
C000000010
C000000010
C000000010
C000000010
C000000010
C000000010
C000000010
C000000010
C000000010
C000000010
C000000010
C000000010
C000000010
C000000010
C000000010
C000000010
C000000010
C000000010
C000000010
C000000010
4000000010
4000000010
4000000010
4000000010
4000000010
6000000030
6000000020
2000000020
3000000060
1000000040
18000000C0
0800000180
0400000100
0200000200
0180000C00
00E0003800
003C01E000
0007FF0000
ENDCHAR
STARTCHAR 00DA
ENCODING 218
SWIDTH 780 0
DWIDTH 52 0
BBX 36 58 8 0
BITMAP
000000E000
000001C000
0000030000
0000060000
00001C0000
0000300000
0000600000
0001C00000
0000000000
0000000000
0000000000
C000000010
C000000010
C000000010
C000000010
C000000010
C000000010
C000000010
C000000010
C000000010
C000000010
C000000010
C000000010
C000000010
C000000010
C000000010
C000000010
C000000010
C000000010
C000000010
C000000010
C000000010
C000000010
C000000010
C000000010
C000000010
C000000010
C000000010
C000000010
C000000010
4000000010
4000000010
4000000010
4000000010
4000000010
6000000030
6000000020
2000000020
3000000060
1000000040
18000000C0
0800000180
0400000100
0200000200
0180000C00
00E0003800
003C01E000
0007FF0000
ENDCHAR
STARTCHAR 00DB
ENCODING 219
SWIDTH 780 0
DWIDTH 52 0
BBX 36 58 8 0
BITMAP
0000700000
0000D80000
00018C0000
0003060000
0006030000
0008018000
0030006000
0060003000
0000000000
0000000000
0000000000
C000000010
C000000010
C000000010
C000000010
C000000010
C000000010
C000000010
C000000010
C000000010
C000000010
C000000010
C000000010
C000000010
C000000010
C000000010
C000000010
C000000010
C000000010
C000000010
C000000010
C000000010
C000000010
C000000010
C000000010
C000000010
C000000010
C000000010
C000000010
C000000010
4000000010
4000000010
4000000010
4000000010
4000000010
6000000030
6000000020
2000000020
3000000060
1000000040
18000000C0
0800000180
0400000100
0200000200
0180000C00
00E0003800
003C01E000
0007FF0000
ENDCHAR
STARTCHAR 00DC
ENCODING 220
SWIDTH 780 0
DWIDTH 52 0
BBX 36 56 8 0
BITMAP
000C018000
001E03C000
000C018000
0000000000
0000000000
0000000000
0000000000
0000000000
0000000000
C000000010
C000000010
C000000010
C000000010
C000000010
C000000010
C000000010
C000000010
C000000010
C000000010
C000000010
C000000010
C000000010
C000000010
C000000010
C000000010
C000000010
C000000010
C000000010
C000000010
C000000010
C000000010
C000000010
C000000010
C000000010
C000000010
C000000010
C000000010
C000000010
4000000010
4000000010
4000000010
4000000010
4000000010
6000000030
6000000020
2000000020
3000000060
1000000040
18000000C0
0800000180
0400000100
0200000200
0180000C00
00E0003800
003C01E000
0007FF0000
ENDCHAR
STARTCHAR 00DD
ENCODING 221
SWIDTH 600 0
DWIDTH 40 0
BBX 39 58 1 0
BITMAP
0000007000
000000E000
0000018000
0000070000
00000C0000
0000180000
0000300000
0000C00000
0000000000
0000000000
0000000000
8000000006
C000000004
600000000C
2000000018
3000000010
1000000030
1800000020
0C00000060
04000000C0
0600000080
0200000180
0100000100
0180000300
0080000600
00C0000400
0060000C00
0020001800
0030001000
0010003000
0018002000
000C006000
000400C000
0006008000
0003018000
0001010000
0001820000
0000860000
0000C40000
00006C0000
0000380000
0000300000
0000100000
0000100000
0000100000
0000100000
0000100000
0000100000
0000100000
0000100000
0000100000
0000100000
0000100000
0000100000
0000100000
0000100000
0000100000
0000100000
ENDCHAR
STARTCHAR 00DE
ENCODING 222
SWIDTH 705 0
DWIDTH 47 0
BBX 34 47 9 0
BITMAP
8000000000
8000000000
8000000000
8000000000
8000000000
8000000000
8000000000
FFFFF80000
80000F8000
800000E000
8000003000
8000000C00
8000000600
8000000200
8000000100
8000000180
8000000080
8000000080
80000000C0
80000000C0
8000000040
8000000040
8000000040
8000000040
8000000040
80000000C0
80000000C0
8000000080
8000000180
8000000100
8000000300
8000000200
8000000400
8000001800
8000003000
800001C000
FFFFFF0000
FFFFC00000
8000000000
8000000000
8000000000
8000000000
8000000000
8000000000
8000000000
8000000000
8000000000
ENDCHAR
STARTCHAR 00DF
ENCODING 223
SWIDTH 645 0
DWIDTH 43 0
BBX 32 50 8 0
BITMAP
00070000
00FFF800
03800E00
06000300
0C000180
100000C0
30000060
60000020
40000030
40000030
C0000010
80000010
80000010
80000010
80000010
80000030
80000020
80000020
80000040
800000C0
80000180
80000300
80000E00
80007800
8007F800
80000F00
800001C0
80000070
80000018
8000000C
80000004
80000006
80000002
80000002
80000003
80000003
80000001
80000001
80000003
80000003
80000002
80000002
80000006
80000004
80000008
80000018
80000030
800000C0
80300780
801FFC00
ENDCHAR
STARTCHAR 00E0
ENCODING 224
SWIDTH 570 0
DWIDTH 38 0
BBX 27 48 4 0
BITMAP
03000000
01C00000
00E00000
00300000
00180000
000E0000
00030000
00018000
00000000
00000000
00000000
00000000
00000000
00078000
00FFF800
03800E00
0C000300
38000180
60000080
000000C0
00000040
00000060
00000060
00000020
00000020
00000020
00000020
00000020
00000020
003FFFE0
07FFFFE0
0C000020
10000020
20000020
60000020
40000020
40000020
C0000020
C0000060
C0000060
C00000E0
400000A0
600001A0
20000320
30000620
1C001C20
0780F020
01FFC020
ENDCHAR
STARTCHAR 00E1
ENCODING 225
SWIDTH 570 0
DWIDTH 38 0
BBX 27 48 4 0
BITMAP
00000E00
00001800
00003000
0000E000
00018000
00030000
00060000
00180000
00000000
00000000
00000000
00000000
00000000
00078000
00FFF800
03800E00
0C000300
38000180
60000080
000000C0
00000040
00000060
00000060
00000020
00000020
00000020
00000020
00000020
00000020
003FFFE0
07FFFFE0
0C000020
10000020
20000020
60000020
40000020
40000020
C0000020
C0000060
C0000060
C00000E0
400000A0
600001A0
20000320
30000620
1C001C20
0780F020
01FFC020
ENDCHAR
STARTCHAR 00E2
ENCODING 226
SWIDTH 570 0
DWIDTH 38 0
BBX 27 48 4 0
BITMAP
00070000
000F8000
0018C000
00706000
00C03000
01801800
03000C00
06000200
00000000
00000000
00000000
00000000
00000000
00078000
00FFF800
03800E00
0C000300
38000180
60000080
000000C0
00000040
00000060
00000060
00000020
00000020
00000020
00000020
00000020
00000020
003FFFE0
07FFFFE0
0C000020
10000020
20000020
60000020
40000020
40000020
C0000020
C0000060
C0000060
C00000E0
400000A0
600001A0
20000320
30000620
1C001C20
0780F020
01FFC020
ENDCHAR
STARTCHAR 00E3
ENCODING 227
SWIDTH 570 0
DWIDTH 38 0
BBX 27 47 4 0
BITMAP
00F00200
011C0200
02060600
06030400
0601FC00
04007000
00000000
00000000
00000000
00000000
00000000
00000000
00078000
00FFF800
03800E00
0C000300
38000180
60000080
000000C0
00000040
00000060
00000060
00000020
00000020
00000020
00000020
00000020
00000020
003FFFE0
07FFFFE0
0C000020
10000020
20000020
60000020
40000020
40000020
C0000020
C0000060
C0000060
C00000E0
400000A0
600001A0
20000320
30000620
1C001C20
0780F020
01FFC020
ENDCHAR
STARTCHAR 00E4
ENCODING 228
SWIDTH 570 0
DWIDTH 38 0
BBX 27 46 4 0
BITMAP
01C03800
01C03800
01C03800
00000000
00000000
00000000
00000000
00000000
00000000
00000000
00000000
00078000
00FFF800
03800E00
0C000300
38000180
60000080
000000C0
00000040
00000060
00000060
00000020
00000020
00000020
00000020
00000020
00000020
003FFFE0
07FFFFE0
0C000020
10000020
20000020
60000020
40000020
40000020
C0000020
C0000060
C0000060
C00000E0
400000A0
600001A0
20000320
30000620
1C001C20
0780F020
01FFC020
ENDCHAR
STARTCHAR 00E5
ENCODING 229
SWIDTH 570 0
DWIDTH 38 0
BBX 27 52 4 0
BITMAP
000F8000
0039C000
00606000
00403000
00C01000
00801000
00801000
00801000
00C03000
00602000
0030E000
001F8000
00000000
00000000
00000000
00000000
00000000
00078000
00FFF800
03800E00
0C000300
38000180
60000080
000000C0
00000040
00000060
00000060
00000020
00000020
00000020
00000020
00000020
00000020
003FFFE0
07FFFFE0
0C000020
10000020
20000020
60000020
40000020
40000020
C0000020
C0000060
C0000060
C00000E0
400000A0
600001A0
20000320
30000620
1C001C20
0780F020
01FFC020
ENDCHAR
STARTCHAR 00E6
ENCODING 230
SWIDTH 975 0
DWIDTH 65 0
BBX 58 35 4 0
BITMAP
0007800001F00000
00FFF8000FFF0000
03800E003801C000
0C000300C0006000
3800018180003000
6000008300000800
000000C600000C00
0000004400000600
0000006800000300
0000007800000100
0000003000000100
0000003000000180
0000003000000080
0000002000000080
0000002000000080
00000020000000C0
003FFFFFFFFFFFC0
03FFFFFFFFFFFFC0
0C00002000000000
1800002000000000
2000002000000000
6000002000000000
4000003000000000
4000003000000000
C000007000000000
C000007800000000
C000004800000000
C00000CC00000000
4000008600000000
6000018300000300
2000030180000600
30000600C0000C00
1C001C0070003000
078070001E01E000
01FFC00003FF0000
ENDCHAR
STARTCHAR 00E7
ENCODING 231
SWIDTH 540 0
DWIDTH 36 0
BBX 29 49 4 -14
BITMAP
0003C000
003FFE00
00E00380
038000E0
06000030
0C000018
18000000
30000000
20000000
60000000
40000000
40000000
C0000000
80000000
80000000
80000000
80000000
80000000
80000000
80000000
80000000
80000000
C0000000
C0000000
40000000
60000000
20000000
30000000
18000000
08000018
06000030
03000060
01C001C0
00780F00
001FF800
00030000
00030000
00020000
00020000
0007C000
00006000
00003000
00001000
00001000
00001000
00001000
00003000
00306000
001FC000
ENDCHAR
STARTCHAR 00E8
ENCODING 232
SWIDTH 585 0
DWIDTH 39 0
BBX 32 48 4 0
BITMAP
01C00000
00E00000
00300000
00180000
000E0000
00030000
00018000
00006000
00000000
00000000
00000000
00000000
00000000
0007C000
007FFC00
01C00700
03000180
060000C0
0C000060
18000030
30000018
20000008
6000000C
40000004
C0000006
C0000002
80000002
80000002
80000002
FFFFFFFF
FFFFFFFF
80000000
80000000
80000000
80000000
80000000
C0000000
40000000
60000000
20000000
30000000
18000000
08000008
06000018
03000070
01C000C0
00780700
000FFC00
ENDCHAR
STARTCHAR 00E9
ENCODING 233
SWIDTH 585 0
DWIDTH 39 0
BBX 32 48 4 0
BITMAP
00000300
00000E00
00001800
00003000
0000E000
00018000
00030000
00060000
00000000
00000000
00000000
00000000
00000000
0007C000
007FFC00
01C00700
03000180
060000C0
0C000060
18000030
30000018
20000008
6000000C
40000004
C0000006
C0000002
80000002
80000002
80000002
FFFFFFFF
FFFFFFFF
80000000
80000000
80000000
80000000
80000000
C0000000
40000000
60000000
20000000
30000000
18000000
08000008
06000018
03000070
01C000C0
00780700
000FFC00
ENDCHAR
STARTCHAR 00EA
ENCODING 234
SWIDTH 585 0
DWIDTH 39 0
BBX 32 48 4 0
BITMAP
00038000
0006C000
000C6000
00183000
00301800
00600600
00800300
03000180
00000000
00000000
00000000
00000000
00000000
0007C000
007FFC00
01C00700
03000180
060000C0
0C000060
18000030
30000018
20000008
6000000C
40000004
C0000006
C0000002
80000002
80000002
80000002
FFFFFFFF
FFFFFFFF
80000000
80000000
80000000
80000000
80000000
C0000000
40000000
60000000
20000000
30000000
18000000
08000008
06000018
03000070
01C000C0
00780700
000FFC00
ENDCHAR
STARTCHAR 00EB
ENCODING 235
SWIDTH 585 0
DWIDTH 39 0
BBX 32 46 4 0
BITMAP
00700C00
00F01E00
00700C00
00000000
00000000
00000000
00000000
00000000
00000000
00000000
00000000
0007C000
007FFC00
01C00700
03000180
060000C0
0C000060
18000030
30000018
20000008
6000000C
40000004
C0000006
C0000002
80000002
80000002
80000002
FFFFFFFF
FFFFFFFF
80000000
80000000
80000000
80000000
80000000
C0000000
40000000
60000000
20000000
30000000
18000000
08000008
06000018
03000070
01C000C0
00780700
000FFC00
ENDCHAR
STARTCHAR 00EC
ENCODING 236
SWIDTH 240 0
DWIDTH 16 0
BBX 11 48 0 0
BITMAP
C000
7000
3800
0C00
0600
0180
00C0
0060
0000
0000
0000
0000
0000
0000
0080
0080
0080
0080
0080
0080
0080
0080
0080
0080
0080
0080
0080
0080
0080
0080
0080
0080
0080
0080
0080
0080
0080
0080
0080
0080
0080
0080
0080
0080
0080
0080
0080
0080
ENDCHAR
STARTCHAR 00ED
ENCODING 237
SWIDTH 240 0
DWIDTH 16 0
BBX 12 48 5 0
BITMAP
0070
00E0
0180
0700
0C00
1800
3000
C000
0000
0000
0000
0000
0000
0000
1000
1000
1000
1000
1000
1000
1000
1000
1000
1000
1000
1000
1000
1000
1000
1000
1000
1000
1000
1000
1000
1000
1000
1000
1000
1000
1000
1000
1000
1000
1000
1000
1000
1000
ENDCHAR
STARTCHAR 00EE
ENCODING 238
SWIDTH 240 0
DWIDTH 16 0
BBX 15 48 1 0
BITMAP
0380
06C0
0CC0
1860
3030
2018
600C
C006
0000
0000
0000
0000
0000
0000
0100
0100
0100
0100
0100
0100
0100
0100
0100
0100
0100
0100
0100
0100
0100
0100
0100
0100
0100
0100
0100
0100
0100
0100
0100
0100
0100
0100
0100
0100
0100
0100
0100
0100
ENDCHAR
STARTCHAR 00EF
ENCODING 239
SWIDTH 240 0
DWIDTH 16 0
BBX 11 46 3 0
BITMAP
E0C0
E1E0
E0C0
0000
0000
0000
0000
0000
0000
0000
0000
0000
0400
0400
0400
0400
0400
0400
0400
0400
0400
0400
0400
0400
0400
0400
0400
0400
0400
0400
0400
0400
0400
0400
0400
0400
0400
0400
0400
0400
0400
0400
0400
0400
0400
0400
ENDCHAR
STARTCHAR 00F0
ENCODING 240
SWIDTH 615 0
DWIDTH 41 0
BBX 34 47 4 0
BITMAP
00FFC00400
1FF1F81C00
10000EF000
0000038000
00000EC000
0000386000
0001E03000
0007801800
001C000C00
0070000400
03C0000600
0300000200
0000000300
0000000100
0000000100
0000000180
0000000080
0000000080
0003800080
007FFC0080
03C0070080
060001C0C0
0C000060C0
18000030C0
30000018C0
6000000CC0
40000004C0
C000000480
C000000680
8000000280
8000000280
8000000380
8000000380
8000000300
8000000300
8000000300
8000000200
C000000600
4000000400
6000000C00
2000001800
3000001000
1800006000
0C0000C000
0700038000
01E01E0000
003FF80000
ENDCHAR
STARTCHAR 00F1
ENCODING 241
SWIDTH 660 0
DWIDTH 44 0
BBX 29 47 8 0
BITMAP
00F80200
018C0200
02060200
02030400
0601FC00
06007000
00000000
00000000
00000000
00000000
00000000
00000000
00078000
807FFC00
81C00700
87000180
8C0000C0
98000060
90000020
A0000030
E0000010
C0000018
C0000018
C0000008
80000008
80000008
80000008
80000008
80000008
80000008
80000008
80000008
80000008
80000008
80000008
80000008
80000008
80000008
80000008
80000008
80000008
80000008
80000008
80000008
80000008
80000008
80000008
ENDCHAR
STARTCHAR 00F2
ENCODING 242
SWIDTH 600 0
DWIDTH 40 0
BBX 33 48 4 0
BITMAP
00C0000000
0070000000
0038000000
000C000000
0006000000
0001800000
0000C00000
0000600000
0000000000
0000000000
0000000000
0000000000
0000000000
0003E00000
003FFE0000
00E0038000
038000C000
0600003000
0C00001800
1800000800
1000000400
2000000600
6000000200
4000000300
4000000100
C000000100
8000000180
8000000180
8000000080
8000000080
8000000080
8000000080
8000000080
8000000080
8000000180
C000000180
C000000100
4000000300
6000000300
2000000200
3000000400
1800000C00
0800001800
0600003000
0300006000
01C001C000
00780F0000
001FF80000
ENDCHAR
STARTCHAR 00F3
ENCODING 243
SWIDTH 600 0
DWIDTH 40 0
BBX 33 48 4 0
BITMAP
0000038000
0000070000
00000C0000
0000380000
0000600000
0000C00000
0001800000
0006000000
0000000000
0000000000
0000000000
0000000000
0000000000
0003E00000
003FFE0000
00E0038000
038000C000
0600003000
0C00001800
1800000800
1000000400
2000000600
6000000200
4000000300
4000000100
C000000100
8000000180
8000000180
8000000080
8000000080
8000000080
8000000080
8000000080
8000000080
8000000180
C000000180
C000000100
4000000300
6000000300
2000000200
3000000400
1800000C00
0800001800
0600003000
0300006000
01C001C000
00780F0000
001FF80000
ENDCHAR
STARTCHAR 00F4
ENCODING 244
SWIDTH 600 0
DWIDTH 40 0
BBX 33 48 4 0
BITMAP
0001C00000
0003600000
0006300000
000C180000
00380C0000
0060060000
00C0030000
0180008000
0000000000
0000000000
0000000000
0000000000
0000000000
0003E00000
003FFE0000
00E0038000
038000C000
0600003000
0C00001800
1800000800
1000000400
2000000600
6000000200
4000000300
4000000100
C000000100
8000000180
8000000180
8000000080
8000000080
8000000080
8000000080
8000000080
8000000080
8000000180
C000000180
C000000100
4000000300
6000000300
2000000200
3000000400
1800000C00
0800001800
0600003000
0300006000
01C001C000
00780F0000
001FF80000
ENDCHAR
STARTCHAR 00F5
ENCODING 245
SWIDTH 600 0
DWIDTH 40 0
BBX 33 47 4 0
BITMAP
003E008000
0063008000
0081808000
0080C10000
01807F0000
01801C0000
0000000000
0000000000
0000000000
0000000000
0000000000
0000000000
0003E00000
003FFE0000
00E0038000
038000C000
0600003000
0C00001800
1800000800
1000000400
2000000600
6000000200
4000000300
4000000100
C000000100
8000000180
8000000180
8000000080
8000000080
8000000080
8000000080
8000000080
8000000080
8000000180
C000000180
C000000100
4000000300
6000000300
2000000200
3000000400
1800000C00
0800001800
0600003000
0300006000
01C001C000
00780F0000
001FF80000
ENDCHAR
STARTCHAR 00F6
ENCODING 246
SWIDTH 600 0
DWIDTH 40 0
BBX 33 46 4 0
BITMAP
00700E0000
00780F0000
00700E0000
0000000000
0000000000
0000000000
0000000000
0000000000
0000000000
0000000000
0000000000
0003E00000
003FFE0000
00E0038000
038000C000
0600003000
0C00001800
1800000800
1000000400
2000000600
6000000200
4000000300
4000000100
C000000100
8000000180
8000000180
8000000080
8000000080
8000000080
8000000080
8000000080
8000000080
8000000180
C000000180
C000000100
4000000300
6000000300
2000000200
3000000400
1800000C00
0800001800
0600003000
0300006000
01C001C000
00780F0000
001FF80000
ENDCHAR
STARTCHAR 00F7
ENCODING 247
SWIDTH 555 0
DWIDTH 37 0
BBX 27 27 5 10
BITMAP
000E0000
000E0000
000E0000
00000000
00000000
00000000
00000000
00000000
00000000
00000000
00000000
00000000
00000000
FFFFFFE0
00000000
00000000
00000000
00000000
00000000
00000000
00000000
00000000
00000000
00000000
000E0000
000E0000
000E0000
ENDCHAR
STARTCHAR 00F8
ENCODING 248
SWIDTH 600 0
DWIDTH 40 0
BBX 33 44 4 -5
BITMAP
0000000300
0000000600
0000000400
0000000800
0003E01800
003FFE1000
00E003A000
038000E000
0600007000
0C00009800
1800018800
1000030400
2000020600
6000060200
40000C0300
4000080100
C000180100
8000300180
8000200180
8000600080
8000C00080
8000800080
8001800080
8003000080
8002000080
8006000180
C00C000180
C008000100
4018000300
6030000300
2020000200
3040000400
18C0000C00
0880001800
0700003000
0300006000
03C001C000
04780F0000
0C1FF80000
1800000000
1000000000
3000000000
6000000000
4000000000
ENDCHAR
STARTCHAR 00F9
ENCODING 249
SWIDTH 660 0
DWIDTH 44 0
BBX 30 48 7 0
BITMAP
03800000
00C00000
00700000
00380000
000C0000
00060000
00018000
0000C000
00000000
00000000
00000000
00000000
00000000
00000000
C000000C
C000000C
C000000C
C000000C
C000000C
C000000C
C000000C
C000000C
C000000C
C000000C
C000000C
C000000C
C000000C
C000000C
C000000C
C000000C
C000000C
C000000C
C000000C
C000000C
C000000C
C000000C
C000000C
4000000C
4000001C
4000001C
6000003C
2000002C
3000004C
180000CC
0C00018C
0700060C
01C03C0C
007FE00C
ENDCHAR
STARTCHAR 00FA
ENCODING 250
SWIDTH 660 0
DWIDTH 44 0
BBX 30 48 7 0
BITMAP
00000700
00000C00
00003800
00006000
0000C000
00018000
00060000
000C0000
00000000
00000000
00000000
00000000
00000000
00000000
C000000C
C000000C
C000000C
C000000C
C000000C
C000000C
C000000C
C000000C
C000000C
C000000C
C000000C
C000000C
C000000C
C000000C
C000000C
C000000C
C000000C
C000000C
C000000C
C000000C
C000000C
C000000C
C000000C
4000000C
4000001C
4000001C
6000003C
2000002C
3000004C
180000CC
0C00018C
0700060C
01C03C0C
007FE00C
ENDCHAR
STARTCHAR 00FB
ENCODING 251
SWIDTH 660 0
DWIDTH 44 0
BBX 30 48 7 0
BITMAP
00030000
000F8000
001CE000
00303000
00601800
00C00C00
01800600
03000300
00000000
00000000
00000000
00000000
00000000
00000000
C000000C
C000000C
C000000C
C000000C
C000000C
C000000C
C000000C
C000000C
C000000C
C000000C
C000000C
C000000C
C000000C
C000000C
C000000C
C000000C
C000000C
C000000C
C000000C
C000000C
C000000C
C000000C
C000000C
4000000C
4000001C
4000001C
6000003C
2000002C
3000004C
180000CC
0C00018C
0700060C
01C03C0C
007FE00C
ENDCHAR
STARTCHAR 00FC
ENCODING 252
SWIDTH 660 0
DWIDTH 44 0
BBX 30 46 7 0
BITMAP
00E01C00
00E01C00
00E01C00
00000000
00000000
00000000
00000000
00000000
00000000
00000000
00000000
00000000
C000000C
C000000C
C000000C
C000000C
C000000C
C000000C
C000000C
C000000C
C000000C
C000000C
C000000C
C000000C
C000000C
C000000C
C000000C
C000000C
C000000C
C000000C
C000000C
C000000C
C000000C
C000000C
C000000C
4000000C
4000001C
4000001C
6000003C
2000002C
3000004C
180000CC
0C00018C
0700060C
01C03C0C
007FE00C
ENDCHAR
STARTCHAR 00FD
ENCODING 253
SWIDTH 495 0
DWIDTH 33 0
BBX 35 61 -2 -13
BITMAP
000000E000
0000018000
0000070000
00000C0000
0000180000
0000300000
0000C00000
0001800000
0000000000
0000000000
0000000000
0000000000
0000000000
0000000000
1000000060
1800000060
0800000040
0C000000C0
0400000080
0600000180
0200000100
0300000300
0100000200
0100000600
0180000400
0080000C00
00C0000C00
0040000800
0060001800
0020001000
0030003000
0010002000
0018006000
0008004000
000800C000
0004008000
0004018000
0006018000
0002010000
0003030000
0001020000
0001860000
0000840000
0000CC0000
0000480000
0000580000
0000300000
0000300000
0000200000
0000600000
0000600000
0000400000
0000C00000
0000800000
0001800000
0001000000
0003000000
8006000000
E00C000000
3838000000
1FE0000000
ENDCHAR
STARTCHAR 00FE
ENCODING 254
SWIDTH 660 0
DWIDTH 44 0
BBX 33 62 8 -13
BITMAP
8000000000
8000000000
8000000000
8000000000
8000000000
8000000000
8000000000
8000000000
8000000000
8000000000
8000000000
8000000000
8000000000
8000000000
8003E00000
803FFE0000
80E0038000
818000C000
8600003000
8C00001800
9800000800
9000000400
B000000600
A000000200
C000000300
C000000100
C000000100
8000000180
8000000080
8000000080
8000000080
8000000080
8000000080
8000000080
8000000080
8000000180
C000000180
C000000100
C000000100
E000000300
A000000200
B000000600
9800000C00
8800001800
8600003000
8300006000
81C001C000
80780F0000
801FFC0000
8000000000
8000000000
8000000000
8000000000
8000000000
8000000000
8000000000
8000000000
8000000000
8000000000
8000000000
8000000000
8000000000
ENDCHAR
STARTCHAR 00FF
ENCODING 255
SWIDTH 495 0
DWIDTH 33 0
BBX 35 59 -2 -13
BITMAP
001C038000
001C038000
001C038000
0000000000
0000000000
0000000000
0000000000
0000000000
0000000000
0000000000
0000000000
0000000000
1000000060
1800000060
0800000040
0C000000C0
0400000080
0600000180
0200000100
0300000300
0100000200
0100000600
0180000400
0080000C00
00C0000C00
0040000800
0060001800
0020001000
0030003000
0010002000
0018006000
0008004000
000800C000
0004008000
0004018000
0006018000
0002010000
0003030000
0001020000
0001860000
0000840000
0000CC0000
0000480000
0000580000
0000300000
0000300000
0000200000
0000600000
0000600000
0000400000
0000C00000
0000800000
0001800000
0001000000
0003000000
8006000000
E00C000000
3838000000
1FE0000000
ENDCHAR
STARTCHAR 0100
ENCODING 256
SWIDTH 675 0
DWIDTH 45 0
BBX 44 55 1 0
BITMAP
0007FFFE0000
0007FFFE0000
000000000000
000000000000
000000000000
000000000000
000000000000
000000000000
000006000000
000006000000
00000F000000
000009000000
000019800000
000010800000
000030800000
000020C00000
000060400000
000060600000
000040200000
0000C0300000
000080100000
000180180000
000100080000
0003000C0000
000200040000
000600060000
000400020000
000C00030000
000800030000
001800010000
001800018000
003000008000
00300000C000
002000004000
006000006000
004000002000
00C000003000
008000001000
018000001800
010000000800
03FFFFFFFC00
020000000C00
060000000400
040000000600
0C0000000200
0C0000000300
080000000100
180000000180
100000000080
3000000000C0
200000000040
600000000060
400000000020
C00000000030
800000000030
ENDCHAR
STARTCHAR 0101
ENCODING 257
SWIDTH 570 0
DWIDTH 38 0
BBX 27 45 4 0
BITMAP
07FFFE00
07FFFE00
00000000
00000000
00000000
00000000
00000000
00000000
00000000
00000000
00078000
00FFF800
03800E00
0C000300
38000180
60000080
000000C0
00000040
00000060
00000060
00000020
00000020
00000020
00000020
00000020
00000020
003FFFE0
07FFFFE0
0C000020
10000020
20000020
60000020
40000020
40000020
C0000020
C0000060
C0000060
C00000E0
400000A0
600001A0
20000320
30000620
1C001C20
0780F020
01FFC020
ENDCHAR
STARTCHAR 0102
ENCODING 258
SWIDTH 675 0
DWIDTH 45 0
BBX 44 58 1 0
BITMAP
000400060000
000600060000
000200040000
0002000C0000
000100080000
0000C0300000
00007FE00000
00000F000000
000000000000
000000000000
000000000000
000006000000
000006000000
00000F000000
000009000000
000019800000
000010800000
000030800000
000020C00000
000060400000
000060600000
000040200000
0000C0300000
000080100000
000180180000
000100080000
0003000C0000
000200040000
000600060000
000400020000
000C00030000
000800030000
001800010000
001800018000
003000008000
00300000C000
002000004000
006000006000
004000002000
00C000003000
008000001000
018000001800
010000000800
03FFFFFFFC00
020000000C00
060000000400
040000000600
0C0000000200
0C0000000300
080000000100
180000000180
100000000080
3000000000C0
200000000040
600000000060
400000000020
C00000000030
800000000030
ENDCHAR
STARTCHAR 0103
ENCODING 259
SWIDTH 570 0
DWIDTH 38 0
BBX 27 48 4 0
BITMAP
06000200
02000200
02000600
03000400
01800C00
00C03800
007FE000
000F0000
00000000
00000000
00000000
00000000
00000000
00078000
00FFF800
03800E00
0C000300
38000180
60000080
000000C0
00000040
00000060
00000060
00000020
00000020
00000020
00000020
00000020
00000020
003FFFE0
07FFFFE0
0C000020
10000020
20000020
60000020
40000020
40000020
C0000020
C0000060
C0000060
C00000E0
400000A0
600001A0
20000320
30000620
1C001C20
0780F020
01FFC020
ENDCHAR
STARTCHAR 0104
ENCODING 260
SWIDTH 675 0
DWIDTH 45 0
BBX 45 61 1 -14
BITMAP
000006000000
000006000000
00000F000000
000009000000
000019800000
000010800000
000030800000
000020C00000
000060400000
000060600000
000040200000
0000C0300000
000080100000
000180180000
000100080000
0003000C0000
000200040000
000600060000
000400020000
000C00030000
000800030000
001800010000
001800018000
003000008000
00300000C000
002000004000
006000006000
004000002000
00C000003000
008000001000
018000001800
010000000800
03FFFFFFFC00
020000000C00
060000000400
040000000600
0C0000000200
0C0000000300
080000000100
180000000180
100000000080
3000000000C0
200000000040
600000000060
400000000020
C00000000030
800000000030
0000000000E0
000000000180
000000000300
000000000400
000000000800
000000001800
000000001000
000000001000
000000003000
000000001000
000000001000
000000001800
000000000C18
0000000007F0
ENDCHAR
STARTCHAR 0105
ENCODING 261
SWIDTH 570 0
DWIDTH 38 0
BBX 28 49 4 -14
BITMAP
00078000
00FFF800
03800E00
0C000300
38000180
60000080
000000C0
00000040
00000060
00000060
00000020
00000020
00000020
00000020
00000020
00000020
003FFFE0
07FFFFE0
0C000020
10000020
20000020
60000020
40000020
40000020
C0000020
C0000060
C0000060
C00000E0
400000A0
600001A0
20000320
30000620
1C001C20
0780F020
01FFC060
000001C0
00000300
00000C00
00001800
00001000
00002000
00002000
00006000
00006000
00006000
00006000
00002010
00001830
00000FE0
ENDCHAR
STARTCHAR 0106
ENCODING 262
SWIDTH 705 0
DWIDTH 47 0
BBX 39 58 4 0
BITMAP
0000000700
0000000C00
0000001800
0000007000
000000C000
0000018000
0000030000
00000C0000
0000000000
0000000000
0000000000
00001FF000
0001FE7F00
00078001E0
001C000038
003000000C
00E0000006
0180000002
0300000000
0600000000
0C00000000
0800000000
1800000000
1000000000
3000000000
2000000000
6000000000
4000000000
4000000000
C000000000
C000000000
8000000000
8000000000
8000000000
8000000000
8000000000
8000000000
8000000000
C000000000
C000000000
4000000000
4000000000
6000000000
2000000000
2000000000
3000000000
1800000000
0800000000
0C00000000
0600000000
0300000000
0180000000
00C0000006
007000000C
0018000018
000F0000E0
0003E00780
00003FFC00
ENDCHAR
STARTCHAR 0107
ENCODING 263
SWIDTH 540 0
DWIDTH 36 0
BBX 29 48 4 0
BITMAP
00000700
00000E00
00001800
00003000
0000E000
00018000
00030000
000C0000
00000000
00000000
00000000
00000000
00000000
0003C000
003FFE00
00E00380
038000E0
06000030
0C000018
18000000
30000000
20000000
60000000
40000000
40000000
C0000000
80000000
80000000
80000000
80000000
80000000
80000000
80000000
80000000
80000000
C0000000
C0000000
40000000
60000000
20000000
30000000
18000000
08000018
06000030
03000060
01C001C0
00780F00
001FF800
ENDCHAR
STARTCHAR 0108
ENCODING 264
SWIDTH 705 0
DWIDTH 47 0
BBX 39 58 4 0
BITMAP
0000038000
000007C000
00000C6000
0000383000
0000601800
0000C00C00
0001800600
0003000100
0000000000
0000000000
0000000000
00001FF000
0001FE7F00
00078001E0
001C000038
003000000C
00E0000006
0180000002
0300000000
0600000000
0C00000000
0800000000
1800000000
1000000000
3000000000
2000000000
6000000000
4000000000
4000000000
C000000000
C000000000
8000000000
8000000000
8000000000
8000000000
8000000000
8000000000
8000000000
C000000000
C000000000
4000000000
4000000000
6000000000
2000000000
2000000000
3000000000
1800000000
0800000000
0C00000000
0600000000
0300000000
0180000000
00C0000006
007000000C
0018000018
000F0000E0
0003E00780
00003FFC00
ENDCHAR
STARTCHAR 0109
ENCODING 265
SWIDTH 540 0
DWIDTH 36 0
BBX 29 48 4 0
BITMAP
00038000
0006C000
000C6000
00183000
00301800
00C00C00
01800200
03000180
00000000
00000000
00000000
00000000
00000000
0003C000
003FFE00
00E00380
038000E0
06000030
0C000018
18000000
30000000
20000000
60000000
40000000
40000000
C0000000
80000000
80000000
80000000
80000000
80000000
80000000
80000000
80000000
80000000
C0000000
C0000000
40000000
60000000
20000000
30000000
18000000
08000018
06000030
03000060
01C001C0
00780F00
001FF800
ENDCHAR
STARTCHAR 010A
ENCODING 266
SWIDTH 705 0
DWIDTH 47 0
BBX 39 56 4 0
BITMAP
0000038000
0000078000
0000038000
0000000000
0000000000
0000000000
0000000000
0000000000
0000000000
00001FF000
0001FE7F00
00078001E0
001C000038
003000000C
00E0000006
0180000002
0300000000
0600000000
0C00000000
0800000000
1800000000
1000000000
3000000000
2000000000
6000000000
4000000000
4000000000
C000000000
C000000000
8000000000
8000000000
8000000000
8000000000
8000000000
8000000000
8000000000
C000000000
C000000000
4000000000
4000000000
6000000000
2000000000
2000000000
3000000000
1800000000
0800000000
0C00000000
0600000000
0300000000
0180000000
00C0000006
007000000C
0018000018
000F0000E0
0003E00780
00003FFC00
ENDCHAR
STARTCHAR 010B
ENCODING 267
SWIDTH 540 0
DWIDTH 36 0
BBX 29 46 4 0
BITMAP
00038000
00038000
00038000
00000000
00000000
00000000
00000000
00000000
00000000
00000000
00000000
0003C000
003FFE00
00E00380
038000E0
06000030
0C000018
18000000
30000000
20000000
60000000
40000000
40000000
C0000000
80000000
80000000
80000000
80000000
80000000
80000000
80000000
80000000
80000000
C0000000
C0000000
40000000
60000000
20000000
30000000
18000000
08000018
06000030
03000060
01C001C0
00780F00
001FF800
ENDCHAR
STARTCHAR 010C
ENCODING 268
SWIDTH 705 0
DWIDTH 47 0
BBX 39 58 4 0
BITMAP
0003000300
0001800600
0000600C00
0000301800
0000187000
00000CE000
0000078000
0000030000
0000000000
0000000000
0000000000
00001FF000
0001FE7F00
00078001E0
001C000038
003000000C
00E0000006
0180000002
0300000000
0600000000
0C00000000
0800000000
1800000000
1000000000
3000000000
2000000000
6000000000
4000000000
4000000000
C000000000
C000000000
8000000000
8000000000
8000000000
8000000000
8000000000
8000000000
8000000000
C000000000
C000000000
4000000000
4000000000
6000000000
2000000000
2000000000
3000000000
1800000000
0800000000
0C00000000
0600000000
0300000000
0180000000
00C0000006
007000000C
0018000018
000F0000E0
0003E00780
00003FFC00
ENDCHAR
STARTCHAR 010D
ENCODING 269
SWIDTH 540 0
DWIDTH 36 0
BBX 29 48 4 0
BITMAP
01000300
00C00600
00600C00
00301800
00183000
000CE000
0007C000
00038000
00000000
00000000
00000000
00000000
00000000
0003C000
003FFE00
00E00380
038000E0
06000030
0C000018
18000000
30000000
20000000
60000000
40000000
40000000
C0000000
80000000
80000000
80000000
80000000
80000000
80000000
80000000
80000000
80000000
C0000000
C0000000
40000000
60000000
20000000
30000000
18000000
08000018
06000030
03000060
01C001C0
00780F00
001FF800
ENDCHAR
STARTCHAR 010E
ENCODING 270
SWIDTH 825 0
DWIDTH 55 0
BBX 42 58 9 0
BITMAP
00C000C00000
006001800000
003003000000
001C06000000
00061C000000
000330000000
0001E0000000
0000C0000000
000000000000
000000000000
000000000000
FFFFF8000000
FFFFFFC00000
800000780000
8000000E0000
800000030000
80000001C000
800000006000
800000003000
800000001800
800000000C00
800000000400
800000000600
800000000300
800000000100
800000000100
800000000180
800000000080
800000000080
8000000000C0
8000000000C0
800000000040
800000000040
800000000040
800000000040
800000000040
800000000040
800000000040
8000000000C0
8000000000C0
800000000080
800000000080
800000000080
800000000180
800000000100
800000000300
800000000200
800000000600
800000000C00
800000001800
800000003000
800000006000
80000000C000
800000038000
800000060000
800000380000
800007E00000
FFFFFE000000
ENDCHAR
STARTCHAR 010F
ENCODING 271
SWIDTH 660 0
DWIDTH 44 0
BBX 41 51 4 0
BITMAP
000000000080
000000000080
000000008080
000000008080
000000008080
000000008080
000000008080
000000008080
000000008080
000000008080
000000008080
000000008080
000000008000
000000008000
000000008000
000000008000
0003E0008000
003FFE008000
00E003808000
038000C08000
060000208000
0C0000108000
180000088000
100000048000
200000068000
600000028000
400000038000
400000018000
C00000018000
800000018000
800000018000
800000008000
800000008000
800000008000
800000008000
800000008000
800000008000
800000018000
C00000018000
C00000018000
400000038000
600000028000
200000028000
300000048000
1800000C8000
080000188000
060000308000
030000608000
01C001C08000
00780F008000
001FF8008000
ENDCHAR
STARTCHAR 0110
ENCODING 272
SWIDTH 825 0
DWIDTH 55 0
BBX 50 47 1 0
BITMAP
00FFFFF8000000
00FFFFFFC00000
00800000780000
008000000E0000
00800000030000
0080000001C000
00800000006000
00800000003000
00800000001800
00800000000C00
00800000000400
00800000000600
00800000000300
00800000000100
00800000000100
00800000000180
00800000000080
00800000000080
008000000000C0
008000000000C0
00800000000040
00800000000040
00800000000040
FFFFFF00000040
00800000000040
00800000000040
00800000000040
008000000000C0
008000000000C0
00800000000080
00800000000080
00800000000080
00800000000180
00800000000100
00800000000300
00800000000200
00800000000600
00800000000C00
00800000001800
00800000003000
00800000006000
0080000000C000
00800000038000
00800000060000
00800000380000
00800007E00000
00FFFFFE000000
ENDCHAR
STARTCHAR 0111
ENCODING 273
SWIDTH 660 0
DWIDTH 44 0
BBX 41 49 4 0
BITMAP
000000008000
000000008000
000000008000
000000008000
000000008000
000000008000
0000FFFFFF80
0000FFFFFF80
000000008000
000000008000
000000008000
000000008000
000000008000
000000008000
0003E0008000
003FFE008000
00E003808000
038000C08000
060000208000
0C0000108000
180000088000
100000048000
200000068000
600000028000
400000038000
400000018000
C00000018000
800000018000
800000018000
800000008000
800000008000
800000008000
800000008000
800000008000
800000008000
800000018000
C00000018000
C00000018000
400000038000
600000028000
200000028000
300000048000
1800000C8000
080000188000
060000308000
030000608000
01C001C08000
00780F008000
001FF8008000
ENDCHAR
STARTCHAR 0112
ENCODING 274
SWIDTH 660 0
DWIDTH 44 0
BBX 31 55 9 0
BITMAP
03FFFF00
03FFFF00
00000000
00000000
00000000
00000000
00000000
00000000
FFFFFFFC
FFFFFFFC
80000000
80000000
80000000
80000000
80000000
80000000
80000000
80000000
80000000
80000000
80000000
80000000
80000000
80000000
80000000
80000000
80000000
80000000
80000000
80000000
80000000
FFFFFFE0
80000000
80000000
80000000
80000000
80000000
80000000
80000000
80000000
80000000
80000000
80000000
80000000
80000000
80000000
80000000
80000000
80000000
80000000
80000000
80000000
80000000
80000000
FFFFFFFE
ENDCHAR
STARTCHAR 0113
ENCODING 275
SWIDTH 585 0
DWIDTH 39 0
BBX 32 45 4 0
BITMAP
01FFFF80
01FFFF80
00000000
00000000
00000000
00000000
00000000
00000000
00000000
00000000
0007C000
007FFC00
01C00700
03000180
060000C0
0C000060
18000030
30000018
20000008
6000000C
40000004
C0000006
C0000002
80000002
80000002
80000002
FFFFFFFF
FFFFFFFF
80000000
80000000
80000000
80000000
80000000
C0000000
40000000
60000000
20000000
30000000
18000000
08000008
06000018
03000070
01C000C0
00780700
000FFC00
ENDCHAR
STARTCHAR 0114
ENCODING 276
SWIDTH 660 0
DWIDTH 44 0
BBX 31 58 9 0
BITMAP
02000300
03000300
01000200
01000600
00800400
00601800
003FF000
00078000
00000000
00000000
00000000
FFFFFFFC
FFFFFFFC
80000000
80000000
80000000
80000000
80000000
80000000
80000000
80000000
80000000
80000000
80000000
80000000
80000000
80000000
80000000
80000000
80000000
80000000
80000000
80000000
80000000
FFFFFFE0
80000000
80000000
80000000
80000000
80000000
80000000
80000000
80000000
80000000
80000000
80000000
80000000
80000000
80000000
80000000
80000000
80000000
80000000
80000000
80000000
80000000
80000000
FFFFFFFE
ENDCHAR
STARTCHAR 0115
ENCODING 277
SWIDTH 585 0
DWIDTH 39 0
BBX 32 48 4 0
BITMAP
01000100
01000100
01800100
00800300
00C00600
00600C00
001FF800
0007C000
00000000
00000000
00000000
00000000
00000000
0007C000
007FFC00
01C00700
03000180
060000C0
0C000060
18000030
30000018
20000008
6000000C
40000004
C0000006
C0000002
80000002
80000002
80000002
FFFFFFFF
FFFFFFFF
80000000
80000000
80000000
80000000
80000000
C0000000
40000000
60000000
20000000
30000000
18000000
08000008
06000018
03000070
01C000C0
00780700
000FFC00
ENDCHAR
STARTCHAR 0116
ENCODING 278
SWIDTH 660 0
DWIDTH 44 0
BBX 31 56 9 0
BITMAP
00030000
00078000
00030000
00000000
00000000
00000000
00000000
00000000
00000000
FFFFFFFC
FFFFFFFC
80000000
80000000
80000000
80000000
80000000
80000000
80000000
80000000
80000000
80000000
80000000
80000000
80000000
80000000
80000000
80000000
80000000
80000000
80000000
80000000
80000000
FFFFFFE0
80000000
80000000
80000000
80000000
80000000
80000000
80000000
80000000
80000000
80000000
80000000
80000000
80000000
80000000
80000000
80000000
80000000
80000000
80000000
80000000
80000000
80000000
FFFFFFFE
ENDCHAR
STARTCHAR 0117
ENCODING 279
SWIDTH 585 0
DWIDTH 39 0
BBX 32 46 4 0
BITMAP
00038000
00038000
00038000
00000000
00000000
00000000
00000000
00000000
00000000
00000000
00000000
0007C000
007FFC00
01C00700
03000180
060000C0
0C000060
18000030
30000018
20000008
6000000C
40000004
C0000006
C0000002
80000002
80000002
80000002
FFFFFFFF
FFFFFFFF
80000000
80000000
80000000
80000000
80000000
C0000000
40000000
60000000
20000000
30000000
18000000
08000008
06000018
03000070
01C000C0
00780700
000FFC00
ENDCHAR
STARTCHAR 0118
ENCODING 280
SWIDTH 660 0
DWIDTH 44 0
BBX 32 61 9 -14
BITMAP
FFFFFFFC
FFFFFFFC
80000000
80000000
80000000
80000000
80000000
80000000
80000000
80000000
80000000
80000000
80000000
80000000
80000000
80000000
80000000
80000000
80000000
80000000
80000000
80000000
80000000
FFFFFFE0
80000000
80000000
80000000
80000000
80000000
80000000
80000000
80000000
80000000
80000000
80000000
80000000
80000000
80000000
80000000
80000000
80000000
80000000
80000000
80000000
80000000
80000000
FFFFFFFE
0000001C
00000030
000000C0
00000180
00000300
00000200
00000200
00000600
00000400
00000600
00000600
00000200
00000183
000000FC
ENDCHAR
STARTCHAR 0119
ENCODING 281
SWIDTH 585 0
DWIDTH 39 0
BBX 32 49 4 -14
BITMAP
0007C000
007FFC00
01C00700
03000180
060000C0
0C000060
18000030
30000018
20000008
6000000C
40000004
C0000006
C0000002
80000002
80000002
80000002
FFFFFFFF
FFFFFFFF
80000000
80000000
80000000
80000000
80000000
C0000000
40000000
60000000
20000000
30000000
18000000
08000008
06000018
03000060
01C000C0
00780780
000FFD00
00000200
00000400
00000C00
00001800
00001000
00003000
00003000
00002000
00002000
00002000
00003000
00001000
00001C38
000007E0
ENDCHAR
STARTCHAR 011A
ENCODING 282
SWIDTH 660 0
DWIDTH 44 0
BBX 31 58 9 0
BITMAP
03000300
01800600
00C00C00
00603000
00386000
000CC000
00078000
00030000
00000000
00000000
00000000
FFFFFFFC
FFFFFFFC
80000000
80000000
80000000
80000000
80000000
80000000
80000000
80000000
80000000
80000000
80000000
80000000
80000000
80000000
80000000
80000000
80000000
80000000
80000000
80000000
80000000
FFFFFFE0
80000000
80000000
80000000
80000000
80000000
80000000
80000000
80000000
80000000
80000000
80000000
80000000
80000000
80000000
80000000
80000000
80000000
80000000
80000000
80000000
80000000
80000000
FFFFFFFE
ENDCHAR
STARTCHAR 011B
ENCODING 283
SWIDTH 585 0
DWIDTH 39 0
BBX 32 48 4 0
BITMAP
01800100
00C00600
00600C00
00301800
00183000
000E6000
0007C000
00038000
00000000
00000000
00000000
00000000
00000000
0007C000
007FFC00
01C00700
03000180
060000C0
0C000060
18000030
30000018
20000008
6000000C
40000004
C0000006
C0000002
80000002
80000002
80000002
FFFFFFFF
FFFFFFFF
80000000
80000000
80000000
80000000
80000000
C0000000
40000000
60000000
20000000
30000000
18000000
08000008
06000018
03000070
01C000C0
00780700
000FFC00
ENDCHAR
STARTCHAR 011C
ENCODING 284
SWIDTH 765 0
DWIDTH 51 0
BBX 40 58 4 0
BITMAP
0000070000
00000F8000
000018C000
0000306000
0000601800
0000C00C00
0001800600
0003000300
0000000000
0000000000
0000000000
00000FF800
0000FE7F80
00078000E0
001C000038
003000000C
00E0000003
0180000001
0300000000
0600000000
0C00000000
0800000000
1800000000
1000000000
3000000000
2000000000
6000000000
4000000000
4000000000
C000000000
C000000000
8000000000
8000000000
8000000000
8000000000
8000000001
8000000001
8000000001
C000000001
C000000001
4000000001
4000000001
6000000001
2000000001
2000000001
3000000001
1800000001
0800000001
0C00000001
0600000001
0300000001
0180000001
00C0000003
0070000006
0018000018
000F000070
0001E00780
00003FFC00
ENDCHAR
STARTCHAR 011D
ENCODING 285
SWIDTH 675 0
DWIDTH 45 0
BBX 33 61 4 -13
BITMAP
0000C00000
0003F00000
0007380000
000C0C0000
0018060000
0030030000
0060018000
00C000C000
0000000000
0000000000
0000000000
0000000000
0000000000
0003E00000
003FFE0080
00E0038080
038000E080
0600003080
0C00001880
1800000C80
3000000680
2000000280
6000000380
4000000180
C000000180
C000000080
8000000080
8000000080
8000000080
8000000080
8000000080
8000000080
8000000080
8000000080
8000000080
C000000180
4000000180
6000000380
2000000280
3000000680
1800000C80
0C00001880
0600003080
0300006080
00C0018080
003E7F0080
0007F00080
0000000080
0000000080
0000000080
0000000080
0000000180
0000000100
0000000100
0000000200
3000000600
1C00000C00
0600001800
03C0007000
00F803C000
000FFE0000
ENDCHAR
STARTCHAR 011E
ENCODING 286
SWIDTH 765 0
DWIDTH 51 0
BBX 40 58 4 0
BITMAP
0002000300
0002000200
0003000200
0001000600
0001800C00
0000E01800
00003FF000
00000F8000
0000000000
0000000000
0000000000
00000FF800
0000FE7F80
00078000E0
001C000038
003000000C
00E0000003
0180000001
0300000000
0600000000
0C00000000
0800000000
1800000000
1000000000
3000000000
2000000000
6000000000
4000000000
4000000000
C000000000
C000000000
8000000000
8000000000
8000000000
8000000000
8000000001
8000000001
8000000001
C000000001
C000000001
4000000001
4000000001
6000000001
2000000001
2000000001
3000000001
1800000001
0800000001
0C00000001
0600000001
0300000001
0180000001
00C0000003
0070000006
0018000018
000F000070
0001E00780
00003FFC00
ENDCHAR
STARTCHAR 011F
ENCODING 287
SWIDTH 675 0
DWIDTH 45 0
BBX 33 61 4 -13
BITMAP
008000C000
00C000C000
0040008000
0060018000
0020010000
0018060000
000FFC0000
0001E00000
0000000000
0000000000
0000000000
0000000000
0000000000
0003E00000
003FFE0080
00E0038080
038000E080
0600003080
0C00001880
1800000C80
3000000680
2000000280
6000000380
4000000180
C000000180
C000000080
8000000080
8000000080
8000000080
8000000080
8000000080
8000000080
8000000080
8000000080
8000000080
C000000180
4000000180
6000000380
2000000280
3000000680
1800000C80
0C00001880
0600003080
0300006080
00C0018080
003E7F0080
0007F00080
0000000080
0000000080
0000000080
0000000080
0000000180
0000000100
0000000100
0000000200
3000000600
1C00000C00
0600001800
03C0007000
00F803C000
000FFE0000
ENDCHAR
STARTCHAR 0120
ENCODING 288
SWIDTH 765 0
DWIDTH 51 0
BBX 40 56 4 0
BITMAP
0000070000
0000078000
0000070000
0000000000
0000000000
0000000000
0000000000
0000000000
0000000000
00000FF800
0000FE7F80
00078000E0
001C000038
003000000C
00E0000003
0180000001
0300000000
0600000000
0C00000000
0800000000
1800000000
1000000000
3000000000
2000000000
6000000000
4000000000
4000000000
C000000000
C000000000
8000000000
8000000000
8000000000
8000000000
8000000001
8000000001
8000000001
C000000001
C000000001
4000000001
4000000001
6000000001
2000000001
2000000001
3000000001
1800000001
0800000001
0C00000001
0600000001
0300000001
0180000001
00C0000003
0070000006
0018000018
000F000070
0001E00780
00003FFC00
ENDCHAR
STARTCHAR 0121
ENCODING 289
SWIDTH 675 0
DWIDTH 45 0
BBX 33 59 4 -13
BITMAP
0000C00000
0001E00000
0000C00000
0000000000
0000000000
0000000000
0000000000
0000000000
0000000000
0000000000
0000000000
0003E00000
003FFE0080
00E0038080
038000E080
0600003080
0C00001880
1800000C80
3000000680
2000000280
6000000380
4000000180
C000000180
C000000080
8000000080
8000000080
8000000080
8000000080
8000000080
8000000080
8000000080
8000000080
8000000080
C000000180
4000000180
6000000380
2000000280
3000000680
1800000C80
0C00001880
0600003080
0300006080
00C0018080
003E7F0080
0007F00080
0000000080
0000000080
0000000080
0000000080
0000000180
0000000100
0000000100
0000000200
3000000600
1C00000C00
0600001800
03C0007000
00F803C000
000FFE0000
ENDCHAR
STARTCHAR 0122
ENCODING 290
SWIDTH 765 0
DWIDTH 51 0
BBX 40 64 4 -17
BITMAP
00000FF800
0000FE7F80
00078000E0
001C000038
003000000C
00E0000003
0180000001
0300000000
0600000000
0C00000000
0800000000
1800000000
1000000000
3000000000
2000000000
6000000000
4000000000
4000000000
C000000000
C000000000
8000000000
8000000000
8000000000
8000000000
8000000001
8000000001
8000000001
C000000001
C000000001
4000000001
4000000001
6000000001
2000000001
2000000001
3000000001
1800000001
0800000001
0C00000001
0600000001
0300000001
0180000001
00C0000003
0070000006
0018000018
000F000070
0001E00780
00003FFC00
0000000000
0000000000
0000000000
0000000000
0000000000
0000000000
0000000000
0000000000
0000030000
0000070000
0000078000
0000030000
0000030000
0000030000
0000020000
0000020000
0000020000
ENDCHAR
STARTCHAR 0123
ENCODING 291
SWIDTH 675 0
DWIDTH 45 0
BBX 33 64 4 -13
BITMAP
0000600000
0000400000
0000400000
0000400000
0000C00000
0000C00000
0000800000
0001C00000
0001E00000
0001E00000
0000C00000
0000000000
0000000000
0000000000
0000000000
0000000000
0003E00000
003FFE0080
00E0038080
038000E080
0600003080
0C00001880
1800000C80
3000000680
2000000280
6000000380
4000000180
C000000180
C000000080
8000000080
8000000080
8000000080
8000000080
8000000080
8000000080
8000000080
8000000080
8000000080
C000000180
4000000180
6000000380
2000000280
3000000680
1800000C80
0C00001880
0600003080
0300006080
00C0018080
003E7F0080
0007F00080
0000000080
0000000080
0000000080
0000000080
0000000180
0000000100
0000000100
0000000200
3000000600
1C00000C00
0600001800
03C0007000
00F803C000
000FFE0000
ENDCHAR
STARTCHAR 0124
ENCODING 292
SWIDTH 810 0
DWIDTH 54 0
BBX 37 58 9 0
BITMAP
0000700000
0000F80000
00018C0000
0007060000
000C030000
0018018000
003000C000
0060002000
0000000000
0000000000
0000000000
8000000018
8000000018
8000000018
8000000018
8000000018
8000000018
8000000018
8000000018
8000000018
8000000018
8000000018
8000000018
8000000018
8000000018
8000000018
8000000018
8000000018
8000000018
8000000018
8000000018
8000000018
8000000018
8000000018
FFFFFFFFF8
8000000018
8000000018
8000000018
8000000018
8000000018
8000000018
8000000018
8000000018
8000000018
8000000018
8000000018
8000000018
8000000018
8000000018
8000000018
8000000018
8000000018
8000000018
8000000018
8000000018
8000000018
8000000018
8000000018
ENDCHAR
STARTCHAR 0125
ENCODING 293
SWIDTH 660 0
DWIDTH 44 0
BBX 38 61 -1 0
BITMAP
00E0000000
01F0000000
0318000000
060C000000
0C06000000
1803000000
6001800000
C000C00000
0000000000
0000000000
0000000000
0000000000
0040000000
0040000000
0040000000
0040000000
0040000000
0040000000
0040000000
0040000000
0040000000
0040000000
0040000000
0040000000
0040000000
0040000000
004003C000
00403FFE00
0040E00380
00438000C0
0046000060
004C000030
0048000010
0050000018
0070000008
006000000C
006000000C
0060000004
0040000004
0040000004
0040000004
0040000004
0040000004
0040000004
0040000004
0040000004
0040000004
0040000004
0040000004
0040000004
0040000004
0040000004
0040000004
0040000004
0040000004
0040000004
0040000004
0040000004
0040000004
0040000004
0040000004
ENDCHAR
STARTCHAR 0126
ENCODING 294
SWIDTH 810 0
DWIDTH 54 0
BBX 52 47 1 0
BITMAP
00800000001800
00800000001800
00800000001800
00800000001800
00800000001800
00800000001800
00800000001800
00800000001800
00800000001800
00800000001800
FFFFFFFFFFFFF0
FFFFFFFFFFFFF0
00800000001800
00800000001800
00800000001800
00800000001800
00800000001800
00800000001800
00800000001800
00800000001800
00800000001800
00800000001800
00800000001800
00FFFFFFFFF800
00800000001800
00800000001800
00800000001800
00800000001800
00800000001800
00800000001800
00800000001800
00800000001800
00800000001800
00800000001800
00800000001800
00800000001800
00800000001800
00800000001800
00800000001800
00800000001800
00800000001800
00800000001800
00800000001800
00800000001800
00800000001800
00800000001800
00800000001800
ENDCHAR
STARTCHAR 0127
ENCODING 295
SWIDTH 660 0
DWIDTH 44 0
BBX 37 49 0 0
BITMAP
0080000000
0080000000
0080000000
0080000000
0080000000
0080000000
FFFFFF8000
FFFFFF8000
0080000000
0080000000
0080000000
0080000000
0080000000
0080000000
0080078000
00807FFC00
0081C00700
0087000180
008C0000C0
0098000060
0090000020
00A0000030
00E0000010
00C0000018
00C0000018
00C0000008
0080000008
0080000008
0080000008
0080000008
0080000008
0080000008
0080000008
0080000008
0080000008
0080000008
0080000008
0080000008
0080000008
0080000008
0080000008
0080000008
0080000008
0080000008
0080000008
0080000008
0080000008
0080000008
0080000008
ENDCHAR
STARTCHAR 0128
ENCODING 296
SWIDTH 285 0
DWIDTH 19 0
BBX 19 57 0 0
BITMAP
1F0060
318040
60C040
4060C0
403F80
C00E00
000000
000000
000000
000000
004000
004000
004000
004000
004000
004000
004000
004000
004000
004000
004000
004000
004000
004000
004000
004000
004000
004000
004000
004000
004000
004000
004000
004000
004000
004000
004000
004000
004000
004000
004000
004000
004000
004000
004000
004000
004000
004000
004000
004000
004000
004000
004000
004000
004000
004000
004000
ENDCHAR
STARTCHAR 0129
ENCODING 297
SWIDTH 240 0
DWIDTH 16 0
BBX 15 47 1 0
BITMAP
3C06
6606
C304
8184
80FC
8070
0000
0000
0000
0000
0000
0000
0000
0100
0100
0100
0100
0100
0100
0100
0100
0100
0100
0100
0100
0100
0100
0100
0100
0100
0100
0100
0100
0100
0100
0100
0100
0100
0100
0100
0100
0100
0100
0100
0100
0100
0100
ENDCHAR
STARTCHAR 012A
ENCODING 298
SWIDTH 285 0
DWIDTH 19 0
BBX 15 55 2 0
BITMAP
FFFE
0000
0000
0000
0000
0000
0000
0000
0100
0100
0100
0100
0100
0100
0100
0100
0100
0100
0100
0100
0100
0100
0100
0100
0100
0100
0100
0100
0100
0100
0100
0100
0100
0100
0100
0100
0100
0100
0100
0100
0100
0100
0100
0100
0100
0100
0100
0100
0100
0100
0100
0100
0100
0100
0100
ENDCHAR
STARTCHAR 012B
ENCODING 299
SWIDTH 240 0
DWIDTH 16 0
BBX 15 45 1 0
BITMAP
FFFE
FFFE
0000
0000
0000
0000
0000
0000
0000
0000
0000
0100
0100
0100
0100
0100
0100
0100
0100
0100
0100
0100
0100
0100
0100
0100
0100
0100
0100
0100
0100
0100
0100
0100
0100
0100
0100
0100
0100
0100
0100
0100
0100
0100
0100
ENDCHAR
STARTCHAR 012C
ENCODING 300
SWIDTH 285 0
DWIDTH 19 0
BBX 17 58 1 0
BITMAP
800080
800080
800080
400180
600300
300600
0FF800
03E000
000000
000000
000000
008000
008000
008000
008000
008000
008000
008000
008000
008000
008000
008000
008000
008000
008000
008000
008000
008000
008000
008000
008000
008000
008000
008000
008000
008000
008000
008000
008000
008000
008000
008000
008000
008000
008000
008000
008000
008000
008000
008000
008000
008000
008000
008000
008000
008000
008000
008000
ENDCHAR
STARTCHAR 012D
ENCODING 301
SWIDTH 240 0
DWIDTH 16 0
BBX 14 48 1 0
BITMAP
8004
C004
C004
400C
6008
3018
1FF0
0780
0000
0000
0000
0000
0000
0000
0100
0100
0100
0100
0100
0100
0100
0100
0100
0100
0100
0100
0100
0100
0100
0100
0100
0100
0100
0100
0100
0100
0100
0100
0100
0100
0100
0100
0100
0100
0100
0100
0100
0100
ENDCHAR
STARTCHAR 012E
ENCODING 302
SWIDTH 285 0
DWIDTH 19 0
BBX 8 61 5 -14
BITMAP
08
08
08
08
08
08
08
08
08
08
08
08
08
08
08
08
08
08
08
08
08
08
08
08
08
08
08
08
08
08
08
08
08
08
08
08
08
08
08
08
08
08
08
08
08
08
08
18
30
20
60
40
40
C0
C0
C0
C0
C0
40
63
3E
ENDCHAR
STARTCHAR 012F
ENCODING 303
SWIDTH 240 0
DWIDTH 16 0
BBX 8 61 4 -14
BITMAP
1C
1C
1C
00
00
00
00
00
00
00
00
00
00
08
08
08
08
08
08
08
08
08
08
08
08
08
08
08
08
08
08
08
08
08
08
08
08
08
08
08
08
08
08
08
08
08
08
18
30
20
40
40
C0
C0
80
80
80
C0
C0
63
3E
ENDCHAR
STARTCHAR 0130
ENCODING 304
SWIDTH 285 0
DWIDTH 19 0
BBX 3 56 8 0
BITMAP
E0
E0
E0
00
00
00
00
00
00
40
40
40
40
40
40
40
40
40
40
40
40
40
40
40
40
40
40
40
40
40
40
40
40
40
40
40
40
40
40
40
40
40
40
40
40
40
40
40
40
40
40
40
40
40
40
40
ENDCHAR
STARTCHAR 0131
ENCODING 305
SWIDTH 240 0
DWIDTH 16 0
BBX 1 34 8 0
BITMAP
80
80
80
80
80
80
80
80
80
80
80
80
80
80
80
80
80
80
80
80
80
80
80
80
80
80
80
80
80
80
80
80
80
80
ENDCHAR
STARTCHAR 0132
ENCODING 306
SWIDTH 705 0
DWIDTH 47 0
BBX 31 47 8 0
BITMAP
C0000002
C0000002
C0000002
C0000002
C0000002
C0000002
C0000002
C0000002
C0000002
C0000002
C0000002
C0000002
C0000002
C0000002
C0000002
C0000002
C0000002
C0000002
C0000002
C0000002
C0000002
C0000002
C0000002
C0000002
C0000002
C0000002
C0000002
C0000002
00000002
00000002
00000002
00000002
00000006
00000006
00000004
00000004
0000000C
00000008
00000008
00000010
00000030
00000060
C00000C0
70000180
1C000700
07803C00
00FFE000
ENDCHAR
STARTCHAR 0133
ENCODING 307
SWIDTH 495 0
DWIDTH 33 0
BBX 20 60 7 -13
BITMAP
E00070
E00070
E00070
000000
000000
000000
000000
000000
000000
000000
000000
000000
000000
400020
400020
400020
400020
400020
400020
400020
400020
400020
400020
400020
400020
400020
400020
400020
400020
400020
400020
400020
400020
400020
400020
400020
400020
400020
400020
400020
400020
400020
400020
400020
400020
400020
400020
000020
000020
000020
000020
000020
000020
000060
000060
000040
0000C0
0C0180
070700
01FE00
ENDCHAR
STARTCHAR 0134
ENCODING 308
SWIDTH 465 0
DWIDTH 31 0
BBX 23 58 0 0
BITMAP
000600
001F00
0039C0
006060
00C030
018018
03000C
060006
000000
000000
000000
07FFFE
07FFFE
000002
000002
000002
000002
000002
000002
000002
000002
000002
000002
000002
000002
000002
000002
000002
000002
000002
000002
000002
000002
000002
000002
000002
000002
000002
000002
000002
000002
000002
000002
000002
000002
000002
000002
000002
000002
000002
000006
C00004
40000C
200008
180018
0C0030
0781E0
00FF00
ENDCHAR
STARTCHAR 0135
ENCODING 309
SWIDTH 255 0
DWIDTH 17 0
BBX 22 61 -6 -13
BITMAP
000700
000580
000CC0
001860
003030
006010
00C018
01800C
000000
000000
000000
000000
000000
000000
000200
000200
000200
000200
000200
000200
000200
000200
000200
000200
000200
000200
000200
000200
000200
000200
000200
000200
000200
000200
000200
000200
000200
000200
000200
000200
000200
000200
000200
000200
000200
000200
000200
000200
000200
000200
000200
000200
000200
000200
000200
000200
000600
000400
C00800
707000
1FE000
ENDCHAR
STARTCHAR 0136
ENCODING 310
SWIDTH 690 0
DWIDTH 46 0
BBX 36 64 9 -17
BITMAP
8000000040
8000000080
8000000180
8000000300
8000000600
8000000C00
8000001800
8000003000
8000006000
800000C000
8000018000
8000030000
8000060000
80000C0000
8000180000
8000300000
8000600000
8000C00000
8001800000
8003000000
8006000000
800C000000
801C000000
8032000000
8063000000
80C1800000
8180C00000
8300600000
8600300000
8C00180000
98000C0000
B000040000
E000020000
C000030000
8000018000
800000C000
8000006000
8000003000
8000001800
8000000C00
8000000400
8000000600
8000000300
8000000180
80000000C0
8000000060
8000000030
0000000000
0000000000
0000000000
0000000000
0000000000
0000000000
0000000000
0000000000
0001800000
0003800000
0003800000
0001800000
0001800000
0001800000
0001000000
0001000000
0003000000
ENDCHAR
STARTCHAR 0137
ENCODING 311
SWIDTH 570 0
DWIDTH 38 0
BBX 28 66 8 -17
BITMAP
80000000
80000000
80000000
80000000
80000000
80000000
80000000
80000000
80000000
80000000
80000000
80000000
80000000
80000000
80000000
800000E0
80000180
80000300
80000600
80000C00
80001800
80003000
80006000
80018000
80030000
80060000
800C0000
80180000
80300000
80680000
80CC0000
81860000
82030000
8C010000
98008000
B000C000
E0006000
C0003000
80001000
80001800
80000C00
80000600
80000300
80000100
80000180
800000C0
80000060
80000030
80000010
00000000
00000000
00000000
00000000
00000000
00000000
00000000
00000000
00080000
001C0000
001C0000
000C0000
000C0000
00080000
00080000
00180000
00180000
ENDCHAR
STARTCHAR 0138
ENCODING 312
SWIDTH 555 0
DWIDTH 37 0
BBX 28 34 8 0
BITMAP
800000E0
80000180
80000300
80000600
80000C00
80001800
80003000
80006000
80018000
80030000
80060000
800C0000
80180000
80300000
80680000
80CC0000
81860000
82030000
8C010000
98008000
B000C000
E0006000
C0003000
80001000
80001800
80000C00
80000600
80000300
80000100
80000180
800000C0
80000060
80000030
80000010
ENDCHAR
STARTCHAR 0139
ENCODING 313
SWIDTH 570 0
DWIDTH 38 0
BBX 31 58 7 0
BITMAP
00E00000
01C00000
03000000
06000000
1C000000
30000000
60000000
C0000000
00000000
00000000
00000000
20000000
20000000
20000000
20000000
20000000
20000000
20000000
20000000
20000000
20000000
20000000
20000000
20000000
20000000
20000000
20000000
20000000
20000000
20000000
20000000
20000000
20000000
20000000
20000000
20000000
20000000
20000000
20000000
20000000
20000000
20000000
20000000
20000000
20000000
20000000
20000000
20000000
20000000
20000000
20000000
20000000
20000000
20000000
20000000
20000000
20000000
3FFFFFFE
ENDCHAR
STARTCHAR 013A
ENCODING 314
SWIDTH 240 0
DWIDTH 16 0
BBX 12 63 5 0
BITMAP
0070
00E0
0180
0700
0C00
1800
3000
C000
0000
0000
0000
0000
0000
0000
1000
1000
1000
1000
1000
1000
1000
1000
1000
1000
1000
1000
1000
1000
1000
1000
1000
1000
1000
1000
1000
1000
1000
1000
1000
1000
1000
1000
1000
1000
1000
1000
1000
1000
1000
1000
1000
1000
1000
1000
1000
1000
1000
1000
1000
1000
1000
1000
1000
ENDCHAR
STARTCHAR 013B
ENCODING 315
SWIDTH 570 0
DWIDTH 38 0
BBX 29 64 9 -17
BITMAP
80000000
80000000
80000000
80000000
80000000
80000000
80000000
80000000
80000000
80000000
80000000
80000000
80000000
80000000
80000000
80000000
80000000
80000000
80000000
80000000
80000000
80000000
80000000
80000000
80000000
80000000
80000000
80000000
80000000
80000000
80000000
80000000
80000000
80000000
80000000
80000000
80000000
80000000
80000000
80000000
80000000
80000000
80000000
80000000
80000000
80000000
FFFFFFF8
00000000
00000000
00000000
00000000
00000000
00000000
00000000
00000000
00030000
00078000
00078000
00038000
00010000
00010000
00030000
00020000
00020000
ENDCHAR
STARTCHAR 013C
ENCODING 316
SWIDTH 240 0
DWIDTH 16 0
BBX 3 66 7 -17
BITMAP
40
40
40
40
40
40
40
40
40
40
40
40
40
40
40
40
40
40
40
40
40
40
40
40
40
40
40
40
40
40
40
40
40
40
40
40
40
40
40
40
40
40
40
40
40
40
40
40
40
00
00
00
00
00
00
00
00
C0
E0
E0
E0
60
40
40
C0
80
ENDCHAR
STARTCHAR 013D
ENCODING 317
SWIDTH 570 0
DWIDTH 38 0
BBX 29 48 9 0
BITMAP
00000400
80000400
80000400
80000400
80000400
80000400
80000400
80000400
80000400
80000400
80000400
80000400
80000000
80000000
80000000
80000000
80000000
80000000
80000000
80000000
80000000
80000000
80000000
80000000
80000000
80000000
80000000
80000000
80000000
80000000
80000000
80000000
80000000
80000000
80000000
80000000
80000000
80000000
80000000
80000000
80000000
80000000
80000000
80000000
80000000
80000000
80000000
FFFFFFF8
ENDCHAR
STARTCHAR 013E
ENCODING 318
SWIDTH 240 0
DWIDTH 16 0
BBX 9 51 8 0
BITMAP
0080
0080
8080
8080
8080
8080
8080
8080
8080
8080
8080
8080
8000
8000
8000
8000
8000
8000
8000
8000
8000
8000
8000
8000
8000
8000
8000
8000
8000
8000
8000
8000
8000
8000
8000
8000
8000
8000
8000
8000
8000
8000
8000
8000
8000
8000
8000
8000
8000
8000
8000
ENDCHAR
STARTCHAR 013F
ENCODING 319
SWIDTH 570 0
DWIDTH 38 0
BBX 29 47 9 0
BITMAP
80000000
80000000
80000000
80000000
80000000
80000000
80000000
80000000
80000000
80000000
80000000
80000000
80000000
80000000
80000000
80000000
80000000
80000000
80000000
80000000
80000000
80001800
80003C00
80003C00
80001800
80000000
80000000
80000000
80000000
80000000
80000000
80000000
80000000
80000000
80000000
80000000
80000000
80000000
80000000
80000000
80000000
80000000
80000000
80000000
80000000
80000000
FFFFFFF8
ENDCHAR
STARTCHAR 0140
ENCODING 320
SWIDTH 240 0
DWIDTH 16 0
BBX 10 49 8 0
BITMAP
8000
8000
8000
8000
8000
8000
8000
8000
8000
8000
8000
8000
8000
8000
8000
8000
8000
8000
8000
8000
8000
8000
8000
8000
81C0
81C0
81C0
8000
8000
8000
8000
8000
8000
8000
8000
8000
8000
8000
8000
8000
8000
8000
8000
8000
8000
8000
8000
8000
8000
ENDCHAR
STARTCHAR 0141
ENCODING 321
SWIDTH 570 0
DWIDTH 38 0
BBX 35 47 3 0
BITMAP
0200000000
0200000000
0200000000
0200000000
0200000000
0200000000
0200000000
0200000000
0200000000
0200000000
0200000000
0200000000
0200000000
0200000000
0200000000
0200000000
0203000000
0206000000
020C000000
0230000000
0260000000
02C0000000
0300000000
0600000000
1E00000000
3200000000
6200000000
8200000000
0200000000
0200000000
0200000000
0200000000
0200000000
0200000000
0200000000
0200000000
0200000000
0200000000
0200000000
0200000000
0200000000
0200000000
0200000000
0200000000
0200000000
0200000000
03FFFFFFE0
ENDCHAR
STARTCHAR 0142
ENCODING 322
SWIDTH 240 0
DWIDTH 16 0
BBX 13 49 2 0
BITMAP
0200
0200
0200
0200
0200
0200
0200
0200
0200
0200
0200
0200
0200
0200
0200
0200
0200
0200
0200
0200
0200
0218
0230
02C0
0380
0300
0E00
1A00
6200
C200
8200
0200
0200
0200
0200
0200
0200
0200
0200
0200
0200
0200
0200
0200
0200
0200
0200
0200
0200
ENDCHAR
STARTCHAR 0143
ENCODING 323
SWIDTH 810 0
DWIDTH 54 0
BBX 37 58 9 0
BITMAP
000000E000
0000018000
0000030000
00000E0000
0000180000
0000300000
0000600000
0001800000
0000000000
0000000000
0000000000
8000000018
C000000018
E000000018
A000000018
9000000018
9800000018
8C00000018
8600000018
8200000018
8300000018
8180000018
80C0000018
8040000018
8060000018
8030000018
8018000018
800C000018
8004000018
8006000018
8003000018
8001800018
8000800018
8000C00018
8000600018
8000300018
8000100018
8000080018
80000C0018
8000060018
8000030018
8000010018
8000018018
800000C018
8000006018
8000002018
8000003018
8000001818
8000000C18
8000000618
8000000218
8000000318
8000000198
80000000D8
8000000058
8000000078
8000000038
8000000018
ENDCHAR
STARTCHAR 0144
ENCODING 324
SWIDTH 660 0
DWIDTH 44 0
BBX 29 48 8 0
BITMAP
00000E00
00001C00
00003000
0000E000
00018000
00030000
00060000
00180000
00000000
00000000
00000000
00000000
00000000
00078000
807FFC00
81C00700
87000180
8C0000C0
98000060
90000020
A0000030
E0000010
C0000018
C0000018
C0000008
80000008
80000008
80000008
80000008
80000008
80000008
80000008
80000008
80000008
80000008
80000008
80000008
80000008
80000008
80000008
80000008
80000008
80000008
80000008
80000008
80000008
80000008
80000008
ENDCHAR
STARTCHAR 0145
ENCODING 325
SWIDTH 810 0
DWIDTH 54 0
BBX 37 64 9 -17
BITMAP
8000000018
C000000018
E000000018
A000000018
9000000018
9800000018
8C00000018
8600000018
8200000018
8300000018
8180000018
80C0000018
8040000018
8060000018
8030000018
8018000018
800C000018
8004000018
8006000018
8003000018
8001800018
8000800018
8000C00018
8000600018
8000300018
8000100018
8000080018
80000C0018
8000060018
8000030018
8000010018
8000018018
800000C018
8000006018
8000002018
8000003018
8000001818
8000000C18
8000000618
8000000218
8000000318
8000000198
80000000D8
8000000058
8000000078
8000000038
8000000018
0000000000
0000000000
0000000000
0000000000
0000000000
0000000000
0000000000
0000000000
0000600000
0000700000
0000700000
0000700000
0000200000
0000200000
0000600000
0000600000
0000400000
ENDCHAR
STARTCHAR 0146
ENCODING 326
SWIDTH 660 0
DWIDTH 44 0
BBX 29 52 8 -17
BITMAP
00078000
807FFC00
81C00700
87000180
8C0000C0
98000060
90000020
A0000030
E0000010
C0000018
C0000018
C0000008
80000008
80000008
80000008
80000008
80000008
80000008
80000008
80000008
80000008
80000008
80000008
80000008
80000008
80000008
80000008
80000008
80000008
80000008
80000008
80000008
80000008
80000008
80000008
00000000
00000000
00000000
00000000
00000000
00000000
00000000
00000000
00060000
00070000
00070000
00070000
00030000
00020000
00020000
00060000
00040000
ENDCHAR
STARTCHAR 0147
ENCODING 327
SWIDTH 810 0
DWIDTH 54 0
BBX 37 58 9 0
BITMAP
0060006000
003000C000
000C018000
0006030000
00030E0000
00019C0000
0000F00000
0000600000
0000000000
0000000000
0000000000
8000000018
C000000018
E000000018
A000000018
9000000018
9800000018
8C00000018
8600000018
8200000018
8300000018
8180000018
80C0000018
8040000018
8060000018
8030000018
8018000018
800C000018
8004000018
8006000018
8003000018
8001800018
8000800018
8000C00018
8000600018
8000300018
8000100018
8000080018
80000C0018
8000060018
8000030018
8000010018
8000018018
800000C018
8000006018
8000002018
8000003018
8000001818
8000000C18
8000000618
8000000218
8000000318
8000000198
80000000D8
8000000058
8000000078
8000000038
8000000018
ENDCHAR
STARTCHAR 0148
ENCODING 328
SWIDTH 660 0
DWIDTH 44 0
BBX 29 48 8 0
BITMAP
06000600
01000C00
00C01800
00603000
00306000
0019C000
000F8000
00060000
00000000
00000000
00000000
00000000
00000000
00078000
807FFC00
81C00700
87000180
8C0000C0
98000060
90000020
A0000030
E0000010
C0000018
C0000018
C0000008
80000008
80000008
80000008
80000008
80000008
80000008
80000008
80000008
80000008
80000008
80000008
80000008
80000008
80000008
80000008
80000008
80000008
80000008
80000008
80000008
80000008
80000008
80000008
ENDCHAR
STARTCHAR 0149
ENCODING 329
SWIDTH 705 0
DWIDTH 47 0
BBX 36 50 4 0
BITMAP
6000000000
F000000000
F000000000
7000000000
2000000000
2000000000
2000000000
6000000000
4000000000
4000000000
4000000000
C000000000
C000000000
0000000000
0000000000
00001F8000
0301FFF000
0307001C00
030C000700
0318000180
0330000080
03600000C0
0340000040
0380000060
0380000020
0300000020
0300000030
0300000030
0300000030
0300000010
0300000010
0300000010
0300000010
0300000010
0300000010
0300000010
0300000010
0300000010
0300000010
0300000010
0300000010
0300000010
0300000010
0300000010
0300000010
0300000010
0300000010
0300000010
0300000010
0300000010
ENDCHAR
STARTCHAR 014A
ENCODING 330
SWIDTH 810 0
DWIDTH 54 0
BBX 37 60 9 -13
BITMAP
8000000018
C000000018
E000000018
A000000018
9000000018
9800000018
8C00000018
8600000018
8200000018
8300000018
8180000018
80C0000018
8040000018
8060000018
8030000018
8018000018
800C000018
8004000018
8006000018
8003000018
8001800018
8000800018
8000C00018
8000600018
8000300018
8000100018
8000080018
80000C0018
8000060018
8000030018
8000010018
8000018018
800000C018
8000006018
8000002018
8000003018
8000001818
8000000C18
8000000618
8000000218
8000000318
8000000198
80000000D8
8000000058
8000000078
8000000038
8000000018
0000000018
0000000018
0000000010
0000000010
0000000010
0000000030
0006000030
0003000020
0001800060
0000C000C0
0000700180
00001C0F00
000007F800
ENDCHAR
STARTCHAR 014B
ENCODING 331
SWIDTH 660 0
DWIDTH 44 0
BBX 29 48 8 -13
BITMAP
00078000
807FFC00
81C00700
87000180
8C0000C0
98000060
90000020
A0000030
E0000010
C0000018
C0000018
C0000008
80000008
80000008
80000008
80000008
80000008
80000008
80000008
80000008
80000008
80000008
80000008
80000008
80000008
80000008
80000008
80000008
80000008
80000008
80000008
80000008
80000008
80000008
80000008
00000008
00000008
00000008
00000008
00000008
00000008
00000008
00000018
00000018
00000010
00030020
0001C1C0
00007F80
ENDCHAR
STARTCHAR 014C
ENCODING 332
SWIDTH 825 0
DWIDTH 55 0
BBX 48 55 4 0
BITMAP
0001FFFF8000
0001FFFF8000
000000000000
000000000000
000000000000
000000000000
000000000000
000000000000
00001FF00000
0001FE7F0000
00070001E000
001C00003800
003000000C00
00C000000600
018000000180
0300000000C0
060000000040
0C0000000020
080000000030
180000000018
100000000008
30000000000C
200000000004
600000000004
400000000006
400000000002
C00000000002
C00000000002
800000000003
800000000003
800000000003
800000000003
800000000003
800000000003
800000000003
C00000000003
C00000000002
400000000002
400000000006
600000000006
200000000004
20000000000C
300000000008
100000000018
080000000010
0C0000000030
060000000060
0300000000C0
018000000180
00C000000300
006000000E00
001800003800
000F0000E000
0003E0078000
00003FFC0000
ENDCHAR
STARTCHAR 014D
ENCODING 333
SWIDTH 600 0
DWIDTH 40 0
BBX 33 45 4 0
BITMAP
01FFFF8000
01FFFF8000
0000000000
0000000000
0000000000
0000000000
0000000000
0000000000
0000000000
0000000000
0003E00000
003FFE0000
00E0038000
038000C000
0600003000
0C00001800
1800000800
1000000400
2000000600
6000000200
4000000300
4000000100
C000000100
8000000180
8000000180
8000000080
8000000080
8000000080
8000000080
8000000080
8000000080
8000000180
C000000180
C000000100
4000000300
6000000300
2000000200
3000000400
1800000C00
0800001800
0600003000
0300006000
01C001C000
00780F0000
001FF80000
ENDCHAR
STARTCHAR 014E
ENCODING 334
SWIDTH 825 0
DWIDTH 55 0
BBX 48 58 4 0
BITMAP
000100018000
000180018000
000180010000
000080030000
000040060000
0000700C0000
00001FF80000
000007C00000
000000000000
000000000000
000000000000
00001FF00000
0001FE7F0000
00070001E000
001C00003800
003000000C00
00C000000600
018000000180
0300000000C0
060000000040
0C0000000020
080000000030
180000000018
100000000008
30000000000C
200000000004
600000000004
400000000006
400000000002
C00000000002
C00000000002
800000000003
800000000003
800000000003
800000000003
800000000003
800000000003
800000000003
C00000000003
C00000000002
400000000002
400000000006
600000000006
200000000004
20000000000C
300000000008
100000000018
080000000010
0C0000000030
060000000060
0300000000C0
018000000180
00C000000300
006000000E00
001800003800
000F0000E000
0003E0078000
00003FFC0000
ENDCHAR
STARTCHAR 014F
ENCODING 335
SWIDTH 600 0
DWIDTH 40 0
BBX 33 48 4 0
BITMAP
0080008000
0080008000
0080018000
00C0010000
0060030000
00300E0000
001FF80000
0003C00000
0000000000
0000000000
0000000000
0000000000
0000000000
0003E00000
003FFE0000
00E0038000
038000C000
0600003000
0C00001800
1800000800
1000000400
2000000600
6000000200
4000000300
4000000100
C000000100
8000000180
8000000180
8000000080
8000000080
8000000080
8000000080
8000000080
8000000080
8000000180
C000000180
C000000100
4000000300
6000000300
2000000200
3000000400
1800000C00
0800001800
0600003000
0300006000
01C001C000
00780F0000
001FF80000
ENDCHAR
STARTCHAR 0150
ENCODING 336
SWIDTH 825 0
DWIDTH 55 0
BBX 48 58 4 0
BITMAP
000000701800
000000E03000
000001C06000
00000300C000
000006018000
00000C030000
000018060000
000030080000
000000000000
000000000000
000000000000
00001FF00000
0001FE7F0000
00070001E000
001C00003800
003000000C00
00C000000600
018000000180
0300000000C0
060000000040
0C0000000020
080000000030
180000000018
100000000008
30000000000C
200000000004
600000000004
400000000006
400000000002
C00000000002
C00000000002
800000000003
800000000003
800000000003
800000000003
800000000003
800000000003
800000000003
C00000000003
C00000000002
400000000002
400000000006
600000000006
200000000004
20000000000C
300000000008
100000000018
080000000010
0C0000000030
060000000060
0300000000C0
018000000180
00C000000300
006000000E00
001800003800
000F0000E000
0003E0078000
00003FFC0000
ENDCHAR
STARTCHAR 0151
ENCODING 337
SWIDTH 600 0
DWIDTH 40 0
BBX 33 48 4 0
BITMAP
0000301800
0000603000
0000C06000
000180C000
0003018000
0006030000
000C060000
00180C0000
0000000000
0000000000
0000000000
0000000000
0000000000
0003E00000
003FFE0000
00E0038000
038000C000
0600003000
0C00001800
1800000800
1000000400
2000000600
6000000200
4000000300
4000000100
C000000100
8000000180
8000000180
8000000080
8000000080
8000000080
8000000080
8000000080
8000000080
8000000180
C000000180
C000000100
4000000300
6000000300
2000000200
3000000400
1800000C00
0800001800
0600003000
0300006000
01C001C000
00780F0000
001FF80000
ENDCHAR
STARTCHAR 0152
ENCODING 338
SWIDTH 1110 0
DWIDTH 74 0
BBX 66 47 4 0
BITMAP
000007FFFFFFFFFF80
0000FFFFFFFFFFFF80
000780003000000000
001C00003000000000
003000003000000000
00E000003000000000
018000003000000000
030000003000000000
060000003000000000
0C0000003000000000
080000003000000000
180000003000000000
100000003000000000
300000003000000000
200000003000000000
600000003000000000
400000003000000000
400000003000000000
C00000003000000000
C00000003000000000
800000003000000000
800000003000000000
800000003000000000
800000003FFFFFFC00
800000003000000000
800000003000000000
800000003000000000
C00000003000000000
C00000003000000000
400000003000000000
400000003000000000
400000003000000000
600000003000000000
200000003000000000
300000003000000000
100000003000000000
180000003000000000
0C0000003000000000
060000003000000000
030000003000000000
018000003000000000
00C000003000000000
007000003000000000
001800003000000000
000700003000000000
0001F8003000000000
00001FFFFFFFFFFFC0
ENDCHAR
STARTCHAR 0153
ENCODING 339
SWIDTH 1065 0
DWIDTH 71 0
BBX 64 35 4 0
BITMAP
0003E0000007C000
003FFE00003FFC00
00E0038000E00700
038000C003800180
06000020060000E0
0C0000100C000030
1800000818000010
1000000410000018
200000062000000C
6000000220000004
4000000340000006
4000000140000006
C0000001C0000002
8000000180000002
8000000180000003
8000000080000003
80000000FFFFFFFF
80000000FFFFFFFF
8000000080000000
8000000080000000
8000000080000000
8000000180000000
C0000001C0000000
C000000140000000
4000000340000000
6000000260000000
2000000220000000
3000000430000000
1800000C18000000
080000180C00000C
0600003006000018
0300006003000030
01C001C001C000C0
00780F0000780780
001FF800000FFC00
ENDCHAR
STARTCHAR 0154
ENCODING 340
SWIDTH 705 0
DWIDTH 47 0
BBX 34 58 9 0
BITMAP
0000070000
00000E0000
0000180000
0000300000
0000E00000
0001800000
0003000000
000C000000
0000000000
0000000000
0000000000
FFFFC00000
FFFFFF0000
800001C000
8000003000
8000001800
8000000400
8000000200
8000000300
8000000100
8000000180
8000000080
80000000C0
80000000C0
8000000040
8000000040
8000000040
8000000040
8000000040
80000000C0
80000000C0
8000000080
8000000080
8000000180
8000000100
8000000200
8000000600
8000000C00
8000003000
800000E000
80000F8000
FFFFFE0000
8000030000
8000010000
8000018000
800000C000
8000004000
8000006000
8000003000
8000001800
8000000800
8000000C00
8000000600
8000000200
8000000300
8000000180
80000000C0
8000000040
ENDCHAR
STARTCHAR 0155
ENCODING 341
SWIDTH 375 0
DWIDTH 25 0
BBX 16 48 8 0
BITMAP
0007
000C
0018
0070
00C0
0180
0700
0C00
0000
0000
0000
0000
0000
000E
80FE
8380
8600
8C00
9800
B000
A000
E000
C000
C000
C000
8000
8000
8000
8000
8000
8000
8000
8000
8000
8000
8000
8000
8000
8000
8000
8000
8000
8000
8000
8000
8000
8000
8000
ENDCHAR
STARTCHAR 0156
ENCODING 342
SWIDTH 705 0
DWIDTH 47 0
BBX 34 64 9 -17
BITMAP
FFFFC00000
FFFFFF0000
800001C000
8000003000
8000001800
8000000400
8000000200
8000000300
8000000100
8000000180
8000000080
80000000C0
80000000C0
8000000040
8000000040
8000000040
8000000040
8000000040
80000000C0
80000000C0
8000000080
8000000080
8000000180
8000000100
8000000200
8000000600
8000000C00
8000003000
800000E000
80000F8000
FFFFFE0000
8000030000
8000010000
8000018000
800000C000
8000004000
8000006000
8000003000
8000001800
8000000800
8000000C00
8000000600
8000000200
8000000300
8000000180
80000000C0
8000000040
0000000000
0000000000
0000000000
0000000000
0000000000
0000000000
0000000000
0000000000
0001000000
0003800000
0003800000
0001800000
0001800000
0001000000
0001000000
0003000000
0002000000
ENDCHAR
STARTCHAR 0157
ENCODING 343
SWIDTH 375 0
DWIDTH 25 0
BBX 16 52 7 -17
BITMAP
0007
407F
41C0
4300
4600
4C00
5800
5000
7000
6000
6000
6000
4000
4000
4000
4000
4000
4000
4000
4000
4000
4000
4000
4000
4000
4000
4000
4000
4000
4000
4000
4000
4000
4000
4000
0000
0000
0000
0000
0000
0000
0000
0000
C000
E000
E000
E000
6000
4000
4000
C000
8000
ENDCHAR
STARTCHAR 0158
ENCODING 344
SWIDTH 705 0
DWIDTH 47 0
BBX 34 58 9 0
BITMAP
0100030000
00C0060000
00600C0000
0030180000
0018300000
000CE00000
0007C00000
0003800000
0000000000
0000000000
0000000000
FFFFC00000
FFFFFF0000
800001C000
8000003000
8000001800
8000000400
8000000200
8000000300
8000000100
8000000180
8000000080
80000000C0
80000000C0
8000000040
8000000040
8000000040
8000000040
8000000040
80000000C0
80000000C0
8000000080
8000000080
8000000180
8000000100
8000000200
8000000600
8000000C00
8000003000
800000E000
80000F8000
FFFFFE0000
8000030000
8000010000
8000018000
800000C000
8000004000
8000006000
8000003000
8000001800
8000000800
8000000C00
8000000600
8000000200
8000000300
8000000180
80000000C0
8000000040
ENDCHAR
STARTCHAR 0159
ENCODING 345
SWIDTH 375 0
DWIDTH 25 0
BBX 18 48 6 0
BITMAP
C000C0
600180
300300
0C0600
061C00
033000
01E000
00C000
000000
000000
000000
000000
000000
000380
203F80
20E000
218000
230000
260000
2C0000
280000
380000
300000
300000
300000
200000
200000
200000
200000
200000
200000
200000
200000
200000
200000
200000
200000
200000
200000
200000
200000
200000
200000
200000
200000
200000
200000
200000
ENDCHAR
STARTCHAR 015A
ENCODING 346
SWIDTH 600 0
DWIDTH 40 0
BBX 32 58 4 0
BITMAP
000001C0
00000300
00000600
00001C00
00003000
00006000
0000C000
00030000
00000000
00000000
00000000
000FF800
007F3F80
01C000E0
07000038
0C00000C
18000000
10000000
30000000
20000000
60000000
60000000
60000000
60000000
60000000
60000000
20000000
30000000
10000000
18000000
0C000000
03000000
01E00000
003C0000
0007C000
00007C00
00000780
000000E0
00000030
0000000C
00000004
00000006
00000003
00000003
00000001
00000001
00000001
00000001
00000001
00000003
00000002
C0000006
60000004
3000000C
1C000038
07000060
01F007C0
003FFE00
ENDCHAR
STARTCHAR 015B
ENCODING 347
SWIDTH 450 0
DWIDTH 30 0
BBX 26 48 2 0
BITMAP
00001C00
00003800
00006000
0000C000
00038000
00060000
000C0000
00380000
00000000
00000000
00000000
00000000
00000000
000F0000
01FFF800
07000E00
0C000380
18000080
30000000
20000000
20000000
60000000
60000000
20000000
20000000
30000000
10000000
1C000000
0E000000
03E00000
007F0000
0007F000
00003C00
00000700
00000180
000000C0
00000040
00000040
00000040
00000040
00000040
00000040
000000C0
C0000080
70000180
1C000600
07803C00
00FFF000
ENDCHAR
STARTCHAR 015C
ENCODING 348
SWIDTH 600 0
DWIDTH 40 0
BBX 32 58 4 0
BITMAP
0000E000
0001F000
00031800
000E0C00
00180600
00300300
00600180
00C00040
00000000
00000000
00000000
000FF800
007F3F80
01C000E0
07000038
0C00000C
18000000
10000000
30000000
20000000
60000000
60000000
60000000
60000000
60000000
60000000
20000000
30000000
10000000
18000000
0C000000
03000000
01E00000
003C0000
0007C000
00007C00
00000780
000000E0
00000030
0000000C
00000004
00000006
00000003
00000003
00000001
00000001
00000001
00000001
00000001
00000003
00000002
C0000006
60000004
3000000C
1C000038
07000060
01F007C0
003FFE00
ENDCHAR
STARTCHAR 015D
ENCODING 349
SWIDTH 450 0
DWIDTH 30 0
BBX 26 48 2 0
BITMAP
000E0000
001B0000
00318000
0060C000
00C06000
01003000
06000C00
0C000600
00000000
00000000
00000000
00000000
00000000
000F0000
01FFF800
07000E00
0C000380
18000080
30000000
20000000
20000000
60000000
60000000
20000000
20000000
30000000
10000000
1C000000
0E000000
03E00000
007F0000
0007F000
00003C00
00000700
00000180
000000C0
00000040
00000040
00000040
00000040
00000040
00000040
000000C0
C0000080
70000180
1C000600
07803C00
00FFF000
ENDCHAR
STARTCHAR 015E
ENCODING 350
SWIDTH 600 0
DWIDTH 40 0
BBX 32 61 4 -14
BITMAP
000FF800
007F3F80
01C000E0
07000038
0C00000C
18000000
10000000
30000000
20000000
60000000
60000000
60000000
60000000
60000000
60000000
20000000
30000000
10000000
18000000
0C000000
03000000
01E00000
003C0000
0007C000
00007C00
00000780
000000E0
00000030
0000000C
00000004
00000006
00000003
00000003
00000001
00000001
00000001
00000001
00000001
00000003
00000002
C0000006
60000004
3000000C
1C000038
07000060
01F007C0
003FFE00
0000C000
00008000
00008000
00018000
0001F000
00001800
00000C00
00000400
00000400
00000400
00000400
00000C00
001C3800
0007E000
ENDCHAR
STARTCHAR 015F
ENCODING 351
SWIDTH 450 0
DWIDTH 30 0
BBX 26 49 2 -14
BITMAP
000F0000
01FFF800
07000E00
0C000380
18000080
30000000
20000000
20000000
60000000
60000000
20000000
20000000
30000000
10000000
1C000000
0E000000
03E00000
007F0000
0007F000
00003C00
00000700
00000180
000000C0
00000040
00000040
00000040
00000040
00000040
00000040
000000C0
C0000080
70000180
1C000600
07803C00
00FFF000
00040000
000C0000
00080000
00080000
001F0000
00018000
0000C000
00004000
00004000
00004000
00004000
0000C000
00C18000
007F0000
ENDCHAR
STARTCHAR 0160
ENCODING 352
SWIDTH 600 0
DWIDTH 40 0
BBX 32 58 4 0
BITMAP
00C000C0
00600180
00180300
000C0600
00061C00
00033800
0001E000
0000C000
00000000
00000000
00000000
000FF800
007F3F80
01C000E0
07000038
0C00000C
18000000
10000000
30000000
20000000
60000000
60000000
60000000
60000000
60000000
60000000
20000000
30000000
10000000
18000000
0C000000
03000000
01E00000
003C0000
0007C000
00007C00
00000780
000000E0
00000030
0000000C
00000004
00000006
00000003
00000003
00000001
00000001
00000001
00000001
00000001
00000003
00000002
C0000006
60000004
3000000C
1C000038
07000060
01F007C0
003FFE00
ENDCHAR
STARTCHAR 0161
ENCODING 353
SWIDTH 450 0
DWIDTH 30 0
BBX 26 48 2 0
BITMAP
04000400
03001800
01803000
00C06000
0060C000
00318000
001F0000
000E0000
00000000
00000000
00000000
00000000
00000000
000F0000
01FFF800
07000E00
0C000380
18000080
30000000
20000000
20000000
60000000
60000000
20000000
20000000
30000000
10000000
1C000000
0E000000
03E00000
007F0000
0007F000
00003C00
00000700
00000180
000000C0
00000040
00000040
00000040
00000040
00000040
00000040
000000C0
C0000080
70000180
1C000600
07803C00
00FFF000
ENDCHAR
STARTCHAR 0162
ENCODING 354
SWIDTH 540 0
DWIDTH 36 0
BBX 36 61 0 -14
BITMAP
FFFFFFFFF0
FFFFFFFFF0
0000200000
0000200000
0000200000
0000200000
0000200000
0000200000
0000200000
0000200000
0000200000
0000200000
0000200000
0000200000
0000200000
0000200000
0000200000
0000200000
0000200000
0000200000
0000200000
0000200000
0000200000
0000200000
0000200000
0000200000
0000200000
0000200000
0000200000
0000200000
0000200000
0000200000
0000200000
0000200000
0000200000
0000200000
0000200000
0000200000
0000200000
0000200000
0000200000
0000200000
0000200000
0000200000
0000200000
0000200000
0000200000
0000600000
0000400000
0000400000
0000400000
0000F80000
00000C0000
0000060000
0000020000
0000020000
0000020000
0000020000
0000060000
000E1C0000
0003F00000
ENDCHAR
STARTCHAR 0163
ENCODING 355
SWIDTH 375 0
DWIDTH 25 0
BBX 21 56 2 -14
BITMAP
030000
030000
030000
030000
030000
030000
030000
030000
FFFFE0
030000
030000
030000
030000
030000
030000
030000
030000
030000
030000
030000
030000
030000
030000
030000
030000
030000
030000
030000
030000
030000
030000
030000
030000
030000
030000
030000
010000
010000
018000
00C018
007070
001FE0
000400
000400
000400
000C00
000F00
0000C0
000060
000060
000020
000020
000060
000040
00E1C0
003F00
ENDCHAR
STARTCHAR 0164
ENCODING 356
SWIDTH 540 0
DWIDTH 36 0
BBX 36 58 0 0
BITMAP
0060006000
003000C000
000C018000
0006030000
0003060000
00019C0000
0000F00000
0000600000
0000000000
0000000000
0000000000
FFFFFFFFF0
FFFFFFFFF0
0000200000
0000200000
0000200000
0000200000
0000200000
0000200000
0000200000
0000200000
0000200000
0000200000
0000200000
0000200000
0000200000
0000200000
0000200000
0000200000
0000200000
0000200000
0000200000
0000200000
0000200000
0000200000
0000200000
0000200000
0000200000
0000200000
0000200000
0000200000
0000200000
0000200000
0000200000
0000200000
0000200000
0000200000
0000200000
0000200000
0000200000
0000200000
0000200000
0000200000
0000200000
0000200000
0000200000
0000200000
0000200000
ENDCHAR
STARTCHAR 0165
ENCODING 357
SWIDTH 375 0
DWIDTH 25 0
BBX 21 51 2 0
BITMAP
000100
000100
000100
000100
000100
000100
000100
000100
000100
030100
030100
030000
030000
030000
030000
030000
030000
FFFFE0
030000
030000
030000
030000
030000
030000
030000
030000
030000
030000
030000
030000
030000
030000
030000
030000
030000
030000
030000
030000
030000
030000
030000
030000
030000
030000
030000
010000
010000
018000
00C018
007070
001FE0
ENDCHAR
STARTCHAR 0166
ENCODING 358
SWIDTH 540 0
DWIDTH 36 0
BBX 36 47 0 0
BITMAP
FFFFFFFFF0
FFFFFFFFF0
0000200000
0000200000
0000200000
0000200000
0000200000
0000200000
0000200000
0000200000
0000200000
0000200000
0000200000
0000200000
0000200000
0000200000
0000200000
0000200000
0000200000
0000200000
0000200000
0000200000
0000200000
03FFFFFC00
0000200000
0000200000
0000200000
0000200000
0000200000
0000200000
0000200000
0000200000
0000200000
0000200000
0000200000
0000200000
0000200000
0000200000
0000200000
0000200000
0000200000
0000200000
0000200000
0000200000
0000200000
0000200000
0000200000
ENDCHAR
STARTCHAR 0167
ENCODING 359
SWIDTH 390 0
DWIDTH 26 0
BBX 21 42 2 0
BITMAP
010000
010000
010000
010000
010000
010000
010000
010000
FFFFF0
010000
010000
010000
010000
010000
010000
010000
010000
010000
010000
010000
010000
7FFFE0
010000
010000
010000
010000
010000
010000
010000
010000
010000
010000
010000
010000
010000
010000
010000
018000
008000
00C008
007038
001FE0
ENDCHAR
STARTCHAR 0168
ENCODING 360
SWIDTH 780 0
DWIDTH 52 0
BBX 36 57 8 0
BITMAP
000F803000
0018C02000
0030602000
0020306000
00601FC000
0060070000
0000000000
0000000000
0000000000
0000000000
C000000010
C000000010
C000000010
C000000010
C000000010
C000000010
C000000010
C000000010
C000000010
C000000010
C000000010
C000000010
C000000010
C000000010
C000000010
C000000010
C000000010
C000000010
C000000010
C000000010
C000000010
C000000010
C000000010
C000000010
C000000010
C000000010
C000000010
C000000010
C000000010
4000000010
4000000010
4000000010
4000000010
4000000010
6000000030
6000000020
2000000020
3000000060
1000000040
18000000C0
0800000180
0400000100
0200000200
0180000C00
00E0003800
003C01E000
0007FF0000
ENDCHAR
STARTCHAR 0169
ENCODING 361
SWIDTH 660 0
DWIDTH 44 0
BBX 30 47 7 0
BITMAP
00F80100
018E0100
01030300
03018600
0200FC00
02003000
00000000
00000000
00000000
00000000
00000000
00000000
00000000
C000000C
C000000C
C000000C
C000000C
C000000C
C000000C
C000000C
C000000C
C000000C
C000000C
C000000C
C000000C
C000000C
C000000C
C000000C
C000000C
C000000C
C000000C
C000000C
C000000C
C000000C
C000000C
C000000C
4000000C
4000001C
4000001C
6000003C
2000002C
3000004C
180000CC
0C00018C
0700060C
01C03C0C
007FE00C
ENDCHAR
STARTCHAR 016A
ENCODING 362
SWIDTH 780 0
DWIDTH 52 0
BBX 36 55 8 0
BITMAP
007FFFF000
007FFFF000
0000000000
0000000000
0000000000
0000000000
0000000000
0000000000
C000000010
C000000010
C000000010
C000000010
C000000010
C000000010
C000000010
C000000010
C000000010
C000000010
C000000010
C000000010
C000000010
C000000010
C000000010
C000000010
C000000010
C000000010
C000000010
C000000010
C000000010
C000000010
C000000010
C000000010
C000000010
C000000010
C000000010
C000000010
C000000010
4000000010
4000000010
4000000010
4000000010
4000000010
6000000030
6000000020
2000000020
3000000060
1000000040
18000000C0
0800000180
0400000100
0200000200
0180000C00
00E0003800
003C01E000
0007FF0000
ENDCHAR
STARTCHAR 016B
ENCODING 363
SWIDTH 660 0
DWIDTH 44 0
BBX 30 45 7 0
BITMAP
03FFFF00
03FFFF00
00000000
00000000
00000000
00000000
00000000
00000000
00000000
00000000
00000000
C000000C
C000000C
C000000C
C000000C
C000000C
C000000C
C000000C
C000000C
C000000C
C000000C
C000000C
C000000C
C000000C
C000000C
C000000C
C000000C
C000000C
C000000C
C000000C
C000000C
C000000C
C000000C
C000000C
4000000C
4000001C
4000001C
6000003C
2000002C
3000004C
180000CC
0C00018C
0700060C
01C03C0C
007FE00C
ENDCHAR
STARTCHAR 016C
ENCODING 364
SWIDTH 780 0
DWIDTH 52 0
BBX 36 58 8 0
BITMAP
0020002000
0020002000
0020002000
0030004000
001800C000
000C018000
0007FE0000
0000F80000
0000000000
0000000000
0000000000
C000000010
C000000010
C000000010
C000000010
C000000010
C000000010
C000000010
C000000010
C000000010
C000000010
C000000010
C000000010
C000000010
C000000010
C000000010
C000000010
C000000010
C000000010
C000000010
C000000010
C000000010
C000000010
C000000010
C000000010
C000000010
C000000010
C000000010
C000000010
C000000010
4000000010
4000000010
4000000010
4000000010
4000000010
6000000030
6000000020
2000000020
3000000060
1000000040
18000000C0
0800000180
0400000100
0200000200
0180000C00
00E0003800
003C01E000
0007FF0000
ENDCHAR
STARTCHAR 016D
ENCODING 365
SWIDTH 660 0
DWIDTH 44 0
BBX 30 48 7 0
BITMAP
02000300
03000300
01000200
01000600
00800400
00601800
003FF000
00078000
00000000
00000000
00000000
00000000
00000000
00000000
C000000C
C000000C
C000000C
C000000C
C000000C
C000000C
C000000C
C000000C
C000000C
C000000C
C000000C
C000000C
C000000C
C000000C
C000000C
C000000C
C000000C
C000000C
C000000C
C000000C
C000000C
C000000C
C000000C
4000000C
4000001C
4000001C
6000003C
2000002C
3000004C
180000CC
0C00018C
0700060C
01C03C0C
007FE00C
ENDCHAR
STARTCHAR 016E
ENCODING 366
SWIDTH 780 0
DWIDTH 52 0
BBX 36 64 8 0
BITMAP
0000F80000
00030E0000
0006030000
0004010000
000C010000
000C018000
000C018000
000C010000
0004010000
0006020000
00038E0000
0000F80000
0000000000
0000000000
0000000000
0000000000
0000000000
C000000010
C000000010
C000000010
C000000010
C000000010
C000000010
C000000010
C000000010
C000000010
C000000010
C000000010
C000000010
C000000010
C000000010
C000000010
C000000010
C000000010
C000000010
C000000010
C000000010
C000000010
C000000010
C000000010
C000000010
C000000010
C000000010
C000000010
C000000010
C000000010
4000000010
4000000010
4000000010
4000000010
4000000010
6000000030
6000000020
2000000020
3000000060
1000000040
18000000C0
0800000180
0400000100
0200000200
0180000C00
00E0003800
003C01E000
0007FF0000
ENDCHAR
STARTCHAR 016F
ENCODING 367
SWIDTH 660 0
DWIDTH 44 0
BBX 30 52 7 0
BITMAP
000F8000
001CE000
00303000
00601000
00401800
00400800
00400800
00400800
00601800
00203000
00186000
000FC000
00000000
00000000
00000000
00000000
00000000
00000000
C000000C
C000000C
C000000C
C000000C
C000000C
C000000C
C000000C
C000000C
C000000C
C000000C
C000000C
C000000C
C000000C
C000000C
C000000C
C000000C
C000000C
C000000C
C000000C
C000000C
C000000C
C000000C
C000000C
4000000C
4000001C
4000001C
6000003C
2000002C
3000004C
180000CC
0C00018C
0700060C
01C03C0C
007FE00C
ENDCHAR
STARTCHAR 0170
ENCODING 368
SWIDTH 780 0
DWIDTH 52 0
BBX 36 58 8 0
BITMAP
00000C0700
0000180E00
0000301800
0000603000
0000C06000
000180C000
0003018000
0006030000
0000000000
0000000000
0000000000
C000000010
C000000010
C000000010
C000000010
C000000010
C000000010
C000000010
C000000010
C000000010
C000000010
C000000010
C000000010
C000000010
C000000010
C000000010
C000000010
C000000010
C000000010
C000000010
C000000010
C000000010
C000000010
C000000010
C000000010
C000000010
C000000010
C000000010
C000000010
C000000010
4000000010
4000000010
4000000010
4000000010
4000000010
6000000030
6000000020
2000000020
3000000060
1000000040
18000000C0
0800000180
0400000100
0200000200
0180000C00
00E0003800
003C01E000
0007FF0000
ENDCHAR
STARTCHAR 0171
ENCODING 369
SWIDTH 660 0
DWIDTH 44 0
BBX 30 48 7 0
BITMAP
0000E030
0001C060
000380C0
00070180
000C0300
00180600
00300C00
00601800
00000000
00000000
00000000
00000000
00000000
00000000
C000000C
C000000C
C000000C
C000000C
C000000C
C000000C
C000000C
C000000C
C000000C
C000000C
C000000C
C000000C
C000000C
C000000C
C000000C
C000000C
C000000C
C000000C
C000000C
C000000C
C000000C
C000000C
C000000C
4000000C
4000001C
4000001C
6000003C
2000002C
3000004C
180000CC
0C00018C
0700060C
01C03C0C
007FE00C
ENDCHAR
STARTCHAR 0172
ENCODING 370
SWIDTH 780 0
DWIDTH 52 0
BBX 36 61 8 -14
BITMAP
C000000010
C000000010
C000000010
C000000010
C000000010
C000000010
C000000010
C000000010
C000000010
C000000010
C000000010
C000000010
C000000010
C000000010
C000000010
C000000010
C000000010
C000000010
C000000010
C000000010
C000000010
C000000010
C000000010
C000000010
C000000010
C000000010
C000000010
C000000010
C000000010
4000000010
4000000010
4000000010
4000000010
4000000010
6000000030
6000000020
2000000020
3000000060
1000000040
18000000C0
0800000180
0400000100
0200000200
0180000C00
00E0003800
003C01E000
0007FF8000
00001C0000
0000700000
0000C00000
0001800000
0003000000
0002000000
0006000000
0004000000
0004000000
0004000000
0006000000
0002000000
0003870000
0000FC0000
ENDCHAR
STARTCHAR 0173
ENCODING 371
SWIDTH 660 0
DWIDTH 44 0
BBX 31 48 7 -14
BITMAP
C000000C
C000000C
C000000C
C000000C
C000000C
C000000C
C000000C
C000000C
C000000C
C000000C
C000000C
C000000C
C000000C
C000000C
C000000C
C000000C
C000000C
C000000C
C000000C
C000000C
C000000C
C000000C
C000000C
4000000C
4000001C
4000001C
6000003C
2000002C
3000004C
180000CC
0C00018C
0700060C
01C03C0C
007FE00C
00000038
000000C0
00000180
00000300
00000600
00000400
00000C00
00000800
00000800
00000800
00000800
00000C00
0000070E
000001F8
ENDCHAR
STARTCHAR 0174
ENCODING 372
SWIDTH 1080 0
DWIDTH 72 0
BBX 66 58 3 0
BITMAP
00000000C000000000
00000003F000000000
000000073800000000
0000000C0C00000000
000000180600000000
000000300300000000
000000600180000000
000000C000C0000000
000000000000000000
000000000000000000
000000000000000000
C0000000C000000040
C0000000C0000000C0
40000000C000000080
60000001E000000080
600000012000000180
200000012000000100
300000031000000300
300000021000000300
100000061800000200
180000040800000600
180000040800000600
0800000C0C00000400
0C0000080400000C00
040000080400000800
040000180600000800
060000100200001800
020000100200001000
020000300300001000
030000200100003000
010000200100002000
010000600180002000
018000400080006000
008000400080004000
008000C000C0004000
00C00080004000C000
004001800060008000
004001800060008000
006001000020018000
002003000030010000
002002000010010000
003002000010030000
001006000018020000
001004000008020000
001804000008060000
00080C00000C040000
000808000004040000
000C080000040C0000
000418000006080000
000610000002080000
000610000002180000
000230000003100000
000320000001100000
000320000001300000
000160000001A00000
0001C0000000E00000
0001C0000000E00000
0000C0000000C00000
ENDCHAR
STARTCHAR 0175
ENCODING 373
SWIDTH 825 0
DWIDTH 55 0
BBX 54 48 1 0
BITMAP
00000030000000
000000F8000000
000001CE000000
00000303000000
00000601800000
00000C00C00000
00001800600000
00003000300000
00000000000000
00000000000000
00000000000000
00000000000000
00000000000000
00000000000000
C000003000000C
40000070000008
40000058000008
60000048000018
200000C8000010
2000008C000030
30000084000020
10000186000020
18000102000060
08000302000040
080002030000C0
0C000201000080
04000601800080
04000400800180
02000C00800100
02000800C00100
03000800400300
01001800400200
01001000200600
01801000200400
00802000300400
00802000100C00
00406000100800
00404000080800
00604000081000
0020C0000C1000
00208000043000
00118000042000
00110000062000
00190000026000
000B0000024000
000A0000014000
000E0000018000
00040000018000
ENDCHAR
STARTCHAR 0176
ENCODING 374
SWIDTH 600 0
DWIDTH 40 0
BBX 39 58 1 0
BITMAP
0000380000
00006C0000
0000C60000
0001830000
0007018000
000C00C000
0018006000
0030001000
0000000000
0000000000
0000000000
8000000006
C000000004
600000000C
2000000018
3000000010
1000000030
1800000020
0C00000060
04000000C0
0600000080
0200000180
0100000100
0180000300
0080000600
00C0000400
0060000C00
0020001800
0030001000
0010003000
0018002000
000C006000
000400C000
0006008000
0003018000
0001010000
0001820000
0000860000
0000C40000
00006C0000
0000380000
0000300000
0000100000
0000100000
0000100000
0000100000
0000100000
0000100000
0000100000
0000100000
0000100000
0000100000
0000100000
0000100000
0000100000
0000100000
0000100000
0000100000
ENDCHAR
STARTCHAR 0177
ENCODING 375
SWIDTH 495 0
DWIDTH 33 0
BBX 35 61 -2 -13
BITMAP
0000600000
0001F00000
00039C0000
0006060000
000C030000
0018018000
003000C000
0060006000
0000000000
0000000000
0000000000
0000000000
0000000000
0000000000
1000000060
1800000060
0800000040
0C000000C0
0400000080
0600000180
0200000100
0300000300
0100000200
0100000600
0180000400
0080000C00
00C0000C00
0040000800
0060001800
0020001000
0030003000
0010002000
0018006000
0008004000
000800C000
0004008000
0004018000
0006018000
0002010000
0003030000
0001020000
0001860000
0000840000
0000CC0000
0000480000
0000580000
0000300000
0000300000
0000200000
0000600000
0000600000
0000400000
0000C00000
0000800000
0001800000
0001000000
0003000000
8006000000
E00C000000
3838000000
1FE0000000
ENDCHAR
STARTCHAR 0178
ENCODING 376
SWIDTH 600 0
DWIDTH 40 0
BBX 39 56 1 0
BITMAP
000E01C000
000F01E000
000E01C000
0000000000
0000000000
0000000000
0000000000
0000000000
0000000000
8000000006
C000000004
600000000C
2000000018
3000000010
1000000030
1800000020
0C00000060
04000000C0
0600000080
0200000180
0100000100
0180000300
0080000600
00C0000400
0060000C00
0020001800
0030001000
0010003000
0018002000
000C006000
000400C000
0006008000
0003018000
0001010000
0001820000
0000860000
0000C40000
00006C0000
0000380000
0000300000
0000100000
0000100000
0000100000
0000100000
0000100000
0000100000
0000100000
0000100000
0000100000
0000100000
0000100000
0000100000
0000100000
0000100000
0000100000
0000100000
ENDCHAR
STARTCHAR 0179
ENCODING 377
SWIDTH 630 0
DWIDTH 42 0
BBX 37 58 3 0
BITMAP
0000006000
000001C000
0000038000
0000060000
00000C0000
0000300000
0000600000
0000C00000
0000000000
0000000000
0000000000
7FFFFFFFF0
7FFFFFFFF0
0000000020
0000000060
00000000C0
0000000180
0000000100
0000000300
0000000600
0000000C00
0000000800
0000001800
0000003000
0000006000
0000004000
0000008000
0000018000
0000030000
0000060000
0000040000
00000C0000
0000180000
0000300000
0000200000
0000600000
0000C00000
0001800000
0001000000
0002000000
0006000000
000C000000
0018000000
0010000000
0030000000
0060000000
00C0000000
0080000000
0180000000
0300000000
0600000000
0400000000
0800000000
1800000000
3000000000
6000000000
4000000000
FFFFFFFFF8
ENDCHAR
STARTCHAR 017A
ENCODING 378
SWIDTH 480 0
DWIDTH 32 0
BBX 27 48 3 0
BITMAP
00001C00
00003800
00006000
0001C000
00030000
00060000
000C0000
00300000
00000000
00000000
00000000
00000000
00000000
00000000
FFFFFFC0
00000080
00000180
00000300
00000200
00000400
00000C00
00001800
00001000
00002000
00006000
0000C000
00008000
00010000
00030000
00060000
000C0000
00080000
00180000
00300000
00600000
00400000
00C00000
01800000
03000000
02000000
06000000
0C000000
18000000
10000000
30000000
60000000
C0000000
FFFFFFE0
ENDCHAR
STARTCHAR 017B
ENCODING 379
SWIDTH 630 0
DWIDTH 42 0
BBX 37 56 3 0
BITMAP
0000700000
0000700000
0000700000
0000000000
0000000000
0000000000
0000000000
0000000000
0000000000
7FFFFFFFF0
7FFFFFFFF0
0000000020
0000000060
00000000C0
0000000180
0000000100
0000000300
0000000600
0000000C00
0000000800
0000001800
0000003000
0000006000
0000004000
0000008000
0000018000
0000030000
0000060000
0000040000
00000C0000
0000180000
0000300000
0000200000
0000600000
0000C00000
0001800000
0001000000
0002000000
0006000000
000C000000
0018000000
0010000000
0030000000
0060000000
00C0000000
0080000000
0180000000
0300000000
0600000000
0400000000
0800000000
1800000000
3000000000
6000000000
4000000000
FFFFFFFFF8
ENDCHAR
STARTCHAR 017C
ENCODING 380
SWIDTH 480 0
DWIDTH 32 0
BBX 27 46 3 0
BITMAP
000E0000
000E0000
000E0000
00000000
00000000
00000000
00000000
00000000
00000000
00000000
00000000
00000000
FFFFFFC0
00000080
00000180
00000300
00000200
00000400
00000C00
00001800
00001000
00002000
00006000
0000C000
00008000
00010000
00030000
00060000
000C0000
00080000
00180000
00300000
00600000
00400000
00C00000
01800000
03000000
02000000
06000000
0C000000
18000000
10000000
30000000
60000000
C0000000
FFFFFFE0
ENDCHAR
STARTCHAR 017D
ENCODING 381
SWIDTH 630 0
DWIDTH 42 0
BBX 37 58 3 0
BITMAP
0030003000
0018004000
000C018000
0006030000
0003060000
0001CC0000
0000F80000
0000300000
0000000000
0000000000
0000000000
7FFFFFFFF0
7FFFFFFFF0
0000000020
0000000060
00000000C0
0000000180
0000000100
0000000300
0000000600
0000000C00
0000000800
0000001800
0000003000
0000006000
0000004000
0000008000
0000018000
0000030000
0000060000
0000040000
00000C0000
0000180000
0000300000
0000200000
0000600000
0000C00000
0001800000
0001000000
0002000000
0006000000
000C000000
0018000000
0010000000
0030000000
0060000000
00C0000000
0080000000
0180000000
0300000000
0600000000
0400000000
0800000000
1800000000
3000000000
6000000000
4000000000
FFFFFFFFF8
ENDCHAR
STARTCHAR 017E
ENCODING 382
SWIDTH 480 0
DWIDTH 32 0
BBX 27 48 3 0
BITMAP
0C000C00
02001800
01803000
00C06000
0060C000
00338000
001F0000
000C0000
00000000
00000000
00000000
00000000
00000000
00000000
FFFFFFC0
00000080
00000180
00000300
00000200
00000400
00000C00
00001800
00001000
00002000
00006000
0000C000
00008000
00010000
00030000
00060000
000C0000
00080000
00180000
00300000
00600000
00400000
00C00000
01800000
03000000
02000000
06000000
0C000000
18000000
10000000
30000000
60000000
C0000000
FFFFFFE0
ENDCHAR
STARTCHAR 017F
ENCODING 383
SWIDTH 270 0
DWIDTH 18 0
BBX 22 50 2 0
BITMAP
000780
001FF0
00601C
00C000
008000
018000
018000
010000
010000
010000
010000
010000
010000
010000
010000
010000
FF0000
010000
010000
010000
010000
010000
010000
010000
010000
010000
010000
010000
010000
010000
010000
010000
010000
010000
010000
010000
010000
010000
010000
010000
010000
010000
010000
010000
010000
010000
010000
010000
010000
010000
ENDCHAR
STARTCHAR 018F
ENCODING 399
SWIDTH 810 0
DWIDTH 54 0
BBX 46 47 4 0
BITMAP
00003FE00000
0003F0FE0000
001E00038000
00700000E000
00C000003800
018000000C00
010000000600
000000000300
000000000180
0000000000C0
000000000060
000000000020
000000000030
000000000010
000000000018
000000000008
000000000008
00000000000C
000000000004
000000000004
000000000004
000000000004
000000000004
FFFFFFFFFFFC
800000000004
800000000004
800000000004
C00000000004
C00000000004
40000000000C
400000000008
600000000008
600000000018
200000000010
300000000030
100000000020
180000000060
0C00000000C0
060000000080
030000000100
018000000200
00C000000C00
006000001800
003800007000
000E0001C000
0003E00F0000
00007FF80000
ENDCHAR
STARTCHAR 0192
ENCODING 402
SWIDTH 405 0
DWIDTH 27 0
BBX 36 63 -6 -13
BITMAP
0000000F00
0000007FE0
000001C070
0000030000
0000020000
0000060000
0000040000
0000040000
00000C0000
00000C0000
00000C0000
0000080000
0000080000
0000080000
0000080000
0000180000
0007FFFF00
0000180000
0000180000
0000100000
0000100000
0000100000
0000100000
0000100000
0000300000
0000300000
0000300000
0000200000
0000200000
0000200000
0000200000
0000200000
0000600000
0000600000
0000600000
0000400000
0000400000
0000400000
0000400000
0000400000
0000C00000
0000C00000
0000C00000
0000800000
0000800000
0000800000
0000800000
0000800000
0001800000
0001800000
0001800000
0001000000
0001000000
0001000000
0001000000
0001000000
0003000000
0002000000
0006000000
0004000000
C008000000
7070000000
1FE0000000
ENDCHAR
STARTCHAR 01A0
ENCODING 416
SWIDTH 825 0
DWIDTH 55 0
BBX 48 56 4 0
BITMAP
000000000008
00000000000C
000000000004
000000000004
000000000004
000000000004
000000000004
00000000000C
000000000008
00001FFE0038
0001FE7FFFE0
00078001E000
001C00003800
003000000C00
00E000000600
018000000380
0300000000C0
060000000040
0C0000000060
080000000030
180000000018
100000000008
30000000000C
200000000004
600000000004
400000000006
400000000002
C00000000002
C00000000002
800000000003
800000000003
800000000003
800000000003
800000000003
800000000003
800000000003
C00000000003
C00000000002
400000000002
400000000006
600000000006
200000000004
20000000000C
300000000008
180000000018
080000000010
0C0000000030
060000000060
0300000000C0
018000000180
00C000000300
007000000E00
001800003800
000F0000E000
0003E0078000
00003FFC0000
ENDCHAR
STARTCHAR 01A1
ENCODING 417
SWIDTH 600 0
DWIDTH 40 0
BBX 33 44 4 0
BITMAP
0000000200
0000000300
0000000100
0000000100
0000000100
0000000100
0000000100
0000000300
0000000600
0003F83C00
003FFFF000
00E0038000
038000C000
0600003000
0C00001800
1800000800
1000000400
2000000600
6000000200
4000000300
4000000100
C000000100
8000000180
8000000180
8000000080
8000000080
8000000080
8000000080
8000000080
8000000080
8000000180
C000000180
C000000100
4000000300
6000000300
2000000200
3000000400
1800000C00
0800001800
0600003000
0300006000
01C001C000
00780F0000
001FF80000
ENDCHAR
STARTCHAR 01AF
ENCODING 431
SWIDTH 780 0
DWIDTH 52 0
BBX 43 56 8 0
BITMAP
0000000000C0
000000000040
000000000060
000000000060
000000000060
000000000060
000000000060
000000000040
0000000000C0
C00000001F80
C00000001800
C00000001000
C00000001000
C00000001000
C00000001000
C00000001000
C00000001000
C00000001000
C00000001000
C00000001000
C00000001000
C00000001000
C00000001000
C00000001000
C00000001000
C00000001000
C00000001000
C00000001000
C00000001000
C00000001000
C00000001000
C00000001000
C00000001000
C00000001000
C00000001000
C00000001000
C00000001000
C00000001000
400000001000
400000001000
400000001000
400000001000
400000001000
600000003000
600000002000
200000002000
300000006000
100000004000
18000000C000
080000018000
040000010000
020000020000
0180000C0000
00E000380000
003C01E00000
0007FF000000
ENDCHAR
STARTCHAR 01B0
ENCODING 432
SWIDTH 660 0
DWIDTH 44 0
BBX 35 44 7 0
BITMAP
00000000C0
0000000040
0000000060
0000000020
0000000020
0000000020
0000000060
0000000060
00000000C0
0000000780
C000000E00
C000000C00
C000000C00
C000000C00
C000000C00
C000000C00
C000000C00
C000000C00
C000000C00
C000000C00
C000000C00
C000000C00
C000000C00
C000000C00
C000000C00
C000000C00
C000000C00
C000000C00
C000000C00
C000000C00
C000000C00
C000000C00
C000000C00
4000000C00
4000001C00
4000001C00
6000003C00
2000002C00
3000004C00
180000CC00
0C00018C00
0700060C00
01C03C0C00
007FE00C00
ENDCHAR
STARTCHAR 01B7
ENCODING 439
SWIDTH 585 0
DWIDTH 39 0
BBX 34 47 2 0
BITMAP
3FFFFFFF00
3FFFFFFF00
0000000600
0000000C00
0000001800
0000001000
0000003000
0000006000
000000C000
0000018000
0000010000
0000020000
0000060000
00000C0000
0000180000
0000100000
0000200000
0000600000
0000C00000
0001800000
0001000000
0003F00000
00007F8000
000000E000
0000003800
0000000C00
0000000600
0000000300
0000000100
0000000180
0000000080
0000000080
0000000080
00000000C0
00000000C0
0000000080
0000000080
0000000080
0000000180
0000000100
C000000300
6000000200
3000000400
1C00001C00
0700003000
01F003C000
001FFF0000
ENDCHAR
STARTCHAR 01C4
ENCODING 452
SWIDTH 1455 0
DWIDTH 97 0
BBX 85 58 9 0
BITMAP
0000000000000030003000
0000000000000018006000
000000000000000C018000
0000000000000006030000
0000000000000003060000
0000000000000001CC0000
0000000000000000780000
0000000000000000300000
0000000000000000000000
0000000000000000000000
0000000000000000000000
FFFFF80000007FFFFFFFF0
FFFFFFC000007FFFFFFFF0
8000007800000000000030
8000000E00000000000060
80000003000000000000C0
80000001C0000000000080
8000000060000000000100
8000000030000000000300
8000000018000000000600
800000000C000000000C00
8000000004000000000800
8000000006000000001800
8000000003000000003000
8000000001000000006000
8000000001000000004000
800000000180000000C000
8000000000800000018000
8000000000800000030000
8000000000C00000020000
8000000000C00000040000
80000000004000000C0000
8000000000400000180000
8000000000400000300000
8000000000400000200000
8000000000400000600000
8000000000400000C00000
8000000000400001800000
8000000000C00001000000
8000000000C00003000000
8000000000800006000000
800000000080000C000000
8000000000800008000000
8000000001800010000000
8000000001000030000000
8000000003000060000000
80000000020000C0000000
8000000006000080000000
800000000C000180000000
8000000018000300000000
8000000030000600000000
8000000060000400000000
80000000C0000C00000000
8000000380001800000000
8000000600003000000000
8000003800002000000000
800007E000006000000000
FFFFFE000000FFFFFFFFF8
ENDCHAR
STARTCHAR 01C5
ENCODING 453
SWIDTH 1305 0
DWIDTH 87 0
BBX 76 48 9 0
BITMAP
00000000000002000600
FFFFF800000001800C00
FFFFFFC0000000C01800
80000078000000603000
8000000E000000306000
8000000300000019C000
80000001C000000F8000
80000000600000070000
80000000300000000000
80000000180000000000
800000000C0000000000
80000000040000000000
80000000060000000000
80000000030000000000
8000000001007FFFFFE0
80000000010000000060
800000000180000000C0
80000000008000000180
80000000008000000100
8000000000C000000300
8000000000C000000600
80000000004000000C00
80000000004000000800
80000000004000001800
80000000004000003000
80000000004000006000
80000000004000004000
8000000000400000C000
8000000000C000018000
8000000000C000030000
80000000008000020000
80000000008000040000
800000000080000C0000
80000000018000180000
80000000010000100000
80000000030000200000
80000000020000600000
80000000060000C00000
800000000C0000800000
80000000180001000000
80000000300003000000
80000000600006000000
80000000C00004000000
80000003800008000000
80000006000018000000
80000038000030000000
800007E0000020000000
FFFFFE0000007FFFFFF0
ENDCHAR
STARTCHAR 01C6
ENCODING 454
SWIDTH 1170 0
DWIDTH 78 0
BBX 70 49 4 0
BITMAP
000000008000000000
000000008000C000C0
000000008000600180
000000008000180300
0000000080000C0600
000000008000061C00
000000008000033800
00000000800001E000
00000000800000C000
000000008000000000
000000008000000000
000000008000000000
000000008000000000
000000008000000000
0003E0008000000000
003FFE00800FFFFFFC
00E003808000000008
038000C08000000018
060000208000000030
0C0000108000000060
180000088000000040
1000000480000000C0
200000068000000180
600000028000000300
400000038000000200
400000018000000600
C00000018000000C00
800000018000001800
800000018000001000
800000008000003000
800000008000006000
80000000800000C000
800000008000008000
800000008000018000
800000008000030000
800000018000060000
C00000018000040000
C000000180000C0000
400000038000180000
600000028000300000
200000028000200000
300000048000400000
1800000C8000C00000
080000188001800000
060000308001000000
030000608002000000
01C001C08006000000
00780F00800C000000
001FF800800FFFFFFC
ENDCHAR
STARTCHAR 01C7
ENCODING 455
SWIDTH 1050 0
DWIDTH 70 0
BBX 53 47 9 0
BITMAP
800000003FFFF8
800000003FFFF8
80000000000008
80000000000008
80000000000008
80000000000008
80000000000008
80000000000008
80000000000008
80000000000008
80000000000008
80000000000008
80000000000008
80000000000008
80000000000008
80000000000008
80000000000008
80000000000008
80000000000008
80000000000008
80000000000008
80000000000008
80000000000008
80000000000008
80000000000008
80000000000008
80000000000008
80000000000008
80000000000008
80000000000008
80000000000008
80000000000008
80000000000008
80000000000008
80000000000008
80000000000008
80000000000008
80000000000018
80000000000018
80000000000010
80000002000010
80000001000030
80000001800060
80000000C00040
800000007001C0
800000001C0700
FFFFFFF807FC00
ENDCHAR
STARTCHAR 01C8
ENCODING 456
SWIDTH 825 0
DWIDTH 55 0
BBX 40 60 9 -13
BITMAP
8000000007
8000000007
8000000007
8000000000
8000000000
8000000000
8000000000
8000000000
8000000000
8000000000
8000000000
8000000000
8000000000
8000000002
8000000002
8000000002
8000000002
8000000002
8000000002
8000000002
8000000002
8000000002
8000000002
8000000002
8000000002
8000000002
8000000002
8000000002
8000000002
8000000002
8000000002
8000000002
8000000002
8000000002
8000000002
8000000002
8000000002
8000000002
8000000002
8000000002
8000000002
8000000002
8000000002
8000000002
8000000002
8000000002
FFFFFFF802
0000000002
0000000002
0000000002
0000000002
0000000002
0000000002
0000000006
0000000006
0000000004
000000000C
000000C018
0000007070
0000001FE0
ENDCHAR
STARTCHAR 01C9
ENCODING 457
SWIDTH 495 0
DWIDTH 33 0
BBX 19 62 8 -13
BITMAP
800000
800000
8000E0
8000E0
8000E0
800000
800000
800000
800000
800000
800000
800000
800000
800000
800000
800040
800040
800040
800040
800040
800040
800040
800040
800040
800040
800040
800040
800040
800040
800040
800040
800040
800040
800040
800040
800040
800040
800040
800040
800040
800040
800040
800040
800040
800040
800040
800040
800040
800040
000040
000040
000040
000040
000040
000040
0000C0
0000C0
000080
000180
180300
0E0E00
03FC00
ENDCHAR
STARTCHAR 01CA
ENCODING 458
SWIDTH 1290 0
DWIDTH 86 0
BBX 69 47 9 0
BITMAP
8000000018003FFFF8
C000000018003FFFF8
E00000001800000018
A00000001800000018
900000001800000018
980000001800000018
8C0000001800000018
860000001800000018
820000001800000018
830000001800000018
818000001800000018
80C000001800000018
804000001800000018
806000001800000018
803000001800000018
801800001800000018
800C00001800000018
800400001800000018
800600001800000018
800300001800000018
800180001800000018
800080001800000018
8000C0001800000018
800060001800000018
800030001800000018
800010001800000018
800008001800000018
80000C001800000018
800006001800000018
800003001800000018
800001001800000018
800001801800000018
800000C01800000018
800000601800000018
800000201800000018
800000301800000018
800000181800000018
8000000C1800000010
800000061800000010
800000021800000010
800000031802000030
800000019803000020
80000000D801800060
800000005800C000C0
800000007800700180
8000000038001C0700
80000000180007FC00
ENDCHAR
STARTCHAR 01CB
ENCODING 459
SWIDTH 1065 0
DWIDTH 71 0
BBX 56 60 9 -13
BITMAP
80000000180007
C000000018000F
E0000000180006
A0000000180000
90000000180000
98000000180000
8C000000180000
86000000180000
82000000180000
83000000180000
81800000180000
80C00000180000
80400000180000
80600000180006
80300000180006
80180000180006
800C0000180006
80040000180006
80060000180006
80030000180006
80018000180006
80008000180006
8000C000180006
80006000180006
80003000180006
80001000180006
80000800180006
80000C00180006
80000600180006
80000300180006
80000100180006
80000180180006
800000C0180006
80000060180006
80000020180006
80000030180006
80000018180006
8000000C180006
80000006180006
80000002180006
80000003180006
80000001980006
80000000D80006
80000000580006
80000000780006
80000000380006
80000000180006
00000000000006
00000000000006
00000000000006
00000000000006
00000000000006
00000000000006
00000000000006
00000000000004
00000000000004
0000000000000C
0000000000C018
00000000007070
00000000001FC0
ENDCHAR
STARTCHAR 01CC
ENCODING 460
SWIDTH 915 0
DWIDTH 61 0
BBX 47 60 8 -13
BITMAP
00000000000E
00000000001E
00000000000C
000000000000
000000000000
000000000000
000000000000
000000000000
000000000000
000000000000
000000000000
000000000000
000780000000
807FFC000004
81C007000004
870001800004
8C0000C00004
980000600004
900000200004
A00000300004
E00000100004
C00000180004
C00000180004
C00000080004
800000080004
800000080004
800000080004
800000080004
800000080004
800000080004
800000080004
800000080004
800000080004
800000080004
800000080004
800000080004
800000080004
800000080004
800000080004
800000080004
800000080004
800000080004
800000080004
800000080004
800000080004
800000080004
800000080004
000000000004
000000000004
000000000004
000000000004
000000000004
00000000000C
00000000000C
00000000000C
000000000008
000000000018
000000018030
00000000E0E0
000000003F80
ENDCHAR
STARTCHAR 01CD
ENCODING 461
SWIDTH 675 0
DWIDTH 45 0
BBX 44 58 1 0
BITMAP
000600060000
0003000C0000
000180180000
0000C0600000
000070C00000
000019800000
00000F000000
000006000000
000000000000
000000000000
000000000000
000006000000
000006000000
00000F000000
000009000000
000019800000
000010800000
000030800000
000020C00000
000060400000
000060600000
000040200000
0000C0300000
000080100000
000180180000
000100080000
0003000C0000
000200040000
000600060000
000400020000
000C00030000
000800030000
001800010000
001800018000
003000008000
00300000C000
002000004000
006000006000
004000002000
00C000003000
008000001000
018000001800
010000000800
03FFFFFFFC00
020000000C00
060000000400
040000000600
0C0000000200
0C0000000300
080000000100
180000000180
100000000080
3000000000C0
200000000040
600000000060
400000000020
C00000000030
800000000030
ENDCHAR
STARTCHAR 01CE
ENCODING 462
SWIDTH 570 0
DWIDTH 38 0
BBX 27 48 4 0
BITMAP
06000600
03000C00
00C01800
00603000
0030E000
0019C000
000F0000
00060000
00000000
00000000
00000000
00000000
00000000
00078000
00FFF800
03800E00
0C000300
38000180
60000080
000000C0
00000040
00000060
00000060
00000020
00000020
00000020
00000020
00000020
00000020
003FFFE0
07FFFFE0
0C000020
10000020
20000020
60000020
40000020
40000020
C0000020
C0000060
C0000060
C00000E0
400000A0
600001A0
20000320
30000620
1C001C20
0780F020
01FFC020
ENDCHAR
STARTCHAR 01D3
ENCODING 467
SWIDTH 780 0
DWIDTH 52 0
BBX 36 58 8 0
BITMAP
0020002000
001800C000
000C018000
0006030000
0003060000
00018C0000
0000F80000
0000700000
0000000000
0000000000
0000000000
C000000010
C000000010
C000000010
C000000010
C000000010
C000000010
C000000010
C000000010
C000000010
C000000010
C000000010
C000000010
C000000010
C000000010
C000000010
C000000010
C000000010
C000000010
C000000010
C000000010
C000000010
C000000010
C000000010
C000000010
C000000010
C000000010
C000000010
C000000010
C000000010
4000000010
4000000010
4000000010
4000000010
4000000010
6000000030
6000000020
2000000020
3000000060
1000000040
18000000C0
0800000180
0400000100
0200000200
0180000C00
00E0003800
003C01E000
0007FF0000
ENDCHAR
STARTCHAR 01D4
ENCODING 468
SWIDTH 660 0
DWIDTH 44 0
BBX 30 48 7 0
BITMAP
03000300
01800600
00C00C00
00603000
00386000
000CC000
00078000
00030000
00000000
00000000
00000000
00000000
00000000
00000000
C000000C
C000000C
C000000C
C000000C
C000000C
C000000C
C000000C
C000000C
C000000C
C000000C
C000000C
C000000C
C000000C
C000000C
C000000C
C000000C
C000000C
C000000C
C000000C
C000000C
C000000C
C000000C
C000000C
4000000C
4000001C
4000001C
6000003C
2000002C
3000004C
180000CC
0C00018C
0700060C
01C03C0C
007FE00C
ENDCHAR
STARTCHAR 01E4
ENCODING 484
SWIDTH 795 0
DWIDTH 53 0
BBX 48 47 4 0
BITMAP
00000FF80000
0000FE7F8000
00078000E000
001C00003800
003000000C00
00E000000300
018000000100
030000000000
060000000000
0C0000000000
080000000000
180000000000
100000000000
300000000000
200000000000
600000000000
400000000000
400000000000
C00000000000
C00000000000
800000000000
800000000000
800000000000
800000000000
800000000100
800000000100
800000000100
C00000000100
C00000000100
400000000100
400000000100
600000FFFFFF
200000000100
200000000100
300000000100
180000000100
080000000100
0C0000000100
060000000100
030000000100
018000000100
00C000000300
007000000600
001800001800
000F00007000
0001E0078000
00003FFC0000
ENDCHAR
STARTCHAR 01E5
ENCODING 485
SWIDTH 675 0
DWIDTH 45 0
BBX 38 48 4 -13
BITMAP
0003E00000
003FFE0080
00E0038080
038000E080
0600003080
0C00001880
1800000C80
3000000680
2000000280
6000000380
4000000180
C000000180
C000000080
8000000080
8000000080
8000000080
8000000080
8000000080
8000000080
8000000080
8000000080
8000000080
C000000180
4000000180
6000000380
2000000280
3000000680
1800000C80
0C00001880
0600003080
0300006080
00C0018080
003E7F0080
0007F00080
0000000080
0000000080
0000000080
0000000080
0000FFFFFC
0000FFFFFC
0000000100
0000000200
3000000600
1C00000C00
0600001800
03C0007000
00F803C000
000FFE0000
ENDCHAR
STARTCHAR 01E6
ENCODING 486
SWIDTH 765 0
DWIDTH 51 0
BBX 40 58 4 0
BITMAP
0003000300
0001800600
0000C00C00
0000603000
0000306000
00001CC000
0000078000
0000030000
0000000000
0000000000
0000000000
00000FF800
0000FE7F80
00078000E0
001C000038
003000000C
00E0000003
0180000001
0300000000
0600000000
0C00000000
0800000000
1800000000
1000000000
3000000000
2000000000
6000000000
4000000000
4000000000
C000000000
C000000000
8000000000
8000000000
8000000000
8000000000
8000000001
8000000001
8000000001
C000000001
C000000001
4000000001
4000000001
6000000001
2000000001
2000000001
3000000001
1800000001
0800000001
0C00000001
0600000001
0300000001
0180000001
00C0000003
0070000006
0018000018
000F000070
0001E00780
00003FFC00
ENDCHAR
STARTCHAR 01E7
ENCODING 487
SWIDTH 675 0
DWIDTH 45 0
BBX 33 61 4 -13
BITMAP
00C000C000
0060018000
0030030000
001C0E0000
0006180000
0003300000
0001E00000
0000C00000
0000000000
0000000000
0000000000
0000000000
0000000000
0003E00000
003FFE0080
00E0038080
038000E080
0600003080
0C00001880
1800000C80
3000000680
2000000280
6000000380
4000000180
C000000180
C000000080
8000000080
8000000080
8000000080
8000000080
8000000080
8000000080
8000000080
8000000080
8000000080
C000000180
4000000180
6000000380
2000000280
3000000680
1800000C80
0C00001880
0600003080
0300006080
00C0018080
003E7F0080
0007F00080
0000000080
0000000080
0000000080
0000000080
0000000180
0000000100
0000000100
0000000200
3000000600
1C00000C00
0600001800
03C0007000
00F803C000
000FFE0000
ENDCHAR
STARTCHAR 01E8
ENCODING 488
SWIDTH 690 0
DWIDTH 46 0
BBX 36 58 9 0
BITMAP
0180018000
00C0020000
00600C0000
0030180000
0018300000
000E600000
0007C00000
0001800000
0000000000
0000000000
0000000000
8000000040
8000000080
8000000180
8000000300
8000000600
8000000C00
8000001800
8000003000
8000006000
800000C000
8000018000
8000030000
8000060000
80000C0000
8000180000
8000300000
8000600000
8000C00000
8001800000
8003000000
8006000000
800C000000
801C000000
8032000000
8063000000
80C1800000
8180C00000
8300600000
8600300000
8C00180000
98000C0000
B000040000
E000020000
C000030000
8000018000
800000C000
8000006000
8000003000
8000001800
8000000C00
8000000400
8000000600
8000000300
8000000180
80000000C0
8000000060
8000000030
ENDCHAR
STARTCHAR 01E9
ENCODING 489
SWIDTH 570 0
DWIDTH 38 0
BBX 37 63 -1 0
BITMAP
C000C00000
2001800000
1803000000
0C06000000
060C000000
0338000000
01F0000000
00C0000000
0000000000
0000000000
0000000000
0000000000
0000000000
0000000000
0040000000
0040000000
0040000000
0040000000
0040000000
0040000000
0040000000
0040000000
0040000000
0040000000
0040000000
0040000000
0040000000
0040000000
0040000000
0040000070
00400000C0
0040000180
0040000300
0040000600
0040000C00
0040001800
0040003000
004000C000
0040018000
0040030000
0040060000
00400C0000
0040180000
0040340000
0040660000
0040C30000
0041018000
0046008000
004C004000
0058006000
0070003000
0060001800
0040000800
0040000C00
0040000600
0040000300
0040000180
0040000080
00400000C0
0040000060
0040000030
0040000018
0040000008
ENDCHAR
STARTCHAR 01EA
ENCODING 490
SWIDTH 825 0
DWIDTH 55 0
BBX 48 61 4 -14
BITMAP
00001FF00000
0001FE7F0000
00070001E000
001C00003800
003000000C00
00C000000600
018000000180
0300000000C0
060000000040
0C0000000020
080000000030
180000000018
100000000008
30000000000C
200000000004
600000000004
400000000006
400000000002
C00000000002
C00000000002
800000000003
800000000003
800000000003
800000000003
800000000003
800000000003
800000000003
C00000000003
C00000000002
400000000002
400000000006
600000000006
200000000004
20000000000C
300000000008
100000000018
080000000010
0C0000000020
060000000060
0300000000C0
018000000180
00C000000300
006000000E00
001800003800
000F0000E000
0003E0078000
00003FFC0000
000001C00000
000003000000
000006000000
000008000000
000010000000
000030000000
000020000000
000020000000
000060000000
000020000000
000020000000
000030000000
000018300000
00000FE00000
ENDCHAR
STARTCHAR 01EB
ENCODING 491
SWIDTH 600 0
DWIDTH 40 0
BBX 33 49 4 -14
BITMAP
0003E00000
003FFE0000
00E0038000
038000C000
0600003000
0C00001800
1800000800
1000000400
2000000600
6000000200
4000000300
4000000100
C000000100
8000000180
8000000180
8000000080
8000000080
8000000080
8000000080
8000000080
8000000080
8000000180
C000000180
C000000100
4000000300
6000000300
2000000200
3000000400
1800000C00
0800001800
0600003000
0300006000
01C001C000
00780F0000
001FFC0000
0000300000
0000C00000
0001800000
0003000000
0006000000
0004000000
0004000000
000C000000
000C000000
000C000000
000C000000
0004020000
0003060000
0001FC0000
ENDCHAR
STARTCHAR 01EE
ENCODING 494
SWIDTH 585 0
DWIDTH 39 0
BBX 34 58 2 0
BITMAP
00C000C000
0060018000
0030030000
000C060000
00061C0000
0003300000
0001E00000
0000C00000
0000000000
0000000000
0000000000
3FFFFFFF00
3FFFFFFF00
0000000600
0000000C00
0000001800
0000001000
0000003000
0000006000
000000C000
0000018000
0000010000
0000020000
0000060000
00000C0000
0000180000
0000100000
0000200000
0000600000
0000C00000
0001800000
0001000000
0003F00000
00007F8000
000000E000
0000003800
0000000C00
0000000600
0000000300
0000000100
0000000180
0000000080
0000000080
0000000080
00000000C0
00000000C0
0000000080
0000000080
0000000080
0000000180
0000000100
C000000300
6000000200
3000000400
1C00001C00
0700003000
01F003C000
001FFF0000
ENDCHAR
STARTCHAR 01EF
ENCODING 495
SWIDTH 480 0
DWIDTH 32 0
BBX 32 61 -2 -13
BITMAP
01800180
00C00300
00300600
00180C00
000C3800
00067000
0003C000
00018000
00000000
00000000
00000000
00000000
00000000
00000000
3FFFFFFC
00000008
00000010
00000030
00000060
00000040
000000C0
00000180
00000300
00000200
00000600
00000C00
00001800
00001000
00003000
00006000
0000C000
00008000
00018000
00030000
00060000
0007FC00
00000F80
000000C0
00000030
00000018
00000008
00000004
00000006
00000002
00000002
00000002
00000003
00000003
00000003
00000003
00000002
00000002
00000002
00000006
C0000004
6000000C
30000018
1C000030
070000C0
01F00780
003FFC00
ENDCHAR
STARTCHAR 01FA
ENCODING 506
SWIDTH 675 0
DWIDTH 45 0
BBX 44 68 1 0
BITMAP
000000030000
000000060000
0000000C0000
000000180000
00001FB00000
000030E00000
000040600000
0000C0300000
000080100000
000080100000
000080100000
000080300000
0000C0300000
000060600000
000039C00000
00001F000000
000000000000
000000000000
000000000000
000000000000
000000000000
000006000000
000006000000
00000F000000
000009000000
000019800000
000010800000
000030800000
000020C00000
000060400000
000060600000
000040200000
0000C0300000
000080100000
000180180000
000100080000
0003000C0000
000200040000
000600060000
000400020000
000C00030000
000800030000
001800010000
001800018000
003000008000
00300000C000
002000004000
006000006000
004000002000
00C000003000
008000001000
018000001800
010000000800
03FFFFFFFC00
020000000C00
060000000400
040000000600
0C0000000200
0C0000000300
080000000100
180000000180
100000000080
3000000000C0
200000000040
600000000060
400000000020
C00000000030
800000000030
ENDCHAR
STARTCHAR 01FB
ENCODING 507
SWIDTH 570 0
DWIDTH 38 0
BBX 27 56 4 0
BITMAP
00000100
00000300
00000600
00000C00
000F9800
0039F000
00606000
00403000
00C01000
00801000
00801000
00801000
00C03000
00602000
0030E000
001F8000
00000000
00000000
00000000
00000000
00000000
00078000
00FFF800
03800E00
0C000300
38000180
60000080
000000C0
00000040
00000060
00000060
00000020
00000020
00000020
00000020
00000020
00000020
003FFFE0
07FFFFE0
0C000020
10000020
20000020
60000020
40000020
40000020
C0000020
C0000060
C0000060
C00000E0
400000A0
600001A0
20000320
30000620
1C001C20
0780F020
01FFC020
ENDCHAR
STARTCHAR 01FC
ENCODING 508
SWIDTH 1005 0
DWIDTH 67 0
BBX 61 58 1 0
BITMAP
0000000007000000
000000000C000000
0000000038000000
0000000070000000
00000000C0000000
0000000180000000
0000000600000000
0000000C00000000
0000000000000000
0000000000000000
0000000000000000
00000007FFFFFFF0
0000000FFFFFFFF0
0000000B00000000
0000001B00000000
0000001300000000
0000003300000000
0000006300000000
0000004300000000
000000C300000000
0000018300000000
0000010300000000
0000030300000000
0000020300000000
0000040300000000
00000C0300000000
0000080300000000
0000180300000000
0000300300000000
0000200300000000
0000600300000000
0000C00300000000
0000800300000000
0001800300000000
00010003FFFFFF80
0002000300000000
0006000300000000
0004000300000000
000C000300000000
0018000300000000
0010000300000000
0030000300000000
0060000300000000
007FFFFF00000000
00C0000300000000
0080000300000000
0100000300000000
0300000300000000
0200000300000000
0600000300000000
0C00000300000000
0800000300000000
1800000300000000
3000000300000000
2000000300000000
6000000300000000
4000000300000000
80000003FFFFFFF8
ENDCHAR
STARTCHAR 01FD
ENCODING 509
SWIDTH 975 0
DWIDTH 65 0
BBX 58 48 4 0
BITMAP
00000000E0000000
00000001C0000000
0000000300000000
0000000E00000000
0000001800000000
0000003000000000
0000006000000000
0000018000000000
0000000000000000
0000000000000000
0000000000000000
0000000000000000
0000000000000000
0007800001F00000
00FFF8000FFF0000
03800E003801C000
0C000300C0006000
3800018180003000
6000008300000800
000000C600000C00
0000004400000600
0000006800000300
0000007800000100
0000003000000100
0000003000000180
0000003000000080
0000002000000080
0000002000000080
00000020000000C0
003FFFFFFFFFFFC0
03FFFFFFFFFFFFC0
0C00002000000000
1800002000000000
2000002000000000
6000002000000000
4000003000000000
4000003000000000
C000007000000000
C000007800000000
C000004800000000
C00000CC00000000
4000008600000000
6000018300000300
2000030180000600
30000600C0000C00
1C001C0070003000
078070001E01E000
01FFC00003FF0000
ENDCHAR
ENDFONT
